<svg fill="none" version="1.1" viewBox="0 0 992 110" xmlns="http://www.w3.org/2000/svg">
  <g filter="url(#a)">
    <path d="m11.605 30.4c0-7.8407 0-11.761 1.5259-14.756 1.3422-2.6342 3.4839-4.776 6.1182-6.1182 2.9948-1.5259 6.9151-1.5259 14.756-1.5259h905.99c7.841 0 11.761 0 14.756 1.5259 2.634 1.3422 4.776 3.484 6.118 6.1182 1.526 2.9948 1.526 6.9152 1.526 14.756v25.2c0 7.8407 0 11.761-1.526 14.756-1.342 2.6342-3.484 4.776-6.118 6.1182-2.995 1.5259-6.915 1.5259-14.756 1.5259h-905.99c-7.8407 0-11.761 0-14.756-1.5259-2.6343-1.3422-4.776-3.484-6.1182-6.1182-1.5259-2.9948-1.5259-6.9152-1.5259-14.756z" fill="#d3e8ca" shape-rendering="crispEdges"/>
    <path d="m86.983 72.919c0-0.039 0.2344-0.3993 0.521-0.8009 0.2865-0.4016 0.6437-0.9447 0.7937-1.207 0.366-0.6402 0.3671-0.2242 0.0014 0.5612-0.3645 0.7828-1.3161 1.8289-1.3161 1.4467zm-0.9086-0.1199c0-0.2299 1.0843-1.5131 1.2786-1.5131 0.1293 0-0.5324 0.9177-0.9507 1.3185-0.1804 0.1728-0.3279 0.2604-0.3279 0.1946zm-14.311-0.097c0-0.2121 0.4075-0.963 0.7483-1.3789 0.4546-0.5548 0.4392-0.5804-0.1642-0.2726-0.4114 0.2099-0.9956 0.7764-1.4072 1.3644-0.2905 0.415-0.3292 0.2385-0.0731-0.3334 0.4196-0.9372 0.7446-1.243 1.9058-1.7931 1.3646-0.6466 2.2542-1.2405 2.7829-1.8582 0.2255-0.2635 0.41-0.4264 0.41-0.3621 0 0.2753-0.6792 1.0884-1.363 1.6318-1.1103 0.8824-1.4373 1.2193-2.1187 2.1823-0.5755 0.8135-0.7208 0.9786-0.7208 0.8198zm12.286-0.0105c0.0263-0.0547 0.2137-0.4388 0.4166-0.8536s0.4104-1.0164 0.4611-1.3369c0.131-0.8293 0.2854-0.8825 0.194-0.067-0.105 0.937-0.2507 1.4331-0.5512 1.8766-0.2259 0.3333-0.6448 0.6399-0.5205 0.3809zm21.636-0.5061c-0.426-0.4981-1.406-2.3322-1.302-2.4366 0.035-0.0348 0.194 0.1563 0.354 0.4246 0.161 0.2683 0.421 0.6347 0.579 0.8141s0.321 0.435 0.363 0.5679 0.197 0.3998 0.344 0.5931c0.513 0.673 0.232 0.7035-0.338 0.0369zm-19.174-0.6625c0.5846-0.5676 1.118-1.032 1.1855-1.032 0.1819 0-0.4318 0.6067-1.3964 1.3805-0.8518 0.6834-0.8519 0.6835 0.2109-0.3485zm20.082 0.3798c-0.233-0.3705-0.475-0.878-0.54-1.1279s-0.145-0.5565-0.179-0.6815c-0.039-0.1427 0.11-0.0372 0.401 0.284 0.254 0.2811 0.464 0.5424 0.466 0.5807 2e-3 0.0382 0.156 0.2625 0.344 0.4983 0.367 0.4626 0.482 0.8835 0.17 0.6243-0.094-0.0779-0.375-0.4543-0.625-0.8364-0.587-0.8984-0.584-0.7186 4e-3 0.3026 0.569 0.9863 0.535 1.2761-0.041 0.3559zm-29.598 0.221c0.2905-0.3144 0.2354-0.3235-0.4345-0.0718-0.284 0.1068-0.131-0.0615 0.3381-0.372 0.2641-0.1748 0.7533-0.5953 1.0872-0.9346 0.3339-0.3392 0.6303-0.5935 0.6589-0.5649 0.1971 0.1971-0.7937 1.6554-1.3646 2.0082-0.5122 0.3166-0.6157 0.293-0.2851-0.0649zm6.0867-0.6958c0.6201-1.1607 0.5855-1.1089 0.6791-1.0153 0.187 0.187-0.8159 2.0091-1.1058 2.0091-0.0574 0 0.1346-0.4472 0.4267-0.9938zm-14.5 0.8264c0-0.0899 0.6984-0.4214 0.7594-0.3604 0.0312 0.0312-0.0988 0.1372-0.2889 0.2355-0.3603 0.1863-0.4705 0.2156-0.4705 0.1249zm-2.8395-0.503c0.2811-0.2583 0.8178-0.6753 1.1926-0.9267s0.5091-0.3143 0.2985-0.1399c-1.6322 1.3523-2.3989 1.9006-1.4911 1.0666zm12.444 0.2161c0.0427-0.1562 0.2615-0.6154 0.4861-1.0205s0.5004-0.9928 0.6127-1.3061c0.2043-0.5697 0.2043-0.5697 0.144-0.0586-0.0635 0.5378-0.6845 1.9032-1.0847 2.3852-0.2358 0.284-0.2358 0.284-0.1581 0zm-13.012-0.2759c0.3174-0.3546 1.3526-1.171 1.8741-1.478 0.3407-0.2007 0.3407-0.2007 0 0.0983-0.7256 0.6368-2.1435 1.6805-1.8741 1.3797zm32.37 0.0992c0-0.0391 0.1681-0.2676 0.3737-0.5077 0.2055-0.2401 0.4919-0.6732 0.6363-0.9624 0.3357-0.6722 0.4466-0.5854 0.1395 0.1091-0.3566 0.806-1.1495 1.7449-1.1495 1.361zm5.6113-0.4129c-0.23-0.4445-0.743-1.9318-0.685-1.9889 0.042-0.0429 0.781 1.6437 0.918 2.0958 0.112 0.3717-0.016 0.3128-0.233-0.1069zm-21.626 0.0852c0-0.0974-0.0511-0.1771-0.1136-0.1771s-0.1136-0.154-0.1136-0.3422c0-0.1883-0.0493-0.4311-0.1096-0.5395-0.5506-0.991-0.6601-1.6046-0.2157-1.2093 0.5574 0.4958 1.0226 2.1546 0.6661 2.375-0.0625 0.0386-0.1136-0.0095-0.1136-0.1069zm-16.66-0.2906c1.1401-1.4489 1.4449-1.9328 1.7797-2.8271 0.4004-1.0691 0.7731-1.7796 1.263-2.4071 0.3177-0.4071 0.3177-0.4071-0.3208-0.2444-0.839 0.2136-2.2563 0.0983-1.9093-0.1554 0.2004-0.1465 0.1854-0.1586-0.1956-0.1586-0.3781 0-0.7461-0.2152-0.4042-0.2364 0.0817-0.0051 0.0011-0.0744-0.1793-0.154-0.4009-0.1771-0.2494-0.2967 0.3075-0.2428 0.5294 0.0513 1.7694-0.1869 2.6022-0.4999 0.8181-0.3074 0.9131-0.4454 0.2557-0.3713-0.6769 0.0763-0.6419-0.0729 0.1092-0.4653 0.6779-0.3542 1.2872-1.1145 1.5912-1.9853 0.2429-0.6959 0.4342-2.3514 0.3006-2.6013-0.2225-0.4163-0.4659-1.1826-0.4705-1.4818-0.0048-0.3063-0.0101-0.304-0.4414 0.187-0.8185 0.932-1.136 1.9247-1.1417 3.5701-0.0045 1.3158-0.5899-0.2725-0.6112-1.6583-0.0141-0.9231-0.1672-0.8204-0.5305 0.3558-0.3659 1.1845-0.3145 1.9489 0.1312 1.9489 0.531 0 0.2312 0.2865-0.4779 0.4567-1.067 0.2559-1.971-0.0198-2.8298-0.8633-0.2812-0.2761-0.8434-0.7736-1.2494-1.1055-1.4252-1.1649-1.9052-2.0724-2.0539-3.8829-0.0839-1.0222-0.0839-1.0222-0.0595 0.1704 0.0249 1.2147 0.2086 1.8268 0.7244 2.4135 0.2387 0.2715 0.0095 0.2511-0.3492-0.0311-1.1218-0.8823-1.2958-3.3917-0.3534-5.0954 0.2713-0.4905 0.1976-0.7858-0.2008-0.8044-0.0426-2e-3 -0.11-0.1058-0.1496-0.2308-0.0527-0.1659-0.1719-0.2271-0.4422-0.2271-0.4449 0-0.817-0.3538-1.0339-0.9831-0.1865-0.5411-0.1573-0.574 0.2461-0.2769 0.4052 0.2982 1.0003 0.1678 1.5484-0.3395 0.363-0.336 0.363-0.336-0.3184-0.2667-0.6363 0.0646-0.7138 0.0457-1.1685-0.2855-0.5836-0.4251-0.5438-0.5665 0.1377-0.4897 0.9091 0.1025 1.6162-0.3256 2.3956-1.4502 0.395-0.57 0.4825-0.5096 0.196 0.1352-0.2676 0.6023-0.754 1.1919-1.2152 1.4731-0.4605 0.2808-0.1135 0.2715 0.4423-0.0118 0.241-0.123 0.4897-0.1917 0.5526-0.1529 0.0629 0.0389 0.0903 0.0245 0.0608-0.032s0.0716-0.2306 0.2245-0.3867c0.2781-0.284 0.2781-0.284 0.2055 0.1703-0.0726 0.4544-0.0726 0.4544 0.1507 0.0568 0.3009-0.5357 0.2957-0.1728-0.0057 0.3992-0.5486 1.0411-1.4211 1.6452-2.376 1.6452-0.3571 0-0.5522 0.0436-0.5089 0.1136 0.7326 1.1855 3.2426-1.025 3.5829-3.1554 0.0664-0.4161 0.1502-0.7836 0.1861-0.8166 0.1549-0.1424-0.0583 2.0149-0.2324 2.3516-0.2784 0.5384-0.2207 0.5881 0.1672 0.1438 0.347-0.3975 0.347-0.3975 0.0821 0.1-0.1457 0.2737-0.4658 0.6698-0.7113 0.8803-0.5591 0.4794-0.3982 0.4931 0.3389 0.029 0.5618-0.3538 0.5618-0.3538 0.2778-0.0424-0.2839 0.3114-0.2839 0.3114 0.1136 0.1206 0.3975-0.1909 0.3975-0.1909 0.085 0.0938-0.3304 0.3009-0.9383 0.5152-1.5047 0.5302-0.6463 0.0172-1.3172 0.3997-0.9086 0.5181 1.2417 0.36 2.7283-0.0738 3.4335-1.0018 0.4107-0.5405 0.4297-0.5514 0.4646-0.2662 0.1019 0.8328-1.2257 1.9295-2.5114 2.0743-0.3344 0.0377-0.5429 0.1312-0.6402 0.2869-0.1235 0.1979-0.1189 0.2213 0.0324 0.1633 0.1479-0.0568 0.1585-0.0198 0.0649 0.2264-0.1875 0.4931-0.0237 0.4294 0.2452-0.0954 0.3441-0.6714 0.3969-0.3957 0.0934 0.4878-0.348 1.0128-0.4341 2.8602-0.1662 3.5618 0.2929 0.7668 0.3499 0.6978 0.3141-0.3797-0.0216-0.6501 0.0249-1.1566 0.1372-1.4945 0.1699-0.5111 0.1699-0.5111 0.1128 0.4543-0.0314 0.531-0.0093 1.1954 0.0491 1.4765 0.1062 0.5111 0.1062 0.5111 0.1186 0.0523 0.0155-0.5683 0.3215-1.7731 0.4894-1.9263 0.0885-0.0809 0.099-0.0481 0.0362 0.1136-0.0485 0.1249-0.1002 0.7638-0.1149 1.4197-0.0148 0.6559-0.0068 0.937 0.0177 0.6247 0.074-0.9422 0.1727-0.9544 0.3336-0.0411 0.3829 2.1738 1.2183 3.1823 2.8552 3.4469 0.4813 0.0778 0.4813 0.0778 0.1238-0.6861-0.5122-1.0946-0.4886-1.7624 0.109-3.0809 0.2498-0.551 0.4812-1.0785 0.5142-1.1722 0.042-0.1195 0.0621-0.1025 0.067 0.0568 0.0039 0.1249-0.1701 0.6616-0.3866 1.1925-0.2166 0.531-0.3908 1.0933-0.3872 1.2494 0.0042 0.1831 0.1002 0.0216 0.27-0.4543 0.1449-0.406 0.4987-1.2399 0.7863-1.853 0.6688-1.4259 0.9553-2.3057 1.0491-3.2209 0.1207-1.1781 0.3279-0.7036 0.3169 0.7255-0.0152 1.9841 0.1805 1.0381 0.4163-2.0121 0.0072-0.0937 0.0541-0.0426 0.1041 0.1136 0.116 0.3621 0.1223 1.6963 0.0117 2.4731-0.1039 0.73 0.0178 0.64 0.2619-0.1937 0.1142-0.3897 0.1814-1.059 0.1825-1.8173 0.0012-0.8683 0.0345-1.1532 0.1204-1.03 0.0905 0.1298 0.1053 0.0893 0.062-0.1703-0.0312-0.1874-0.0905-0.9797-0.1317-1.7605-0.0872-1.6485-0.1015-1.6904-0.462-1.3517-0.3438 0.323-0.3417 0.2557 0.0119-0.377 0.1871-0.3346 0.3036-0.7559 0.3418-1.2353 0.0579-0.7274 0.0579-0.7274-0.4501 0.3232-0.6737 1.3934-0.8053 1.1001-0.1707-0.3804 0.2385-0.5564 0.2385-0.5563-0.1714-0.1021-0.41 0.4541-0.41 0.4541-0.1785-0.024 0.2929-0.6052 0.2911-0.7369-0.0053-0.3737-0.2318 0.284-0.2318 0.284-0.1548 0.0112 0.0624-0.2207 0.0421-0.2593-0.1064-0.2023-0.2292 0.0879-0.2567 0.2282 0.2532-1.2907 0.4866-1.4495 0.6635-2.2143 0.487-2.1052-0.0732 0.0452-0.0995-0.3535-0.0745-1.1299 0.0344-1.0739 0.02-1.1843-0.1378-1.0533-0.154 0.1278-0.1648 0.1105-0.0859-0.1368 0.3755-1.1756 0.3967-1.4017 0.106-1.1286-0.2772 0.2604-0.2772 0.2604-0.2772-0.2276 0-0.4399-0.0184-0.4727-0.1867-0.333-0.1642 0.1362-0.179 0.1276-0.1221-0.0713 0.0356-0.1244 0.0986-0.3943 0.14-0.5998 0.0414-0.2054 0.2496-0.602 0.4628-0.8812 0.4795-0.6282 0.4935-0.5751-0.1726-0.654-0.751-0.089-1.4097-0.4424-1.7001-0.9122-0.3052-0.4939-0.3165-0.4698 0.232-0.4909 1.2915-0.0495 1.9156-0.5022 2.7844-2.0193 0.7342-1.2823 1.2114-1.9106 1.7168-2.2609 0.6468-0.4482 0.6638-0.3726 0.0781 0.3464-0.4439 0.545-1.5289 2.472-1.5289 2.7155 0 0.0409 0.111-0.0731 0.2466-0.2533 0.438-0.582 0.4639-0.5669 0.134 0.0777-0.458 0.8946-1.4144 1.5559-2.4332 1.6822-0.7301 0.0905-0.7301 0.0905-0.2758 0.2979 1.0413 0.4754 2.3108 0.3752 4.2024-0.3319 0.2487-0.093 0.0965 0.0545-0.7908 0.7658-1.1826 0.9481-2.2842 2.1529-1.282 1.4021 1.1543-0.8648 2.7825-1.3966 2.1296-0.6957-0.2186 0.2348-0.3208 0.3899-0.2271 0.3448 0.0937-0.0452-0.0225 0.0887-0.2582 0.2975-0.4349 0.3851-1.1049 1.3034-1.1025 1.5109 7e-4 0.0625 0.1467-0.0512 0.3243-0.2526s0.3512-0.3379 0.3858-0.3033c0.0347 0.0347 0.208-0.03 0.3852-0.1435 0.2574-0.1651 0.2184-0.0897-0.1945 0.3753-0.6437 0.7249-1.1802 1.7287-1.345 2.5162-0.1938 0.9262-0.1399 1.0478 0.1659 0.3743 0.3356-0.7392 0.4533-0.7127 0.2236 0.0504-0.2129 0.7075-0.1434 0.78 0.1411 0.147 0.2275-0.5061 0.957-1.3032 0.7623-0.8329-0.0518 0.125-0.1031 0.4061-0.1141 0.6247-0.011 0.2187-0.0569 0.5764-0.102 0.7951-0.082 0.3975-0.082 0.3975 0.2159-0.0852 0.404-0.6546 0.4306-0.6075 0.1139 0.2007-0.2763 0.705-0.2539 0.7207 0.3699 0.2595 0.3002-0.222 0.3693-0.3515 0.3703-0.6932 0.0041-1.5561 2.4044-4.2419 4.4686-5.0001 1.1522-0.4231 1.8583-0.4108 0.8241 0.0144-0.5845 0.2403-1.5948 0.8632-1.5206 0.9374 0.0284 0.0283 0.2049-0.025 0.3923-0.1185 0.1875-0.0936 0.5152-0.1973 0.7284-0.2305 0.4383-0.0683 0.5398-0.1276-0.9755 0.5691-0.4373 0.201-0.9229 0.4776-1.079 0.6147-0.284 0.2492-0.284 0.2492 0.0957 0.0648 0.6221-0.3021 0.5243-0.1246-0.292 0.53-0.423 0.3392-0.7692 0.6731-0.7692 0.7418 0 0.0688-0.1277 0.2376-0.2839 0.3751-0.284 0.25-0.284 0.25 0.1704-0.0054 0.6063-0.3408 0.7131-0.4451 0.3854-0.3765-0.2719 0.057-0.2719 0.057 0.0121-0.1065 0.7409-0.4265 1.2364-0.3623 0.5762 0.0746-0.5481 0.3628-1.9392 1.6526-1.9392 1.7981 0 0.0584 0.3195-0.0708 0.7099-0.287 0.7567-0.4191 2.6979-1.1432 2.6971-1.0061-2e-4 0.0451-0.2413 0.181-0.5357 0.3021-0.7149 0.2941-2.3765 1.4183-2.8713 1.9426-0.295 0.3126-0.3316 0.3873-0.142 0.2894 0.3628-0.1871 0.3164 0.0031-0.0961 0.3945-1.008 0.9563-2.2606 2.799-2.2606 3.3258 0 0.1194-0.0833 0.415-0.1852 0.6568-0.2088 0.4963-0.1567 3.0397 0.0669 3.2633 0.082 0.082 0.1201 0.0677 0.1243-0.0464 0.0034-0.0906 0.0176-0.5991 0.0316-1.1301 0.028-1.0586 0.1376-1.3508 0.8795-2.3458 0.3898-0.5227 1.3114-1.3403 1.0587-0.9392-0.056 0.0888-0.3426 0.5252-0.637 0.9697-0.5539 0.8367-0.9266 1.6614-1.1005 2.4352-0.1188 0.5288-0.0827 0.5591 0.1618 0.1355 0.2056-0.3561 0.2211-0.5257-0.1321 1.4482-0.1719 0.9604-0.1395 1.9321 0.0757 2.2726 0.0777 0.1229 0.1081 0.0446 0.1108-0.2849 0.0067-0.8243 0.5637-2.9381 0.7302-2.7716 0.0253 0.0253-0.0265 0.3254-0.1151 0.6669-0.1903 0.7338-0.2298 3.8075-0.0474 3.6948 0.0624-0.0386 0.1146-0.2588 0.116-0.4894 0.0151-2.5821 2.1928-6.0142 5.0518-7.9621 0.7144-0.4868 0.6206-0.3917-0.8519 0.8637-2.2064 1.8811-3.5636 3.8765-3.8413 5.6471-0.1358 0.8655-0.0211 0.7967 0.3672-0.2204 0.3307-0.8663 1.0895-2.1934 1.6029-2.8036 0.4078-0.4845 0.3506-0.3269-0.2808 0.7743-1.8906 3.2972-1.8197 6.5296 0.1856 8.4611 0.5188 0.4998 0.5188 0.4998 0.1058-0.1109-0.604-0.8927-1.0924-2.8402-1.0924-4.3555 0-0.6144 0.1786-0.3023 0.3761 0.6571 0.2652 1.2882 0.5617 2.053 1.0582 2.7294 0.2251 0.3066 0.3695 0.4552 0.3209 0.3303-1.0701-2.7489-0.9327-4.769 0.4865-7.1555 0.6016-1.0117 1.236-1.78 0.7971-0.9654-1.0912 2.0252-1.6701 5.1573-1.1254 6.0883 0.0997 0.1704 0.1131 0.0968 0.0643-0.3526-0.0753-0.6934 0.1098-0.4795 0.2457 0.2839 0.0909 0.5111 0.0909 0.5111 0.1821-0.1669 0.1951-1.45 0.9964-3.1241 2.0811-4.3479 0.7395-0.8344 0.8112-0.7424 0.177 0.2272-0.5801 0.8869-0.9616 1.7224-1.0763 2.3567-0.0659 0.3648-0.0438 0.3462 0.268-0.2271 0.6778-1.246 1.4721-1.8929 0.8732-0.7112-0.4059 0.801-0.7548 1.8915-0.7442 2.3261 0.0065 0.2693 0.0534 0.1679 0.1689-0.3655 0.3478-1.6064 1.894-3.5624 3.5803-4.5294 0.8499-0.4874 0.8553-0.4553 0.0616 0.3666-0.383 0.3967-0.8153 0.9461-0.9606 1.221-0.2643 0.4998-0.2643 0.4998 0.3197-0.0959 0.384-0.3915 0.5576-0.5122 0.5068-0.3521-0.0773 0.2436-0.0773 0.2436 0.2609 0.0028 0.186-0.1325 0.3672-0.2119 0.4026-0.1765 0.134 0.134 1.5245-0.7172 2.0964-1.2833 0.328-0.3247 0.5963-0.5631 0.5963-0.53 0 0.097-0.4665 0.7502-0.7778 1.0891-0.3379 0.3678-0.2405 0.4059 0.2128 0.0832 0.7074-0.5037 1.2571-2.042 0.839-2.3477-0.1813-0.1326-0.2269-0.1193-0.3591 0.1051-0.1515 0.2569-0.1515 0.2569-0.0835 0.0052 0.0557-0.2065 0.0106-0.2656-0.2508-0.3287-2.8232-0.6812-4.6048-4.2845-3.4094-6.8954 1.176-2.5686 9.1961-1.9037 10.008 0.8297 0.3559 1.1983 0.2575 1.7631-0.663 3.8067-0.4704 1.0445-2.6844 2.5555-3.7443 2.5555-0.1421 0-0.1799 0.1175-0.1737 0.5395 0.0118 0.7931 0.1987 1.157 0.2189 0.426 0.0174-0.6312-0.0345-0.6931 0.5425 0.647 0.1532 0.3559 0.3842 0.7393 0.5134 0.8519 0.2337 0.2037 0.2339 0.2034 0.044-0.0761-0.3543-0.5211-0.2388-0.7944 0.141-0.3336 0.3199 0.3881 0.9787 0.7925 2.0516 1.2595 0.5095 0.2217 0.5095 0.2217 0.2786-0.0413-0.6177-0.7034-0.6144-0.8527 7e-3 -0.3175 1.2701 1.0939 1.7148 1.1718 0.7792 0.1366-0.4077-0.4512-0.7035-0.8204-0.6574-0.8204 0.1178 0 0.8176 0.5263 1.3446 1.0111 0.4867 0.4479 0.4998 0.4876-0.2591-0.7839-0.1108-0.1856 0.0173-0.107 0.3698 0.2272 0.6256 0.5928 1.4328 1.7487 1.4328 2.0517 0 0.1147 0.0813 0.254 0.1806 0.3096 0.1074 0.0601 0.2185 0.35 0.2742 0.7155 0.0937 0.6145 0.0937 0.6145 0.0835-0.1792-0.0067-0.517-0.1016-1.0515-0.2724-1.5333-0.2621-0.7397-0.2621-0.7397 0.0209-0.3989 0.2965 0.357 0.5054 0.9391 0.5094 1.4197 0.0018 0.2197 0.0263 0.2461 0.1081 0.1168 0.2582-0.4083 0.29 0.4964 0.0638 1.8141-0.0531 0.3089-0.0036 0.2456 0.222-0.284 0.2903-0.6815 0.2903-0.6815 0.2289-0.1903-0.063 0.5041-0.6941 2.0321-0.7968 1.9294-0.0315-0.0315 0.0251-0.2545 0.1258-0.4955 0.1671-0.3998 0.1672-0.425 0.0015-0.2875-0.1553 0.1289-0.1829 0.1199-0.1906-0.062-0.0054-0.1278-0.0324-0.1541-0.0678-0.0659-0.0441 0.1099-0.0974 0.1147-0.2124 0.0193-0.1235-0.1025-0.1909 0.0018-0.3453 0.5348-0.1054 0.3642-0.4147 0.9754-0.6874 1.3582-0.747 1.049-0.8631 1.0897-0.546 0.1909 0.4266-1.2087 0.4016-3.0101-0.0551-3.9754-0.4465-0.9439-0.7427-1.0113-3.1451-0.7159-1.4117 0.1735-3.2751-7e-4 -5.0665-0.4738-2.9153-0.77-6.0024 4.5837-3.3247 5.7657 0.3408 0.1504 0.3408 0.1504 0.0176 0.1549-0.3246 0.0044-0.983-0.3109-0.983-0.4708 0-0.0471-0.0723-0.0578-0.1607-0.0239-0.2006 0.077-1.0887-0.7088-1.0887-0.9633 0-0.1026-0.0963-0.2468-0.214-0.3203-0.2832-0.1769-0.5785-1.0692-0.5913-1.7868-0.0102-0.5761-0.0102-0.5761-0.1255-0.1785-0.2193 0.7561 0.2233 2.9523 0.8583 4.2592 0.3556 0.7319 0.3316 0.7406-0.5026 0.1836-0.5141-0.3433-0.8151-0.4676-1.1328-0.4676-0.2998 0-0.54-0.0903-0.7821-0.294-0.5855-0.4927-0.3905-0.0988 0.3353 0.677 0.6848 0.7321 0.6848 0.7321 0.2272 0.6707-0.5232-0.0701-0.548-0.0107-0.2202 0.5271 0.181 0.2968 0.2596 0.3511 0.3342 0.2305 0.1208-0.1955 0.1372-0.1747 0.3794 0.4793 0.2653 0.7164 0.9709 1.4897 1.6826 1.8444 0.7017 0.3497 0.7899 0.3112 0.3862-0.1685-0.7539-0.8959-0.7804-1.3288-0.052-0.8467 0.2606 0.1724 0.4454 0.2438 0.4108 0.1586-0.2343-0.576-0.2255-0.5954 0.109-0.2422 0.4076 0.4302 0.9608 1.294 1.1675 1.823 0.0801 0.2051 0.1656 0.3529 0.19 0.3286 0.0667-0.0667-0.3901-1.9538-0.5871-2.4252-0.3157-0.7557-0.0631-0.5387 0.3002 0.2578 0.3803 0.8339 0.5608 1.9648 0.4727 2.9628-0.0742 0.8409 0.2953 1.4564 1.1591 1.9311 0.8477 0.4658 0.9055 0.4665 0.6601 8e-3 -0.2445-0.4571-0.4941-1.1409-0.4371-1.1979 0.0234-0.0234 0.1019 0.0685 0.1745 0.2041 0.1771 0.331 0.2623 0.2208 0.1196-0.1546-0.1691-0.4446-0.0729-0.3669 0.3375 0.2725 0.4276 0.6664 0.5397 0.6892 0.2271 0.0463-0.4335-0.8916-0.4016-1.1832 0.0489-0.4481 0.5351 0.8729 0.6822 1.0162 0.5828 0.5679-0.1415-0.6381-0.2122-1.9877-0.1042-1.9877 0.0582 0 0.2164 0.3706 0.3517 0.8235 0.1352 0.4529 0.3756 0.9768 0.5341 1.1642 0.2882 0.3407 0.2882 0.3407 0.1701 0.0097-0.1584-0.4438-0.2765-2.339-0.1713-2.7488 0.0793-0.3091 0.1117-0.2698 0.5741 0.6947 0.5916 1.2341 1.7115 2.626 2.0802 2.5855 0.6474-0.0711 2.3816-1.0452 3.3587-1.8866 2.2218-1.913 2.5106-1.9105 1.2248 0.0109-0.4367 0.6525-0.5307 0.7301-0.4129 0.3407 0.14-0.4632-0.7695 0.6725-1.2809 1.5993-0.4154 0.753-0.4808 0.8253-0.4827 0.5335-0.0025-0.4052-0.2652-0.125-0.405 0.432-0.1063 0.4237-0.3248 0.3888-0.236-0.0376 0.2439-1.1705 0.2501-1.1091-0.082-0.8046-0.1646 0.1509-0.4078 0.4986-0.5405 0.7726-0.2573 0.5315-0.4111 0.6042-0.2211 0.1045 0.181-0.4761 0.0518-0.3508-0.3348 0.325-0.4218 0.7372-0.4882 0.7706-0.3956 0.1988 0.0648-0.4002 0.0582-0.4126-0.1085-0.2055-0.2427 0.3017-0.2225 0.0741 0.0498-0.5612 0.2838-0.6621 0.2944-0.6211-0.142-0.5516-0.4689 0.0748-0.8063-0.0568-1.4968-0.5839-0.5524-0.4216-0.5524-0.4216-0.4777-0.048 0.0919 0.4593 0.34 0.744 0.8955 1.0275 0.4784 0.2442 0.5544 0.4403 0.1704 0.4393-0.4398-0.0011-1.0385-0.211-1.5785-0.5534-0.5199-0.3297-0.5199-0.3297-0.3234 0.1974 0.2358 0.6324 0.3904 1.7197 0.2447 1.7197-0.0569 0-0.1421-0.1662-0.1895-0.3692-0.0838-0.3592-0.0892-0.3523-0.1995 0.2556-0.0885 0.4874-0.1333 0.5748-0.204 0.3975-0.0704-0.1763-0.0924-0.1318-0.0986 0.1988-0.0044 0.2342-0.0622 0.4259-0.1283 0.4259-0.0662 0-0.0887-0.0511-0.0501-0.1136s0.0223-0.1136-0.0363-0.1136-0.1697 0.1527-0.247 0.3393c-0.1738 0.4194-0.3108 0.351-0.4031-0.2013-0.2303-1.3792-0.5259-1.861-1.5953-2.6009-0.3509-0.2428-0.3509-0.2428 0.0852 0.6252 0.3018 0.6007 0.4333 1.0085 0.4271 1.3244-0.0098 0.499-0.0406 0.4425-0.323-0.5941-0.1266-0.4648-0.3835-0.6402-0.4989-0.3407-0.0302 0.078-0.1161-0.0242-0.191-0.2272s-0.1782-0.3691-0.2296-0.3691-0.1303-0.1662-0.1754-0.3692c-0.0707-0.3191-0.0933-0.3383-0.1663-0.1419-0.076 0.2041-0.0932 0.1939-0.1705-0.1006-0.0859-0.3276-0.086-0.3276-0.2229-0.0719-0.1721 0.3215-0.2517 0.1554-0.3576-0.7455-0.0397-0.338-0.1443-0.7042-0.2323-0.8138-0.1437-0.1786-0.1528-0.1611-0.089 0.17 0.087 0.4514 0.0056 0.4712-0.2331 0.0568-0.1799-0.3123-0.1799-0.3123-0.115 0 0.097 0.4673-0.0071 0.3803-0.3399-0.2839-0.4305-0.8594-0.989-1.3994-0.8947-0.8652 0.0674 0.3825 0.0674 0.3825-0.1718 0.0086-0.1316-0.2056-0.3064-0.3589-0.3884-0.3407-0.0821 0.0182-0.395-0.2736-0.6953-0.6484s-0.7598-0.9115-1.021-1.1926c-0.7114-0.7656-1.0796-1.3086-1.2917-1.9051-0.191-0.5368-0.191-0.5368-0.2549 0.2582-0.0351 0.4373-0.0221 0.8517 0.0289 0.9208 0.141 0.1914-0.0173 0.8213-0.3967 1.578-0.3988 0.7954-0.5331 0.6924-0.1998-0.1531 0.1465-0.3717 0.2044-0.7048 0.1605-0.924-0.0885-0.4424-0.2027-0.4341-0.3625 0.0265-0.1319 0.3799-0.1213-0.0041 0.0399-1.4482 0.0507-0.4543 0.0507-0.4543-0.1086 0s-0.1593 0.4543-0.1769-0.4543c-0.0175-0.9086-0.0175-0.9086-0.2075-0.3772-0.1044 0.2923-0.2364 0.5734-0.2932 0.6247-0.0608 0.0548-0.0709 0.0035-0.0247-0.1245 0.0433-0.1198 0.1045-0.5287 0.1361-0.9087 0.0574-0.6908 0.0574-0.6908-0.3422 0.3823-0.2198 0.5903-0.5337 1.3473-0.6977 1.6825-0.3601 0.736-0.3134 0.8583 0.1074 0.281 0.7217-0.99 0.6513-0.9086 0.5627-0.6514-0.072 0.2085-0.0612 0.2132 0.1318 0.0568 0.2004-0.1624 0.2065-0.1465 0.13 0.3407-0.1272 0.8108-0.4711 1.3875-1.3109 2.1982-0.4301 0.4152-0.7575 0.7549-0.7276 0.7549 0.0775 0 1.3967-1.0034 1.7693-1.3457 0.7107-0.6529 0.2571 0.0688-0.5111 0.8132-0.4529 0.4388-0.6957 0.7336-0.5395 0.655 0.1561-0.0785 0.0284 0.0781-0.284 0.3481-1.3517 1.1684-1.9496 1.8128-2.6719 2.88-0.7043 1.0403-1.1724 1.5612-2.0948 2.331-0.3371 0.2814-0.3371 0.2814-0.0243-0.1162zm7.9145-8.2413c0-0.0973-0.0511-0.1454-0.1136-0.1068s-0.1136 0.1183-0.1136 0.177c0 0.0588 0.0511 0.1069 0.1136 0.1069s0.1136-0.0797 0.1136-0.1771zm13.346-10.499c0.0449-0.0726-0.2904-0.1107-0.9304-0.1056-0.6646 0.0053-0.9242 0.0408-0.7733 0.1056 0.3191 0.1372 1.6189 0.1372 1.7037 0zm1.8053-5.8118c-0.0527-0.0853-0.0234-0.1104 0.0816-0.0701 0.0901 0.0346 0.3157-0.0648 0.5014-0.2208 0.2309-0.194 0.2658-0.2572 0.1104-0.2-0.1249 0.046-0.4444 0.1326-0.7098 0.1925-0.2655 0.0599-0.4828 0.1474-0.4828 0.1943 0 0.047-0.115 0.0727-0.2555 0.0571-0.1406-0.0156-0.3195-0.0326-0.3975-0.0378-0.0781-0.0052-0.142-0.0827-0.142-0.1722s-0.1028-0.1953-0.2284-0.2352c-0.2943-0.0934-0.5912-0.6573-0.6875-1.3058-0.076-0.5111-0.076-0.5111-0.0912 0.021-0.0237 0.8333 0.3577 1.5563 0.9503 1.8014 0.3678 0.1522 1.4481 0.1326 1.351-0.0244zm0.1205-3.4935c0.4209-0.6811-3.3104-1.5107-4.4813-0.9964-0.3976 0.1746-0.3976 0.1746 0.1136 0.1861 1.2321 0.0278 2.8333 0.3578 3.1183 0.6428 0.0965 0.0965 0.1755 0.1479 0.1755 0.1142 0-0.0336 0.115-0.015 0.2555 0.0415 0.3398 0.1366 0.7377 0.1423 0.8184 0.0118zm-11.893 28.312c0.2816-0.1136 0.1359-0.2904-0.1987-0.2413-0.4384 0.0643-0.4379-0.07 9e-4 -0.2518 0.1879-0.0778 0.5398-0.3338 0.782-0.5689 0.4102-0.3981 0.5415-0.6633 0.7583-1.532 0.0892-0.3577 0.2507 0.1238 0.2695 0.804 0.0141 0.507-1.2146 1.8923-1.6464 1.8562-0.0591-5e-3 -0.0436-0.0347 0.0344-0.0662zm14.919-0.3507c-0.0061-0.2729-0.0659-0.4827-0.1375-0.4827-0.0872 0-0.1033-0.2037-0.0518-0.6531 0.0569-0.4961 0.0442-0.6121-0.0529-0.4827-0.0977 0.1303-0.1154 0.0102-0.0752-0.5111 0.0289-0.3749 0.0295-0.5665 0.0013-0.426-0.1088 0.5422-0.2835 0.2518-0.2049-0.3407 0.0983-0.7422-0.0554-0.6359-0.437 0.3021-0.2851 0.7008-0.4964 0.7024-0.3651 0.0029 0.0959-0.5115 0.0255-0.4922-0.3373 0.0925-0.2995 0.4827-0.2995 0.4827-0.2285 0.0568 0.0463-0.2774 0.0274-0.4259-0.0541-0.4259-0.1902 0 0.2055-0.6149 0.9162-1.4236 0.347-0.3949 0.9748-1.2279 1.395-1.8511 0.9857-1.4619 1.3035-1.7545 0.9271-0.8535-0.0937 0.2243-0.1704 0.4314-0.1704 0.4602 0 0.0289 0.2612-0.338 0.5804-0.8153 0.6147-0.919 0.7829-1.0418 0.5001-0.3649-0.0945 0.2262-0.1719 0.4624-0.1719 0.525 0 0.1895 0.3273 0.0014 0.4009-0.2305 0.0378-0.1191 0.1182-0.2166 0.1787-0.2166 0.066 0 0.0601 0.0931-0.0149 0.2331-0.5464 1.021 0.2381 0.4435 1.7014-1.2524 0.82-0.9504 0.8447-0.7253 0.0619 0.5656-0.3496 0.5765-0.6155 1.0683-0.591 1.0928 0.148 0.148 2.9563-2.684 3.5623-3.5922 0.5652-0.847 0.5551-0.8773-0.0852-0.2558-1.0121 0.9823-1.4395 1.1843-1.1468 0.5419 0.1288-0.2827 0.1288-0.2827-0.4643-0.048-0.9658 0.3823-1.0762 0.379-0.5363-0.0162 0.2812-0.2058 0.7808-0.5726 1.1105-0.8151 3.3165-2.4402 3.7865-8.1377 0.9915-12.028-0.5268-0.7332-0.3376-0.7086 0.2938 0.0382 0.9996 1.1823 1.8512 2.6618 2.0942 3.6381 0.119 0.4806 0.28 0.2526 0.284-0.4035 3e-3 -0.4861 0.025-0.5516 0.129-0.3733 0.08 0.138 0.102 0.5693 0.061 1.1925-0.036 0.5371-0.04 0.9154-8e-3 0.8408 0.031-0.0746 0.124-0.1094 0.208-0.0774 0.195 0.0749 0.455-1.3779 0.343-1.9134-0.044-0.2048-0.302-1.0368-0.574-1.8489-0.703-2.0944-0.887-3.411-0.223-1.5901 0.409 1.1216 0.423 1.0973 0.347-0.5963-0.067-1.5075 0.075-1.6478 0.237-0.2348 0.154 1.3316 0.412-0.1001 0.331-1.8355-0.06-1.2942 0.019-1.6652 0.207-0.9679 0.033 0.1249 0.051-0.0412 0.039-0.3692-0.03-0.8238 0.071-0.7458 0.294 0.2272 0.188 0.8235 0.188 0.8235 0.128-0.5756-0.032-0.7695-0.089-1.485-0.126-1.5901-0.047-0.1336-0.03-0.1569 0.057-0.0775 0.068 0.0625 0.187 0.3692 0.266 0.6815 0.212 0.8451 0.367 0.9145 0.28 0.1251-0.077-0.6868-0.555-2.0207-1.033-2.8794-0.148-0.2655-0.234-0.4823-0.192-0.4817 0.124 0.0016 0.886 1.2477 1.198 1.9582 0.347 0.7914 0.415 0.8208 0.284 0.1239-0.243-1.301-0.73-1.9954-2.361-3.3672-1.3428-1.1288-1.0617-1.111 1.003 0.0635 0.338 0.1923 0.578 0.29 0.533 0.2172-0.181-0.2919 0.784 0.2818 1.239 0.7375 0.134 0.1339 0.213 0.1512 0.27 0.0591 0.044-0.0714 0.22 0.3164 0.391 0.8619s0.667 1.7058 1.102 2.5786c0.435 0.8727 0.791 1.6552 0.791 1.7388 0 0.5738 0.222-0.1589 0.288-0.9501 0.12-1.4421 0.112-1.4998-0.279-2.0149-0.402-0.5281-0.855-1.4269-0.765-1.5168 0.387-0.3866 1.348 1.9975 1.279 3.1698-0.104 1.7483-0.297 2.5736-0.467 1.9986-0.092-0.3108-1.431-2.3909-1.497-2.3251-0.055 0.0549 0.386 1.3633 0.617 1.8339 0.125 0.2533 0.13 0.3038 0.017 0.1966-0.083-0.0792-0.317-0.5392-0.52-1.0222s-0.371-0.7876-0.373-0.6769 0.15 0.5404 0.338 0.955c0.188 0.4145 0.321 0.7741 0.296 0.7991-0.074 0.0741-0.505-0.5846-0.808-1.2354-0.458-0.9845-0.325-0.4454 0.247 1.0024 0.475 1.2009 0.537 1.4624 0.582 2.4516 0.056 1.2513-0.087 1.4568-0.299 0.4305-0.15-0.7277-0.344-1.0221-0.279-0.4245 0.023 0.2154-0.144-0.0917-0.41-0.7548-0.247-0.6148-0.485-1.1516-0.53-1.1926-0.152-0.141 0.072 1.1153 0.405 2.274 0.447 1.5525-0.1 1.2202-0.633-0.3847-0.102-0.3074-0.207-0.5376-0.233-0.5116-0.09 0.0908 0.296 1.6707 0.58 2.3689 0.341 0.8405 0.358 1.0445 0.055 0.681-0.249-0.2986-0.289-0.2429-0.097 0.1336 0.257 0.5025-0.211-0.0666-0.631-0.7674-0.49-0.8179-0.498-0.7498-0.073 0.6058 0.331 1.0556 0.331 1.0556 0.064 0.8049-0.267-0.2506-0.267-0.2506-0.303 1.0119-0.039 1.393-4e-3 1.4896 0.283 0.7793 0.149-0.367 0.181-0.401 0.133-0.1419-0.068 0.3671-0.826 2.4252-0.963 2.6123-0.195 0.2666-0.357 0.9791-0.252 1.1118 0.059 0.0757 0.142 0.4363 0.183 0.8015 0.114 1.0218 0.611 2.3924 1.044 2.883 0.379 0.4283 0.379 0.4283 0.27 0.0316-0.06-0.2183-0.103-0.6272-0.096-0.9087 0.012-0.5118 0.012-0.5118 0.107-0.0298 0.183 0.9261 0.278 0.8014 0.292-0.3833 0.011-0.8777 0.057-1.2244 0.177-1.3252 0.089-0.075 0.279-0.5112 0.421-0.9693 0.352-1.1318 0.413-0.9628 0.121 0.3349-0.359 1.5935-0.244 3.8227 0.245 4.7825 0.127 0.2481 0.203 0.4788 0.169 0.5127-0.08 0.0801 0.486 0.7946 1.394 1.7597 0.724 0.769 0.724 0.769 0.189 0.769-0.534 0-0.534 0-0.297 0.3825 0.32 0.5181 0.297 0.605-0.058 0.2201-0.188-0.2039-0.271-0.2471-0.231-0.1199 0.114 0.3555-0.11 0.2103-0.49-0.3193-0.204-0.2849-0.396-0.4942-0.425-0.465-0.063 0.0632 0.431 0.8703 0.898 1.4657 0.367 0.4681 0.31 0.5672-0.104 0.179-0.338-0.3181-0.329-0.1563 0.024 0.4173 0.376 0.6101 0.354 0.7368-0.059 0.3407-0.188-0.1795-0.341-0.2627-0.341-0.1849 0 0.0779-0.051 0.11-0.114 0.0714-0.409-0.2529 1.047 2.1357 1.497 2.4565 0.471 0.335 0.321 0.3882-0.265 0.0941-0.493-0.2479-0.493-0.2479-0.114 0.1497 0.252 0.265 0.33 0.4139 0.232 0.4466-0.082 0.0271 0.066 0.169 0.33 0.3176 0.552 0.3102 0.607 0.4539 0.172 0.4539-0.306 0-0.306 0 0.057 0.3746 0.2 0.206 0.363 0.4174 0.363 0.4698 0 0.0523-0.243-0.1485-0.54-0.4464-0.296-0.2979-0.868-0.7521-1.271-1.0093-0.891-0.5692-1.353-1.2125-1.769-2.4604-0.375-1.1279-0.475-1.1324-0.156-0.0069 0.284 1.0054 0.221 1.1442-0.152 0.3316-0.594-1.2935-0.953-1.755-1.038-1.3322-0.07 0.3512-0.083 0.3595-0.234 0.1526-0.235-0.3219-0.315-0.1463-0.189 0.416 0.113 0.5018 0.056 0.814-0.064 0.3538-0.164-0.6288-0.387-0.2591-0.311 0.5161 0.081 0.8145-0.023 0.9083-0.188 0.1713-0.141-0.6262-0.589-1.6016-0.496-1.0796 0.066 0.3695 0.066 0.3695-0.275 0.0284-0.481-0.4805-0.624-0.4459-0.527 0.1276 0.093 0.5507-0.086 0.5234-0.3364-0.0514-0.1449-0.3326-0.1521-0.2867-0.0921 0.5945 0.0664 0.9762-0.0712 1.2075-0.261 0.4387-0.0874-0.3539-0.0948-0.3419-0.1567 0.2524-0.0649 0.6239-0.0649 0.6239-0.357-0.214-0.3174-0.9102-0.6551-0.7118-0.685 0.4024-0.0118 0.4371-0.0118 0.4371-0.1224-0.0172-0.0608-0.2499-0.1388-0.531-0.1733-0.6247s-0.0549-0.4004-0.0454-0.6815c0.0234-0.69-0.224-0.396-0.4504 0.5352-0.1598 0.6574-0.1598 0.6574-0.2178-0.0809-0.0731-0.9307-0.22-0.7349-0.6386 0.8519-0.0845 0.3203-0.0939 0.3068-0.1575-0.2272-0.0676-0.5679-0.0676-0.5679-0.3138-0.0284-0.2971 0.651-0.3359 0.6669-0.2765 0.1136 0.063-0.5853-0.289-0.2649-0.5653 0.5146-0.1899 0.536-0.1899 0.536-0.1987 0.1455-0.0099-0.4362-0.233-0.3013-0.552 0.3337-0.1427 0.284-0.1427 0.284-0.1014-0.0183 0.068-0.4974-0.3531-0.1382-0.554 0.4727-0.1681 0.5111-0.1681 0.5111-0.1105-0.1704 0.0593-0.701-0.1767-0.6822-0.3551 0.0284-0.0895 0.3566-0.2659 0.3196-0.2704-0.0568-0.0041-0.3481-0.3602 0.381-0.5015 1.0269-0.1086 0.4966-0.3153 0.2387-0.2406-0.3003 0.0442-0.319 0.0331-0.3977-0.0344-0.2439-0.0548 0.1249-0.1365 0.4954-0.1815 0.8233s-0.135 0.6291-0.2001 0.6693c-0.0795 0.0491-0.0937-0.109-0.0433-0.4826 0.0997-0.7398-0.0817-0.4206-0.2774 0.4881-0.0833 0.3867-0.1879 0.6805-0.2324 0.653-0.0446-0.0276-0.0543-0.1523-0.0217-0.2771 0.1232-0.4709-0.1621-0.204-0.3338 0.3124-0.1795 0.5395-0.1795 0.5395-0.1903 0.0568zm11.247-12.712c-0.134-0.2302-0.166-0.1565-0.056 0.1291 0.038 0.1015 0.094 0.1606 0.124 0.1314 0.029-0.0293-2e-3 -0.1465-0.068-0.2605zm-0.415-2.1665c-0.042-0.5466-0.097-1.0151-0.122-1.0411-0.071-0.0747-0.05 1.1378 0.028 1.609 0.124 0.7516 0.173 0.456 0.094-0.5679zm-32.735 14.64c0.0143-0.1898 0.2318-0.3011 1.2042-0.6162 1.298-0.4207 1.278-0.2156-0.0415 0.4261-0.8687 0.4225-1.1841 0.474-1.1627 0.1901zm37.636-0.746c-0.567-0.6915-0.515-0.7836 0.1-0.1796 0.281 0.2759 0.511 0.5421 0.511 0.5915 0 0.21-0.226 0.0573-0.611-0.4119zm-37.716-0.2755c0.0593-0.0527 0.4001-0.2113 0.7573-0.3524 0.8128-0.3211 1.3605-0.9005 2.0185-2.1357 0.6373-1.1959 0.7047-1.1249 0.151 0.1592-0.5493 1.2739-1.2108 1.9855-2.0873 2.2459-0.6686 0.1986-1.0072 0.232-0.8395 0.083zm3.856-0.1935c0.1874-0.1613 0.5904-0.5032 0.8954-0.7596 0.7121-0.5985 1.0485-1.3337 1.1573-2.5287 0.0821-0.9024 0.0837-0.9059 0.2273-0.5111 0.557 1.5306-0.6603 3.6771-2.28 4.0207-0.3407 0.0722-0.3407 0.0722 0-0.2213zm0.3161-1.7577c0.418-0.4619 0.7278-0.9385 0.8773-1.3496 0.3925-1.0794 0.437-1.1478 0.4458-0.6841 0.0181 0.9527-0.9325 2.4531-1.6907 2.6686-0.2284 0.0649-0.1621-0.0495 0.3676-0.6349zm-2.5901 0.2866c0.1038-0.3244 0.84-1.6248 0.9629-1.7007 0.1841-0.1137-0.465 1.2631-0.7545 1.6004-0.2107 0.2455-0.2628 0.2706-0.2084 0.1003zm-0.7229-0.9087c0.3798-0.5309 0.7125-0.9654 0.7392-0.9654 0.0977 0-0.3439 0.7522-0.7831 1.3339-0.7392 0.9791-0.7031 0.6759 0.0439-0.3685zm6.9862-1.2538c-0.1096-0.2856-0.0773-0.3593 0.0566-0.129 0.0663 0.114 0.0966 0.2312 0.0674 0.2604-0.0293 0.0293-0.0851-0.0299-0.124-0.1314zm29.574-0.1099c0-0.0629 0.182-0.574 0.406-1.1358 0.305-0.7683 0.44-1.3312 0.544-2.2708 0.13-1.1773 0.293-1.3486 0.297-0.3124 1e-3 0.203 0.046 0.3692 0.101 0.3692 0.157 0 0.368-1.2896 0.3-1.8334-0.045-0.3598-0.033-0.433 0.045-0.2679 0.244 0.5147 0.14 2.0007-0.203 2.8963-0.179 0.4685-0.363 0.9541-0.41 1.079-0.058 0.1584 6e-3 0.124 0.214-0.1136 0.379-0.4324 1.203-2.1172 1.286-2.6275 0.08-0.4949 0.235-0.6054 0.169-0.1208-0.084 0.6149 0.153 0.2114 0.486-0.8295 0.249-0.7768 0.299-1.1061 0.253-1.6857-0.079-1.0027 0.118-0.7282 0.277 0.3864 0.107 0.7516 0.099 1.0154-0.048 1.5833-0.209 0.8083-0.171 0.9296 0.102 0.3246 0.326-0.7225 0.294-2.7973-0.052-3.3912-0.265-0.4543-0.265-0.4543 0.309 0.1135 0.315 0.3124 0.651 0.7596 0.746 0.9939 0.205 0.5033 0.293 0.548 0.224 0.1135-0.172-1.0885-0.173-1.1163-0.034-0.888 0.073 0.1206 0.17 0.504 0.215 0.8518 0.072 0.5617 0.083 0.5053 0.096-0.5033 0.013-1.0444-0.013-1.1941-0.329-1.8618-0.189-0.3993-0.321-0.7481-0.294-0.7751 0.257-0.2573 0.921 1.799 0.915 2.8334-7e-3 1.1128-7e-3 1.1128 0.227 0.7428 0.32-0.5064 0.344-2.4858 0.035-2.9564-0.23-0.3515-0.253-0.4719-0.067-0.3571 0.143 0.0882 0.14 0.0837-0.381-0.743-0.309-0.4903-0.476-1.0831-0.193-0.6876 0.095 0.133 0.106 0.1081 0.052-0.1136-0.207-0.8481-0.177-0.9487 0.104-0.3515 0.356 0.7545 0.433 0.7197 0.22-0.0993-0.2-0.7736-0.213-1.0476-0.036-0.7986 0.094 0.1332 0.109 0.1022 0.07-0.1419-0.071-0.4452 0.09-0.3861 0.309 0.1135 0.186 0.426 0.186 0.426 0.128-0.0852-0.059-0.5111-0.059-0.5111 0.395 0.3692 0.554 1.0763 0.591 1.0897 0.32 0.1136-0.118-0.4217-0.235-1.1756-0.262-1.6753-0.026-0.4998-0.102-1.1852-0.169-1.5234-0.27-1.3642 0.096-0.3774 0.438 1.1826 0.165 0.7491 0.135 0.1103-0.054-1.162-0.212-1.4251-0.151-1.6326 0.12-0.4136 0.159 0.7161 0.217 0.84 0.312 0.6698 0.2-0.3581 0.012-2.0059-0.371-3.2478-0.195-0.6321-0.333-1.171-0.306-1.1977 0.069-0.0692 0.606 1.1709 0.761 1.7566 0.182 0.6889 0.246 0.5341 0.113-0.274-0.148-0.9091-0.133-1.0805 0.063-0.6745 0.09 0.1874 0.143 0.2385 0.117 0.1136s-0.081-0.406-0.123-0.6247c-0.069-0.3596-0.499-1.2329-0.937-1.9044-0.156-0.2384-0.153-0.2519 0.044-0.1823 0.875 0.3084 1.542 1.6613 1.618 3.2793 0.041 0.8854 0.072 1.0481 0.14 0.7382 0.192-0.8756-0.252-2.819-0.867-3.7974-0.291-0.4618-0.291-0.4618 0.11-0.0191 0.483 0.5326 0.839 1.434 0.94 2.3808 0.09 0.8303 0.222 0.5504 0.262-0.5518 0.025-0.6815 0.025-0.6815 0.133-0.0568 0.205 1.1831-0.201 2.8029-0.886 3.5296-0.229 0.243-0.323 0.5758-0.555 1.9658-0.153 0.9203-0.303 1.7134-0.334 1.7625-0.227 0.3674 0.298 1.1267 0.874 1.2635 0.363 0.0861 0.364 0.0876 0.05 0.0991-0.336 0.0122-0.324 0.2383 0.013 0.2394 0.666 0.0022 1.101 0.2466 0.83 0.4661-0.622 0.5032-1.987 0.2222-2.698-0.5554-0.185-0.2032-0.241-0.2312-0.163-0.0817 0.305 0.5854 1 1.1164 1.712 1.3081 0.849 0.2287 0.881 0.2477 0.568 0.3431-0.156 0.0477-0.463 0.0971-0.682 0.1099-0.397 0.0232-0.397 0.0232 0.057 0.1688 0.842 0.2696 0.12 0.3717-0.795 0.1124-0.209-0.0593-0.228-0.0072-0.24 0.6684-0.019 1.0302-0.998 2.7669-1.414 2.5094-0.059-0.036-0.106 0.0555-0.106 0.2034s-0.079 0.3681-0.176 0.4894c-0.166 0.2078-0.172 0.199-0.104-0.1532 0.04-0.2056 0.033-0.64-0.015-0.9655-0.089-0.5917-0.089-0.5917-0.18 0.0857-0.248 1.8419-1.195 3.1254-3.387 4.591-0.219 0.1462-0.589 0.4773-0.823 0.7358-0.234 0.2584-0.426 0.4184-0.426 0.3555zm-22.02-0.3992c-0.6859-1.128-0.4324-3.4824 0.4599-4.2701 0.2195-0.1938 0.2149-0.166-0.0492 0.2973-0.5642 0.9897-0.6309 1.9863-0.2382 3.562 0.1955 0.7844 0.138 0.9213-0.1725 0.4108zm18.158 0.0592c0-0.0937 0.02-0.1704 0.045-0.1704 0.024 0 0.074 0.0767 0.11 0.1704s0.016 0.1704-0.045 0.1704c-0.06 0-0.11-0.0767-0.11-0.1704zm-30.335-0.3058c0.1846-0.4642 0.8004-1.6818 0.8504-1.6818 0.1026 0-0.179 0.7999-0.4561 1.2957-0.3195 0.5716-0.563 0.81-0.3943 0.3861zm13.158-0.1336c-0.0951-0.5354 0.1622-2.0926 0.4907-2.9707 0.361-0.9646 0.3804-0.6694 0.0349 0.5292-0.1686 0.585-0.3384 1.4726-0.3771 1.9724-0.0617 0.7943-0.0803 0.8532-0.1485 0.4691zm-5.5811-0.2579c-0.0397-0.2898-0.0722-0.7628-0.0722-1.051 0-0.5348-0.3188-1.8182-0.5666-2.2813-0.0757-0.1414-0.087-0.2257-0.0251-0.1875 0.5115 0.3161 1.0836 2.2257 0.9827 3.28-0.0853 0.8916-0.216 0.9899-0.3188 0.2398zm1.0424-0.2274c0.3028-0.5944 0.5891-1.5901 0.5891-2.049 0-0.2073 0.0579-0.3769 0.1288-0.3769 0.262 0 0.0454 1.5044-0.3112 2.1619-0.387 0.7135-0.7584 0.9546-0.4067 0.264zm7.3376 0.0882c0.0438-0.0709 0.1545-0.1289 0.2458-0.1289 0.8927 0 2.2792-1.1731 2.8738-2.4314 0.4549-0.9627 0.5701-0.8994 0.2544 0.1398-0.4078 1.3426-1.4861 2.2608-2.8979 2.4679-0.4028 0.0591-0.5338 0.046-0.4761-0.0474zm-7.8009-0.8104c-0.0385-0.0937-0.1298-0.477-0.203-0.8518-0.0731-0.3749-0.2245-0.9243-0.3365-1.221-0.2333-0.6182-0.0979-0.6135 0.2171 0.0076 0.267 0.5265 0.5047 1.5785 0.441 1.9516-0.0344 0.2013-0.0689 0.2344-0.1186 0.1136zm8.6279-0.3815c0.5137-0.2475 1.073-0.6424 1.5049-1.0624 0.716-0.6963 0.8331-0.7319 0.4762-0.1451-0.4534 0.7455-1.4711 1.4236-2.304 1.5352-0.4863 0.0651-0.4809 0.0596 0.3229-0.3277zm-8.3706-0.1037c0-0.2043-0.1046-0.7282-0.2325-1.1642-0.4027-1.3725-0.3867-1.2811-0.1744-0.9954 0.4146 0.5578 0.8318 2.5313 0.5351 2.5313-0.0705 0-0.1282-0.1673-0.1282-0.3717zm1.146-0.5473c-0.0056-0.4118-0.0844-0.9953-0.1752-1.2968-0.1463-0.4863-0.1458-0.5289 0.0048-0.3783 0.2489 0.2488 0.4366 1.5366 0.2954 2.0261-0.107 0.3707-0.1154 0.3471-0.125-0.351zm7.5971-0.0999c0.1321-0.1855 0.2913-0.3688 0.3537-0.4074s0.3156-0.3258 0.5626-0.6383 0.4491-0.5183 0.4491-0.4574c0 0.1872-0.9129 1.4899-1.1706 1.6703-0.3804 0.2665-0.4568 0.2009-0.1948-0.1672zm-1.6096-0.0886c0.3933-0.5568 1.0793-1.9986 1.2833-2.6975 0.1434-0.4909 0.2013-0.5911 0.2071-0.3582 0.0186 0.7424-0.6016 2.3138-1.1883 3.0111-0.3696 0.4394-0.6056 0.4742-0.3021 0.0446zm6.8368-1.4023c0-0.0759 0.1405-0.3216 0.3123-0.546 0.3309-0.4322 1.0616-1.542 1.2038-1.8282 0.0465-0.0937-0.0073-0.0443-0.1195 0.1099-0.5776 0.7934-0.7251 0.8445-0.3301 0.1145 1.8871-3.4878 0.5406-8.4505-2.7553-10.155-0.2072-0.1071-0.3513-0.2201-0.3204-0.2511 0.2469-0.2469 1.9173 1.148 2.799 2.3374 1.6681 2.2503 2.1008 4.667 1.2059 6.7369-0.5067 1.1719-0.3445 1.0073 0.3078-0.3124 2.0381-4.1231-0.4059-8.7578-5.3701-10.184-0.7332-0.2107-0.7343-0.2117-0.1704-0.1436 5.0553 0.6102 7.9725 6.0146 5.7892 10.725-0.2172 0.4685-0.3308 0.7747-0.2526 0.6804 0.7166-0.8635 1.5899-2.1569 1.9933-2.952 0.4881-0.9621 0.5327-0.8296 0.1086 0.3228-0.5897 1.6025-1.7851 3.2115-3.5722 4.8081-0.7196 0.6429-0.8293 0.7139-0.8293 0.5371zm11.812-0.539c-0.473-0.4735-0.625-1.1473-0.479-2.1192 0.155-1.023 0.805-3.9852 0.944-4.3008 0.16-0.3633 0.015 0.76-0.194 1.5019-0.275 0.9775-0.116 0.7859 0.34-0.4099 0.63-1.6516 0.7-1.7581 0.802-1.2189 0.081 0.4319 0.081 0.4319 0.31 0.1014 0.566-0.8173 0.044 0.4105-0.753 1.7707-1.399 2.3883-1.562 3.5325-0.675 4.742 0.262 0.3576 0.091 0.3187-0.295-0.0672zm-0.614-0.0801c-0.865-0.8655-0.934-2.6241-0.179-4.582 0.478-1.2404 0.53-1.1227 0.096 0.2195-0.454 1.4065-0.437 2.7297 0.051 3.7888 0.327 0.7111 0.337 0.8782 0.032 0.5737zm-18.123 0.0482c-0.0022-0.0389 0.0973-0.2999 0.2212-0.58 0.4343-0.9819 0.4955-2.2751 0.1762-3.7221-0.0345-0.1562 0.0488-0.054 0.185 0.2272 0.3376 0.6968 0.4198 2.1472 0.1649 2.9113-0.1577 0.473-0.7352 1.3722-0.7473 1.1636zm5.9021-0.3001c0-0.0522 0.0639-0.1598 0.142-0.2393 0.078-0.0794 0.0908-0.1347 0.0283-0.1228-0.3662 0.0695-0.3881-0.033-0.0909-0.4259 0.3181-0.4207 0.3181-0.4207-0.193-0.074-0.5355 0.3631-1.1358 0.5721-1.1358 0.3953 0-0.057 0.0687-0.13 0.1526-0.1622s0.3267-0.2787 0.5395-0.5478c0.3869-0.4892 0.3869-0.4892-0.1606-0.113-0.6846 0.4705-0.7489 0.4125-0.31-0.2797 0.1907-0.3007 0.5841-1.1536 0.8742-1.8955 0.3533-0.9034 0.559-1.2991 0.6228-1.1985 0.1529 0.2411 0.1132-0.7984-0.0572-1.4967-0.2488-1.0199-1.2308-2.4437-2.2191-3.2175-0.2131-0.1669-0.331-0.3034-0.262-0.3034 0.2634 0 1.5201 1.3059 1.8977 1.9721 0.2173 0.3833 0.3959 0.6566 0.3969 0.6073 0.0033-0.1734-0.444-0.9607-0.843-1.4832-0.5463-0.7158-0.3286-0.6689 0.3506 0.0755 1.0763 1.1795 1.6299 2.6785 1.6299 4.4133 0 0.9182 0.0159 0.9866 0.2203 0.9472 0.157-0.0302 0.25 0.045 0.3237 0.2621 0.1034 0.3045 0.1034 0.3045 0.1862-0.0647 0.0456-0.203 0.123-0.3691 0.1721-0.3691s-0.057 0.4472-0.2357 0.9938c-0.4209 1.2876-0.4343 1.3208-0.5031 1.252-0.032-0.032 0.0458-0.3224 0.1731-0.6451 0.1272-0.3228 0.2286-0.6489 0.2254-0.7247-0.0033-0.0758-0.1049 0.1178-0.2257 0.4301-0.3306 0.8544-1.6992 2.4769-1.6992 2.0144zm-13.056-0.3011c-0.6195-1.1576-0.0551-3.8299 1.0815-5.1206 0.2512-0.2852 0.2735-0.2945 0.1367-0.0568-1.3281 2.3077-1.5967 3.4165-1.1707 4.8321 0.1874 0.6227 0.1697 0.7512-0.0475 0.3453zm5.6842-0.6626c0.0514-0.2655 0.0956-0.7255 0.0983-1.0222 0.0028-0.2968 0.0561-0.5396 0.1186-0.5396 0.153 0 0.1449 1.2392-0.0111 1.6868-0.1811 0.5195-0.3148 0.4383-0.2058-0.125zm-4.996-1.537c-0.0169-0.5338 0.3851-1.6619 0.9096-2.5519 0.6406-1.0874 0.6579-0.9498 0.0319 0.2551-0.2919 0.5619-0.6205 1.3925-0.7303 1.8456-0.1469 0.607-0.2025 0.7258-0.2112 0.4512zm23.797-1.6149c0.093-0.529 0.381-1.3928 0.509-1.5285 0.112-0.1175-0.123 0.7354-0.405 1.4717-0.174 0.4544-0.174 0.4544-0.104 0.0568zm3.452-0.3464c3e-3 -0.3469 0.333-1.3887 0.497-1.5706 0.696-0.7686 1.014-2.3279 0.853-4.1787-0.118-1.3642-0.073-1.8259 0.086-0.8715 0.115 0.6946 0.123 2.9204 0.012 3.4462-0.076 0.3567-0.056 0.3392 0.196-0.1703 0.154-0.3124 0.336-0.8363 0.404-1.1642 0.069-0.328 0.153-0.5963 0.188-0.5963 0.156 0-0.121 1.2599-0.42 1.9025-0.44 0.948-0.33 0.9076 0.155-0.0568 0.586-1.1666 0.708-1.8705 0.526-3.0394-0.165-1.061-0.097-1.3392 0.17-0.6994 0.766 1.8328 0.414 3.349-1.147 4.9382-0.655 0.6669-1.007 1.1264-1.14 1.4872-0.212 0.5759-0.382 0.8331-0.38 0.5731zm-45.547-1.7481c0-0.0276 0.3154-0.2183 0.701-0.4238 1.2845-0.6846 2.0051-1.9764 1.8496-3.3156-0.0798-0.6877-0.0798-0.6877-0.3271-0.2029-0.2474 0.4848-0.2474 0.4848-0.2436-1.0267 0.0044-1.725-0.4185-4.059-0.8754-4.8321-0.6232-1.0544 0.5922-5.0121 1.3881-4.5202 0.0465 0.0288 0.2034-0.2012 0.3485-0.5111 0.3249-0.6938 0.3822-0.6632 0.2153 0.1147-0.0921 0.4299-0.0935 0.62-0.0049 0.6748 0.1899 0.1174-0.0379 1.291-0.4962 2.557-0.8144 2.2499-0.6145 3.4284 1.0562 6.228 1.0135 1.6983 1.1669 2.1717 0.4243 1.3099-0.4206-0.4882-0.4206-0.4882-0.3258 0.0797 0.1756 1.0521 0.0937 2.3304-0.1874 2.9262-0.2493 0.5282-0.5915 0.9258-0.4059 0.4715 0.1642-0.4018 0.331-1.8225 0.2398-2.0432-0.0698-0.1691-0.1199-0.0765-0.2213 0.4092-0.152 0.7279-0.6188 1.5807-1.0514 1.921-0.3778 0.2972-0.4524 0.2316-0.2342-0.2059 0.1698-0.3404 0.1698-0.3404-0.5654 0.0497-0.6302 0.3343-1.2844 0.5075-1.2844 0.34zm1.521-11.989c0.0593-0.2987 0.0494-0.3505-0.0399-0.2084-0.1716 0.2732-0.3097 1.4298-0.2418 2.0257 0.0499 0.4385 0.0685 0.374 0.1305-0.4543 0.0398-0.531 0.1078-1.1444 0.1512-1.363zm0.4017-1.0791c0-0.0624-0.073 0.0142-0.1623 0.1704s-0.1623 0.3351-0.1623 0.3975c0 0.0625 0.073-0.0142 0.1623-0.1703 0.0893-0.1562 0.1623-0.3351 0.1623-0.3976zm38.969 12.147c7e-3 -0.5425 0.291-1.3479 1.036-2.94 1.08-2.3065 1.233-2.7728 1.233-3.7665 0-0.8991 0.173-1.2214 0.286-0.5316 0.148 0.9053 0.278 0.8906 0.223-0.0253-0.029-0.4997-0.063-1.0619-0.074-1.2494-0.022-0.3779 0.52-2.8703 0.65-2.9905 0.079-0.0725 3e-3 1.0035-0.116 1.6588-0.105 0.5717 0.282-0.7048 0.422-1.3942 0.076-0.3748 0.136-1.1925 0.133-1.8172-6e-3 -1.1358-6e-3 -1.1358 0.21-0.4544 0.39 1.2274 0.13 3.1551-0.651 4.8418-0.242 0.5224-0.267 0.6979-0.21 1.5093 0.091 1.2968-0.123 2.0152-1.35 4.5227-1.03 2.1069-1.241 2.4424-1.011 1.6088 0.188-0.6797 0.075-0.5694-0.272 0.2655-0.359 0.8629-0.513 1.0934-0.509 0.7624zm4.051-0.5054c0.039-0.3436 0.103-1.2636 0.142-2.0445 0.058-1.1588 0.089-1.3391 0.168-0.9811 0.125 0.5695 0.01 2.2291-0.209 3.0256-0.173 0.6247-0.173 0.6246-0.101 0zm0.563-0.5869c0.309-1.1319 0.381-1.3023 0.381-0.9036 0 0.432-0.359 1.7053-0.519 1.8375-0.103 0.0861-0.06-0.2109 0.138-0.9339zm-9.8297-0.5154c-0.0408-2.9253-2.3697-5.2789-5.8608-5.923-0.4302-0.0794-0.4828-0.1079-0.2169-0.1175 3.2007-0.1159 6.8482 3.6539 6.1967 6.4045-0.1013 0.4275-0.1083 0.4061-0.119-0.364zm-4.1961 0.2531c-0.2964-0.4326-1.4365-1.5449-1.7773-1.7341-0.1244-0.0691-0.1956-0.1562-0.1582-0.1937 0.1408-0.1408 1.4241 0.9427 1.8515 1.5632 0.2446 0.3552 0.4223 0.6683 0.3949 0.6957s-0.1673-0.1216-0.3109-0.3311zm-7.6865-1.3055c0.0374-0.0606-0.0106-0.2625-0.1069-0.4487-0.0963-0.1861-0.1733-0.4559-0.1713-0.5996 0.0022-0.1539 0.094-0.0045 0.2235 0.3635 0.2578 0.733 0.2661 0.795 0.1068 0.795-0.0661 0-0.0896-0.0496-0.0521-0.1102zm-4.2621-0.77c0.211-0.2655 0.4041-0.4827 0.4291-0.4827 0.0803 0-0.4065 0.6391-0.6132 0.8051-0.1097 0.0882-0.0269-0.0569 0.1841-0.3224zm3.6369 0.0208c-0.0735-0.2228-0.103-0.4358-0.0656-0.4733 0.0375-0.0374 0.0685 0.0043 0.0688 0.0928 4e-4 0.0885 0.0741 0.3015 0.1637 0.4733s0.1188 0.3123 0.0649 0.3123-0.1582-0.1823-0.2318-0.4051zm-27.521-0.1325c-0.0367-0.0593 0.1146-0.2821 0.3361-0.495 0.4425-0.4252 0.6048-0.6951 0.9252-1.5384 0.2137-0.5624 0.2137-0.5624-0.7603-0.5685-1.1071-0.0069-2.3589-0.1875-2.5376-0.3662-0.1328-0.1328 0.3217-0.3559 0.7249-0.3559 0.3137 0 0.528-0.5618 0.8663-2.2716 0.3144-1.5888 0.624-2.3221 1.289-3.0528 0.5809-0.6383 0.681-0.5491 0.1557 0.1388-0.4635 0.607-0.9593 1.6152-0.9584 1.9485 5e-4 0.1882 0.0195 0.198 0.1107 0.0568 0.4016-0.6213-0.045 1.9998-0.4609 2.7055-0.2223 0.3771-0.2223 0.3771 0.0341 0.298 0.746-0.2302 1.257-0.6574 1.5206-1.2713 0.2038-0.4744 0.2836-0.4748 0.1476-8e-4 -0.14 0.4881-0.134 0.5179 0.0505 0.2531 0.0859-0.1232 0.2479-0.5156 0.3599-0.8719 0.2497-0.7944 0.3846-0.766 0.2729 0.0573-0.1217 0.8965-0.4941 1.5104-1.1951 1.9697-0.1553 0.1018-0.2596 0.2078-0.2318 0.2357 0.0988 0.0988 0.59-0.2417 1.232-0.854 0.7672-0.7317 0.8266-0.6836 0.7441 0.6024-0.0372 0.5802-0.1407 1.0152-0.335 1.4077-0.1547 0.3125-0.2339 0.5389-0.1762 0.5032 0.1813-0.112 0.6473-1.2154 0.6485-1.5352 5e-4 -0.1681 0.059-0.3415 0.1298-0.3852 0.4414-0.2728-0.1952 1.8854-0.7497 2.5415-0.5068 0.5996-1.945 1.1692-2.143 0.8487zm56.433-0.3426c0.45-1.0709 0.532-1.4001 0.531-2.1296-1e-3 -0.8136-0.171-1.4818-0.348-1.3721-0.055 0.0338-0.128-0.1179-0.164-0.3369-0.036-0.2191-0.298-0.7822-0.582-1.2512-0.546-0.8986-0.653-1.2092-0.326-0.9439 0.165 0.1342 0.18 0.1322 0.105-0.0145-0.19-0.3728 0.548 0.5686 1.185 1.5125 0.372 0.5507 0.676 0.9493 0.676 0.8858 0-0.3872-0.269-1.2624-0.388-1.2624-0.132 0-0.664-0.6605-1.115-1.387-0.34-0.5463-0.133-0.3474 0.493 0.4736 0.332 0.4347 0.624 0.7692 0.65 0.7434 0.061-0.0612-0.498-1.0249-0.89-1.5338-1.031-1.3387-1.156-1.5867-0.705-1.4024 0.378 0.1545 0.319 0.0729-0.565-0.7877-0.966-0.9402-1.91-2.2098-1.91-2.5695 0-0.0996 0.113 0.046 0.25 0.3236 0.295 0.5949 1.437 1.8372 2.179 2.3702 0.772 0.5539 0.648 0.3542-0.539-0.871-0.602-0.6216-1.194-1.3554-1.365-1.6925-0.378-0.7471-0.315-0.7632 0.15-0.0383 0.196 0.3064 0.959 1.1205 1.695 1.8092 2.481 2.3218 3.196 5.888 1.746 8.7078-0.368 0.715-1.014 1.3641-0.763 0.7667zm-42.648-0.6379c-0.012-0.3282 2.4193-2.9116 2.5846-2.7463 0.0324 0.0323-0.0895 0.1733-0.2709 0.3132-0.5076 0.3918-1.5786 1.544-2.1418 2.3043-0.0926 0.1249-0.1699 0.1829-0.1719 0.1288zm-5.8999-0.3989c-0.9553-1.3416-1.1763-2.6803-0.7149-4.3298 0.131-0.4685 0.2628-1.0052 0.2928-1.1926 0.0644-0.4026-0.0103 1.447-0.1079 2.6691-0.0997 1.2491 0.0831 1.6429 0.342 0.7369 0.2113-0.7398 0.8655-2.2455 0.9422-2.1688 0.0261 0.0261-0.0764 0.3207-0.2279 0.6545-0.821 1.8094-0.9262 2.4304-0.5382 3.1759 0.3911 0.7514 0.3975 0.9962 0.0119 0.4548zm42.017-0.1521c-0.412-0.6768-0.444-2.0823-0.071-3.0988 0.205-0.5591 0.217-0.4034 0.062 0.8442-0.104 0.844-0.092 1.0823 0.094 1.7966 0.24 0.9258 0.231 0.9774-0.085 0.458zm0.677-0.322c-0.325-0.6055-0.587-2.72-0.338-2.72 0.062 0 0.115 0.2428 0.116 0.5395 2e-3 0.2967 0.096 0.9612 0.209 1.4765 0.216 0.9816 0.218 1.0879 0.013 0.704zm-8.633-2.5175c-0.7074-1.9323-1.0908-2.471-2.6087-3.6659-1.2824-1.0096-1.8136-1.5199-1.4398-1.3833 0.1174 0.043-0.0669-0.2543-0.4259-0.6869-0.7472-0.9001-0.8056-1.0961-0.1787-0.5996 0.6548 0.5186 0.5729 0.3823-0.52-0.8652-1.9844-2.2654-1.692-2.112 0.9175 0.4813 0.6872 0.6829 1.6154 1.5326 2.0626 1.8885 1.1445 0.9102 1.751 2.0828 2.326 4.4986 0.274 1.1543 0.219 1.2936-0.133 0.3325zm-38.322-0.1501c-0.479-0.7311-0.7642-2.0941-0.6406-3.0622 0.0679-0.5323 0.0775-0.5018 0.153 0.4857 0.0574 0.7516 0.1774 1.3032 0.4188 1.9248 0.3608 0.9292 0.382 1.1297 0.0688 0.6517zm-4.9257-0.8302c-1.2008-1.7617-0.8611-3.9102 0.9307-5.8884 0.5558-0.6135 0.5558-0.6135 0.5712-1.6588 0.0268-1.8161 0.5848-2.6595 2.7889-4.2145 2.2853-1.6123 3.1101-2.6087 1.0658-1.2875-1.5878 1.0261-2.1985 1.3716-2.2805 1.2897-0.1263-0.1263 0.9265-1.0365 1.8404-1.5914 2.1861-1.3272 3.2088-2.3002 2.4827-2.3618-0.4157-0.0352-0.4157-0.0352 0.2269-0.5179 2.0298-1.525 1.8552-1.3439 1.9223-1.9941 0.0337-0.3261 0.1405-0.7711 0.2374-0.9889s0.2593-0.7027 0.3608-1.0775c0.3709-1.3696 3.5907-3.4688 4.0875-2.6649 0.0557 0.0901 0.0437 0.1163-0.0321 0.0694-0.0668-0.0413-0.1386-0.0336-0.1595 0.0169-0.021 0.0506-0.5237 0.3292-1.1171 0.6191-1.0812 0.5282-2.3852 1.4536-2.3852 1.6928 0 0.0701 0.2428-0.0991 0.5395-0.376 0.5116-0.4775 1.5692-1.0913 1.6835-0.977 0.0292 0.0292-0.2444 0.2778-0.608 0.5525-0.3635 0.2747-0.9128 0.7805-1.2205 1.1241-0.3077 0.3435-0.4074 0.4923-0.2214 0.3306 0.5101-0.4438 1.1634-0.8706 0.9772-0.6385-0.1803 0.2247-0.0248 0.2621 0.218 0.0523 0.0904-0.0781-0.0116 0.0497-0.2267 0.284-0.4462 0.4859-0.7567 0.5897-0.3398 0.1135 0.1503-0.1717 0.0315-0.0844-0.2642 0.1941s-0.5376 0.5818-0.5376 0.6741-0.115 0.2943-0.2555 0.4489c-0.2037 0.224-0.2152 0.2665-0.0568 0.2096 0.2353-0.0845 0.2455-0.0338 0.0601 0.2981-0.3377 0.6044-0.43 1.0219-0.1759 0.7955 0.2317-0.2064 0.2318-0.2063 0.0459 0.1571-0.257 0.5026-0.9365 1.1388-1.3922 1.3036-0.3163 0.1144-0.411 0.2337-0.5646 0.7115-0.1015 0.3158-0.3585 0.9064-0.5712 1.3125-0.3866 0.7382-0.3866 0.7382 0.3691-0.0568 0.7938-0.8352 0.8001-0.8292 0.1769 0.1703-0.6588 1.0565-2.7902 3.0747-3.3071 3.1314-0.0979 0.0108-0.2803 0.0613-0.4052 0.1123-0.2727 0.1113-0.1624-0.0605 0.505-0.7865 0.3904-0.4247 0.3758-0.4192-0.4479 0.1704-1.2001 0.8589-1.8285 1.5183-2.2489 2.3597-0.5637 1.1283-0.5009 1.4277 0.1534 0.7311 0.2891-0.3078 0.4605-0.434 0.3889-0.2863-0.1203 0.248-0.1132 0.2561 0.1173 0.1327 0.4059-0.2172 0.382-0.0469-0.0623 0.4449-0.4471 0.4948-0.4446 0.5778 0.0084 0.281 0.4805-0.3149 0.3128-0.056-0.6602 1.0189-1.487 1.6429-1.4861 1.7561 0.0031 0.3636 0.9359-0.8751 0.4427-0.068-0.7742 1.267-1.0463 1.1477-1.3791 1.8007-1.4456 2.8361-0.0659 1.0277-0.0249 1.0329 0.3624 0.0456 0.2199-0.5604 0.5058-1.0012 0.9977-1.538 0.8193-0.8941 1.0062-0.9109 0.2851-0.0256-1.0756 1.3205-1.503 2.7122-1.1837 3.854 0.1306 0.4672-0.0422 0.3781-0.4624-0.2383zm9.5749-16.83c0.3015-0.3222 0.2655-0.3084-0.3123 0.1198-0.3592 0.2662-0.6531 0.5035-0.6531 0.5274 0 0.1191 0.6666-0.3278 0.9654-0.6472zm-3.3992 16.709c-0.4753-0.5252-0.4256-1.8079 0.1209-3.1191 0.3875-0.9297 0.5585-1.0833 0.2689-0.2415-0.3651 1.0611-0.4413 1.7911-0.2828 2.7084 0.1615 0.9344 0.1595 0.9466-0.107 0.6522zm44.879-2.5095c0.168-0.9423 0.095-1.6469-0.237-2.2873-0.264-0.5088-0.276-0.567-0.08-0.389 0.128 0.1151 0.34 0.4325 0.472 0.7054 0.47 0.9715 0.407-0.0964-0.07-1.1741-0.367-0.831-0.495-1.5855-0.198-1.1693 0.416 0.5817 1.232 1.3902 1.62 1.6046 0.401 0.2214 0.401 0.2214 0.023 0.1785-0.373-0.0422-0.378-0.0376-0.307 0.3364 0.068 0.364-0.083 0.5392-0.205 0.2373-0.032-0.0781-0.061 0.0661-0.066 0.3205-0.013 0.6736-0.311 1.4449-0.701 1.8193-0.342 0.3269-0.342 0.327-0.251-0.1823zm-2.752-0.7649c-0.637-0.8703-1.247-1.9389-1.159-2.0277 0.026-0.0253 0.36 0.4526 0.743 1.0619 0.384 0.6092 0.806 1.2739 0.939 1.4768 0.454 0.6952 0.121 0.3698-0.523-0.511zm-43.376 0.6165c-0.6708-1.4685 0.6785-4.2243 2.9089-5.9413 1.0082-0.7762 0.8934-0.5974-0.5056 0.7874-1.7195 1.7021-2.1365 2.4852-2.2396 4.2061-0.0451 0.7526-0.1021 1.0827-0.1637 0.9478zm0.5095-0.4987c-0.0125-0.8231 1.025-2.7479 1.9732-3.6611 0.5802-0.5587 0.5033-0.362-0.2291 0.5858-0.7272 0.9413-0.9756 1.3938-1.4209 2.5883-0.2619 0.7024-0.3187 0.7879-0.3232 0.487zm52.802-0.5153c-0.104-0.3856-0.408-0.7686-1.514-1.9032-1.356-1.3908-1.843-2.0951-1.937-2.7971-0.024-0.1791-0.077-0.4126-0.12-0.5189-0.177-0.4467 0.096-0.415 0.392 0.0454 0.172 0.2688 0.646 0.7561 1.052 1.0831 1.629 1.31 2.219 2.2528 2.33 3.7228 0.072 0.9505-8e-3 1.0947-0.203 0.3679zm-0.658-1.6469c-0.338-0.4656-2.332-2.3944-2.194-2.1223 0.103 0.2035 2.287 2.4327 2.384 2.434 0.02 3e-4 -0.065-0.14-0.19-0.3117zm-8.62 1.0648c-0.544-0.6192-1.079-1.4428-0.993-1.5272 0.11-0.1079 1.005 0.9016 1.242 1.4016 0.263 0.5539 0.169 0.6015-0.249 0.1256zm4.887-0.8002c-1.435-0.5331-2.621-1.8887-2.509-2.8668 0.035-0.3122 0.045-0.3059 0.293 0.1982 0.43 0.8725 0.871 1.2066 0.652 0.4936-0.304-0.9878-0.321-1.1588-0.065-0.6735 0.559 1.0626 0.673 1.1035 0.616 0.2207-0.058-0.9113 0.197-0.7041 0.357 0.2904 0.046 0.2811 0.162 0.69 0.258 0.9086 0.097 0.2187 0.166 0.4423 0.153 0.4969-0.031 0.1402 0.309 0.5031 0.828 0.8827 0.531 0.3887 0.368 0.4025-0.583 0.0492zm-7.129-1.0301c-0.187-0.0851-0.686-0.309-1.107-0.4976-0.72-0.3222-1.617-0.9064-1.528-0.995 0.022-0.022 0.386 0.1342 0.809 0.3471 0.423 0.2128 1.135 0.4751 1.581 0.5828 1.045 0.2518 1.68 0.5018 1.6 0.6303-0.094 0.1522-0.967 0.1087-1.355-0.0676zm-8.1407-0.5963c-0.2078-0.1711-0.3067-0.221-0.2197-0.1108 0.087 0.1101 0.1214 0.2371 0.0763 0.2821-0.1683 0.1684-2.2703-2.1606-2.7078-3.0002-1.5456-2.9661 1.8348-6.8022 5.256-5.9648 0.3209 0.0785 0.2115 0.0987-0.5679 0.1044-0.6987 0.0052-1.1459 0.075-1.6185 0.2528-0.6815 0.2562-0.8699 0.4016-0.3522 0.2716 0.2118-0.0531 0.2771-0.0369 0.2205 0.0547-0.0526 0.085 0.0216 0.1301 0.2138 0.1301 0.7264 0 1.781 0.6669 2.4446 1.5459 0.4868 0.6448 0.4917 0.7839 0.0125 0.3566-0.1576-0.1406-0.0381 0.0256 0.2656 0.3691 0.637 0.7207 1.3485 1.7888 1.3675 2.054 8e-3 0.1001 0.292 0.6116 0.633 1.1367 0.34 0.5251 0.638 1.0017 0.662 1.0591 0.082 0.1915-0.716-0.4346-1.577-1.2385-0.4686-0.4374-0.7625-0.6892-0.6532-0.5597 0.3509 0.4157 0.213 0.4148-0.2957-0.0019-0.4796-0.3931-0.7237-0.5168-0.5888-0.2985 0.0363 0.0587-0.0278 0.0997-0.1424 0.091-0.6082-0.0458-1.0888 0.3676-0.6768 0.5822 0.2144 0.1117 0.1549 0.1233-0.3691 0.0721-0.6247-0.0611-0.6247-0.0611-0.3408 0.1656 0.3369 0.269 0.1568 0.2964-0.4295 0.0655-0.2323-0.0915-0.3268-0.1043-0.2101-0.0284 0.6864 0.4461 0.6757 0.5224-0.035 0.249-0.8465-0.3257-0.8421-0.3249-0.7303-0.144 0.0467 0.0756-0.1067 0.0244-0.3409-0.1138-0.4345-0.2563-0.4452-0.1672-0.0347 0.2887 0.3325 0.3693 0.1511 0.3138-0.3167-0.097-0.457-0.4012-0.5124-0.3494-0.1583 0.148 0.1338 0.1878 0.255 0.4513 0.2695 0.5854 0.0441 0.4104 0.052 0.4296 0.1523 0.3676 0.0533-0.033 0.2195 0.0775 0.3691 0.2454 0.1496 0.168 0.1826 0.2368 0.0733 0.153-0.1225-0.0939-0.1988-0.1057-0.1988-0.0306 0 0.067 0.0639 0.1636 0.142 0.2147 0.0781 0.051 0.344 0.3091 0.591 0.5735 0.5046 0.5404 0.3916 0.6442-0.1847 0.1696zm4.1087-3.9342c0-0.0235-0.0896-0.113-0.1989-0.1987-0.1802-0.1413-0.1842-0.1373-0.0429 0.0429 0.1484 0.1892 0.2418 0.2493 0.2418 0.1558zm-0.3409-0.4506c0-0.0215-0.115-0.1365-0.2556-0.2555-0.2555-0.2164-0.2555-0.2164-0.0391 0.0392 0.2033 0.2401 0.2947 0.3072 0.2947 0.2163zm-2.3233-0.3532c0.1896-0.1895 0.2758-0.3985 0.2696-0.653-0.0093-0.3743-0.0093-0.3743-0.1804 0.0232-0.0941 0.2186-0.2777 0.5125-0.4081 0.6531-0.3244 0.3498-0.0329 0.3286 0.3189-0.0233zm-3.3557-0.1134c0-0.1449-0.2764-0.63-0.3589-0.63-0.152 0-0.1103 0.543 0.0466 0.6063 0.1908 0.077 0.3123 0.0862 0.3123 0.0237zm0.6798-0.8855c0.0021-0.2431-0.2079-0.2631-0.298-0.0284-0.1044 0.272 0.0568 0.6057 0.1905 0.3943 0.0581-0.0919 0.1065-0.2566 0.1075-0.3659zm2.1597-0.0108c0-0.3809-0.3759-0.6866-0.7337-0.5968-0.3543 0.0889-0.3692 0.3248-0.04 0.6315 0.3526 0.3285 0.7737 0.3096 0.7737-0.0347zm-21.58 5.8875c0-0.042 0.2231-0.34 0.4959-0.6624 0.2728-0.3223 0.5567-0.7743 0.631-1.0044 0.1554-0.4813 0.867-1.171 1.4695-1.4243 0.4134-0.1738 0.4134-0.1738-0.1903-0.3293-0.3321-0.0855-0.8227-0.2837-1.0902-0.4405-0.4864-0.2851-0.4864-0.2851-1.2394 0.0563-0.8184 0.3712-0.921 0.3999-0.8148 0.2279 0.0934-0.151 0.0823-0.1492-0.691 0.1169-0.4073 0.1401-0.6848 0.1853-0.7081 0.1152-0.0234-0.0702-0.171-0.0466-0.3779 0.0604-0.6401 0.3311-0.5961 0.0905 0.0512-0.2798 0.6833-0.391 0.8139-0.5284 0.3913-0.4118-0.218 0.0601-0.2096 0.0406 0.0568-0.1323 0.1718-0.1115 0.3123-0.242 0.3123-0.29s0.0797-0.0872 0.1771-0.0872 0.1485-0.0462 0.1136-0.1027c-0.0348-0.0564 0.1282-0.2664 0.3625-0.4665 0.2969-0.2538 0.3313-0.3079 0.1135-0.1787-0.5762 0.3417-0.3197-0.0091 0.3502-0.4791 0.7304-0.5123 1.2674-1.0512 0.6621-0.6645-0.6928 0.4428-0.3908 0.062 0.3395-0.4279 0.7272-0.4878 0.8964-0.7097 0.2667-0.3497-0.1562 0.0892-0.3606 0.1639-0.4543 0.1659-0.2438 0.0051 0.4978-0.4339 1.3629-0.8069 0.8132-0.3506 0.7375-0.4009-0.2526-0.1679-0.3576 0.0841-0.6284 0.1177-0.6017 0.0746 0.0484-0.0784 0.9659-0.3671 1.8197-0.5726 0.4413-0.1062 0.4371-0.1079-0.1456-0.0593-0.3654 0.0306-0.5737 0.0077-0.5328-0.0585 0.0369-0.0598 0.3043-0.1087 0.5943-0.1087 0.6552 0 0.5252-0.1897-0.2781-0.4056-0.4689-0.1261-0.4966-0.148-0.1953-0.1546 0.1931-0.0042 0.5966 0.0662 0.8968 0.1566 0.6446 0.194 0.5792 0.1077-0.3393-0.4477-0.5047-0.3051-0.5931-0.3913-0.3407-0.3321 0.4437 0.104 1.1479 0.4592 1.6469 0.8307 0.3975 0.2959 0.3975 0.2959 0.0737-0.1374-0.4429-0.5929-0.3043-0.6491 0.2453-0.0995 0.888 0.888 1.3278 2.0313 1.3278 3.4515 0 1.2268 0 1.2268 0.3068 1.227 0.3975 1e-4 1.4378 0.2233 1.499 0.3216 0.026 0.0418-0.5229 0.0698-1.2199 0.0623-0.8758-0.0095-1.0743 0.0085-0.6426 0.0582 0.6247 0.072 0.6247 0.072-0.0568 0.1598-2.2124 0.2849-3.0678 0.5339-1.8342 0.5339 0.4641 0 1.1695 0.172 1.3446 0.3279 0.043 0.0383-0.2381 0.0732-0.6247 0.0774-0.5299 0.0059-0.8498 0.0833-1.2993 0.3143-0.6297 0.3237-0.795 0.4861-0.3049 0.2998 0.4234-0.161 0.9033-0.1422 0.5037 0.0197-0.59 0.2391-1.2516 0.5866-1.2052 0.6331 0.0266 0.0265 0.2039-0.0322 0.394-0.1305 0.6646-0.3437 0.6349-0.1745-0.0406 0.2311-0.8351 0.5014-0.8868 0.5526-0.4544 0.4497 0.2632-0.0626 0.1856 0.0189-0.3407 0.3577-1.1641 0.7495-1.5333 0.962-1.5333 0.8829zm4.7395-4.0997c-0.0377-0.0377-0.1357-0.0417-0.2177-0.0089-0.0906 0.0362-0.0637 0.0631 0.0686 0.0686 0.1198 0.0049 0.1869-0.0219 0.1491-0.0597zm-2.6034-0.9252c-0.0939-0.1093-0.2131-0.3009-0.2648-0.4259-0.0899-0.2171-0.096-0.2156-0.1396 0.0347-0.0521 0.2996 0.1453 0.59 0.401 0.59 0.1551 0 0.1554-0.0217 0.0034-0.1988zm0.5037-0.6547c-0.0662-0.3462-0.2547-0.4928-0.2547-0.1981 0 0.1659 0.1912 0.4837 0.2909 0.4837 0.0101 0-0.0062-0.1285-0.0362-0.2856zm2.3059-0.4807c-0.034-0.0885-0.067-0.2206-0.0734-0.2936s-0.0512 0.0207-0.0996 0.2081c-0.0483 0.1874-0.124 0.4429-0.1682 0.5679-0.0685 0.1937-0.0448 0.1868 0.1613-0.0472 0.1329-0.1508 0.2138-0.3466 0.1799-0.4352zm-1.7655-0.5048c0-0.1626-0.2006-0.0978-0.2718 0.0878-0.1242 0.3236-0.0652 0.4497 0.105 0.2246 0.0917-0.1213 0.1668-0.2618 0.1668-0.3124zm1.023-0.0903c-0.1482-0.2769-0.4354-0.2987-0.5344-0.0406-0.1059 0.2758 0.4193 0.6935 0.5588 0.4444 0.0582-0.1041 0.0483-0.268-0.0244-0.4038zm31.663 6.5861c-0.131-0.5002-0.2-1.8293-0.091-1.7622 0.142 0.0882 0.254 0.9201 0.206 1.535-0.032 0.4141-0.054 0.4572-0.115 0.2272zm-5.392-0.3643c-0.211-0.3586-0.495-1.0716-0.484-1.2144 4e-3 -0.0375 0.186 0.282 0.405 0.71 0.413 0.8034 0.469 1.1665 0.079 0.5044zm5.031-0.1184c-0.182-1.1799-0.19-1.287-0.081-1.0407 0.121 0.2724 0.294 1.5234 0.211 1.5234-0.031 0-0.089-0.2172-0.13-0.4827zm-6.268-0.3272c-0.761-1.0197-1.775-3.0653-1.604-3.2363 0.037-0.0376 0.303 0.2952 0.591 0.7396 0.718 1.1105 0.713 1.0155-0.024-0.419-0.619-1.2059-0.93-2.4076-0.624-2.4076 0.278 0 1.387 2.8073 1.387 3.5112 0 0.2727 0.324 0.9021 0.955 1.8554 0.176 0.2662 0.181 0.3123 0.033 0.3123-0.096 0-0.194 0.0572-0.217 0.1272-0.023 0.0699-0.247-0.1474-0.497-0.4828zm1.745 0.2711c-0.311-0.3552-0.539-0.9096-0.77-1.8704-0.329-1.3746-0.288-1.3335 0.409 0.4032 0.626 1.5593 0.698 1.8512 0.361 1.4672zm-2.282-0.2341c-0.359-0.375-0.413-0.6088-0.068-0.2966 0.223 0.2015 0.5 0.6152 0.413 0.6152-0.022 0-0.177-0.1434-0.345-0.3186zm-42.609-0.0506c0.4364-1.4617 1.8142-2.9274 4.0847-4.3452 0.8339-0.5207 0.6772-0.3602-0.8104 0.8302-1.2702 1.0164-1.9056 1.7091-2.7025 2.9471-0.5496 0.8537-0.7024 1.0054-0.5718 0.5679zm45.614-0.2939c-0.585-0.6267-1.16-2.1725-1.146-3.0805 5e-3 -0.3313 0.065-0.2239 0.343 0.6109 0.185 0.5571 0.546 1.3909 0.801 1.8527 0.51 0.9246 0.511 1.1615 2e-3 0.6169zm-43.73-0.2456c0.2655-0.3537 1.8029-1.6762 1.8029-1.5508 0 0.0274-0.4728 0.477-1.0507 0.9991-0.6289 0.5683-0.9308 0.7897-0.7522 0.5517zm20.657-1.2223c0-0.8033-0.3747-1.7508-0.8614-2.1781-0.4277-0.3756-0.386-0.468 0.0695-0.1541 0.3898 0.2687 0.5249 0.4586 0.7914 1.1127 0.1976 0.4848 0.2213 0.5098 0.1618 0.1703-0.0383-0.2186-0.1416-0.5464-0.2295-0.7283-0.2272-0.47-0.1024-0.5064 0.1753-0.0511 0.3274 0.5366 0.3974 1.0429 0.2304 1.6642-0.2089 0.7771-0.3375 0.8397-0.3375 0.1644zm18.51-0.5097c-0.235-0.4827-0.235-0.4827 0.054-0.164 0.159 0.1753 0.29 0.3925 0.29 0.4827 0 0.2767-0.099 0.1854-0.344-0.3187zm-34.298 0.2772c0-0.055 0.1075-0.1973 0.2389-0.3162 0.322-0.2914 0.7065-0.9647 1.1103-1.9437 0.4354-1.0561 1.1303-2.0699 1.7409-2.54 0.4808-0.3702 0.4834-0.3708 0.1874-0.0418-0.5006 0.5564-1.1067 1.5903-1.4772 2.5198-0.193 0.4842-0.4268 1.0287-0.5195 1.2099-0.2557 0.4997-1.2809 1.3896-1.2809 1.1118zm39.218-0.1923c-0.281-0.5348-0.71-1.9073-0.77-2.4637-0.054-0.5029 0.02-0.3488 0.448 0.9306 0.471 1.4102 0.613 2.0884 0.322 1.5331zm2.637-0.2136c-0.577-0.2728-0.992-0.6521-1.377-1.2583-0.188-0.2955-0.134-0.2713 0.444 0.1987 0.765 0.6225 0.899 0.6735 0.488 0.1858-0.351-0.4177-0.365-0.5105-0.075-0.5105 0.12 0 0.189 0.048 0.153 0.1068-0.036 0.0587-0.011 0.0728 0.056 0.0314 0.067-0.0415 0.376 0.0828 0.687 0.2761 0.772 0.4799 1.656 0.5607 2.52 0.2304 0.739-0.2827 0.782-0.2873 0.751-0.0802-0.067 0.4587-0.787 0.8633-1.536 0.8633-0.248 0-0.483 0.0511-0.521 0.1136-0.127 0.2045-1.01 0.1172-1.59-0.1571zm-43.785-0.129c0-0.0268 0.1661-0.1331 0.3691-0.236 0.8523-0.4324 1.5014-1.0499 2.3165-2.2038 0.9041-1.2801 1.9484-2.4221 2.4538-2.6837 0.4323-0.2237 0.3956-0.1365-0.2363 0.5612-0.7908 0.8733-1.2201 1.5354-1.7858 2.754-0.4397 0.9474-1.0729 2.0408-1.0729 1.8526 0-0.0371 0.1533-0.4057 0.3407-0.819 0.4442-0.9796 0.4376-0.9917-0.2093-0.3866-0.3025 0.283-0.7172 0.6009-0.9216 0.7066-0.4444 0.2298-1.2542 0.5235-1.2542 0.4547zm41.424-0.6386c-0.282-0.6782-0.441-1.2319-0.393-1.3749 0.025-0.0768 0.182 0.2648 0.348 0.7593 0.307 0.912 0.336 1.3131 0.045 0.6156zm-43.736-0.8379c0.9843-1.0849 1.6149-1.6981 1.4577-1.4176-0.214 0.382-1.1316 1.3817-1.7375 1.8929-0.6218 0.5247-0.6114 0.5071 0.2798-0.4753zm22.347 0.5132c0.0581-0.4326 0.0485-0.4718-0.0625-0.2555-0.1989 0.3878-0.3026 0.3102-0.3788-0.284-0.0758-0.5903-0.2112-1.2075-0.3427-1.5617-0.0636-0.1713-0.0325-0.1574 0.1263 0.0566 0.1157 0.156 0.2711 0.5649 0.3452 0.9086 0.1346 0.6249 0.1346 0.6249 0.1441 0.1565 0.0053-0.2576-0.0648-0.6793-0.1558-0.937-0.2081-0.5901-0.1711-0.5878 0.2285 0.0141 0.369 0.5559 0.4822 1.9744 0.1807 2.2653-0.1286 0.1242-0.1425 0.0651-0.085-0.3629zm24.8 0.1682c-0.583-0.2142-1.536-0.8617-2.016-1.3701-0.397-0.4212-0.397-0.4212 0.284 0.0513 0.631 0.4372 1.986 1.0769 2.081 0.9821 0.023-0.0226-0.161-0.3389-0.407-0.703-0.867-1.2784-1.127-1.9883-0.95-2.5926 0.09-0.3053 0.109-0.3171 0.185-0.1136 1.164 3.1096 1.838 3.8347 3.01 3.237 0.591-0.3017 0.662-0.2865 0.332 0.0714-0.549 0.5956-1.594 0.7771-2.519 0.4375zm-6.945-0.8258c-0.113-0.2501-0.509-0.7407-0.879-1.0904-0.599-0.5657-1.571-2.1549-1.413-2.3125 0.039-0.0395 0.589 0.5231 1.361 1.3914 0.271 0.3051 0.259 0.2577-0.115-0.4543-0.359-0.6844-0.565-0.9976-1.213-1.8457-0.077-0.1005-0.052-0.142 0.085-0.142 0.279 0 1.512 1.2735 1.607 1.6603 0.044 0.1801 0.194 0.4807 0.333 0.6681 0.517 0.6975 0.82 1.4994 0.45 1.1926-0.181-0.1499-0.239-0.0069-0.072 0.1761 0.146 0.1594 0.229 0.7581 0.139 1.0001-0.065 0.1744-0.114 0.1322-0.283-0.2437zm-37.197 0.1749c0.0274-0.0156 0.323-0.2839 0.6571-0.5963 0.334-0.3123 0.551-0.4578 0.4822-0.3234-0.1268 0.2479-0.9402 0.9481-1.1013 0.9481-0.0482 0-0.0653-0.0128-0.038-0.0284zm42.638-1.0465c-0.374-0.3364-0.648-0.6446-0.607-0.6848 0.04-0.0401 0.397 0.2354 0.794 0.6123 0.894 0.8498 0.743 0.9085-0.187 0.0725zm0.357-0.1678c-0.29-0.3107-0.528-0.5952-0.528-0.6323 0-0.1282 0.779 0.5271 0.966 0.8129 0.324 0.4946 0.112 0.4071-0.438-0.1806zm-28.512-0.4721c-0.3052-0.6858-0.4895-1.3613-0.3222-1.1814 0.1485 0.1598 0.7135 1.6767 0.6487 1.7416-0.0294 0.0294-0.1763-0.2227-0.3265-0.5602zm8.3154 0.3093c0.1338-0.1722 0.3518-1.0681 0.5285-2.1722 0.1136-0.7099 0.1482-0.8045 0.1584-0.4327 0.0149 0.5445 0.2402 0.803 0.2402 0.2757 0-0.1874 0.0511-0.3723 0.1136-0.4109 0.0676-0.0418 0.1136 0.0934 0.1136 0.334 0 0.2223 0.0441 0.4042 0.0981 0.4042 0.1916 0 0.2493 1.0238 0.0758 1.3433-0.0907 0.167-0.1669 0.2367-0.1694 0.1549-0.0067-0.2194-0.2296-0.0421-0.3521 0.2801-0.0585 0.1539-0.1575 0.2481-0.2201 0.2095-0.0626-0.0387-0.1138-0.0226-0.1138 0.0357 0 0.0584-0.1287 0.1061-0.2861 0.1061-0.195 0-0.2545-0.0406-0.1867-0.1277zm-22.876-0.6683c0.3079-0.357 0.5831-0.626 0.6114-0.5977 0.065 0.065-0.6195 0.8549-0.9349 1.0789-0.13 0.0924 0.0156-0.1242 0.3235-0.4812zm33.741-0.3976c-0.536-0.586-0.6631-0.7706-0.391-0.5651 0.362 0.2726 0.94 0.9171 1.171 1.3044 0.161 0.2688 0.013 0.1287-0.78-0.7393zm-8.6892 0.6517c0-0.5255 1.3291-2.5569 1.7932-2.7406 0.1695-0.0671 0.4522-0.1979 0.6283-0.2907 0.4286-0.2257 0.5158-0.1095 0.1161 0.1547-0.5807 0.384-1.5776 1.4943-2.0186 2.2482-0.4354 0.7447-0.519 0.8458-0.519 0.6284zm-2.7774-0.1395c-0.4936-1.5786-0.3779-3.8117 0.2369-4.5716 0.1794-0.2219 0.182-0.2206 0.1097 0.0568-0.2645 1.0144-0.3147 1.6536-0.2431 3.095 0.0687 1.3844 0.0341 1.8599-0.1035 1.4198zm15.612-0.5395c-0.522-0.7679-0.453-0.9471 0.075-0.1988 0.332 0.4697 0.536 0.8802 0.437 0.8802-0.027 0-0.258-0.3066-0.512-0.6814zm-22.819 0.1027c-0.2707-0.615-0.4295-1.2663-0.2466-1.0114 0.1858 0.259 0.5937 1.3848 0.5262 1.4522-0.0326 0.0327-0.1585-0.1657-0.2796-0.4408zm-15.264 0.238c0.2748-0.4333 0.603-0.8135 0.603-0.6986 0 0.0699-0.16 0.294-0.3555 0.498-0.1956 0.2041-0.307 0.2943-0.2475 0.2006zm17.099-0.3691c-0.9183-1.1464-0.8695-2.4083 0.174-4.4964 0.8013-1.6035 0.8962-1.4837 0.1799 0.227-0.7638 1.824-0.7807 2.9372-0.0657 4.3261 0.0733 0.1424-0.1665 0.0951-0.2882-0.0567zm17.362-0.2891c-0.127-0.2492-0.501-0.6949-0.832-0.9905-0.5998-0.5374-0.5998-0.5374-0.102-0.2678 0.531 0.2876 0.942 0.7469 1.145 1.2797 0.19 0.5022 0.049 0.4878-0.211-0.0214zm-31.456-0.84c0.2713-0.3243 0.4781-0.6573 0.4595-0.7401s0.0257-0.1369 0.0985-0.1203c0.0727 0.0166 0.1465-0.0542 0.164-0.1573 0.0801-0.4723 0.7909-1.1641 1.9455-1.8935 0.341-0.2155 0.6418-0.508 0.7225-0.7029 0.5077-1.2256 2.3933-1.8907 4.0316-1.422 0.5679 0.1625 0.5679 0.1625-0.1136 0.1006-0.8881-0.0807-2.0327 0.1306-2.6497 0.4891-0.6683 0.3883-0.5473 0.4306 0.2704 0.0944 0.8993-0.3697 1.1605-0.3491 0.44 0.0346-0.6609 0.3521-1.6604 1.0612-1.592 1.1296 0.0253 0.0253 0.2056-0.0365 0.4006-0.1374 0.1951-0.1008 0.4065-0.1513 0.4699-0.1122 0.0634 0.0392 0.1824 0.0155 0.2646-0.0527 0.9825-0.8154 3.5881-0.5172 4.7529 0.5439 0.4426 0.4031 0.3874 0.5132-0.0937 0.1867-1.3492-0.9156-3.8285-1.0685-5.0335-0.3104-0.2962 0.1864-0.2962 0.1864-0.0691-0.0842 0.2816-0.3355 0.2192-0.3003-1.4197 0.8005-0.8198 0.5506-1.686 1.2619-2.326 1.9103-1.1225 1.1369-1.4935 1.3644-0.7228 0.4433zm0.4171 0.1704c0.5436-0.7022 1.9248-1.9462 2.5749-2.3194 0.8361-0.4799 0.8797-0.3985 0.0834 0.1557-0.3824 0.2661-1.0943 0.8667-1.5819 1.3346-1.2726 1.2207-1.5377 1.4251-1.0764 0.8291zm19.268-0.1912c-0.1393-1.1147 0.2983-2.8513 0.9265-3.6773 0.3542-0.4656 0.5974-0.4893 0.2675-0.026-0.3944 0.5539-0.6859 1.5422-0.8687 2.945-0.2006 1.5397-0.2216 1.5887-0.3253 0.7583zm5.1101 0.3485c0.4822-0.7358 2.2986-1.7839 3.0708-1.7719 0.3407 0.0053 0.3407 0.0053-0.0675 0.1556-0.6657 0.2451-1.1256 0.5023-2.1879 1.2239-0.7749 0.5264-0.9622 0.6166-0.8154 0.3924zm-1.0181-0.0789c0.1131-0.1249 0.2236-0.2271 0.2457-0.2271s-0.0237 0.1022-0.1017 0.2271-0.1886 0.2272-0.2457 0.2272c-0.0572 0-0.0114-0.1023 0.1017-0.2272zm-8.255-0.1988c-0.2416-0.5874-0.1809-2.1759 0.1071-2.8003 0.3254-0.7055 0.3968-0.6426 0.1815 0.1597-0.1122 0.418-0.1551 1.0096-0.1298 1.7888 0.0412 1.267 0.0321 1.3159-0.1588 0.8518zm25.238-0.0512c-0.014-1.7311-0.931-3.2934-2.729-4.6508-0.595-0.4489-0.342-0.5039 0.49-0.1068 1.816 0.8667 3.163 3.6682 2.381 4.9508-0.125 0.2052-0.139 0.1865-0.142-0.1932zm-24.65-0.0245c0-0.0885-0.0639-0.1822-0.142-0.2082-0.1689-0.0563-0.1934-1.5431-0.0341-2.0728 0.1024-0.3408 0.1024-0.3408 0.1738 0.0568 0.0943 0.5244 0.1448 2.3851 0.0648 2.3851-0.0344 0-0.0625-0.0724-0.0625-0.1609zm-0.0384-0.6625c-0.0315-0.0781-0.0573-0.0142-0.0573 0.142 0 0.1561 0.0258 0.22 0.0573 0.1419s0.0315-0.2058 0-0.2839zm8.2161 0.7416c0-0.2181 1.7552-1.7262 1.8689-1.6059 0.0212 0.0225-0.3907 0.4148-0.9152 0.8719-0.5246 0.4571-0.9537 0.7874-0.9537 0.734zm9.5901-0.6109c-1.588-0.8794-1.845-1.1346-0.628-0.6229 1.177 0.4944 2.087 1.0943 1.917 1.264-0.025 0.0257-0.605-0.2628-1.289-0.6411zm-11.18 0.3883c0-0.2518 1.7511-1.617 1.8925-1.4756 0.0299 0.0299-0.19 0.2225-0.4887 0.428s-0.7367 0.5486-0.9734 0.7625c-0.2367 0.2138-0.4304 0.3421-0.4304 0.2851zm8.2342-0.4466c-0.187-0.1519-0.7237-0.4025-1.1923-0.5568-0.8518-0.2806-0.8518-0.2806-0.1715-0.2131 0.7688 0.0763 1.4058 0.3611 1.6278 0.7275 0.211 0.3495 0.131 0.3624-0.264 0.0424zm5.81-3e-4c-0.303-0.1576-0.528-0.3092-0.5-0.3369 0.081-0.0814 0.828 0.264 0.989 0.457 0.188 0.2268 0.169 0.2221-0.489-0.1201zm2.426-0.4297c-0.701-0.5987-1.715-1.1553-2.302-1.2642-0.838-0.1554-0.394-0.4745 0.462-0.3324 1.137 0.1889 1.611 0.5413 2.322 1.727 0.291 0.4864 0.217 0.4665-0.482-0.1304zm-24.875-0.2527c0-0.5903 0.7315-2.9837 0.8697-2.8455 0.0537 0.0537-0.7269 3.0386-0.8187 3.1305-0.0281 0.028-0.051-0.1003-0.051-0.285zm-3.1537-0.1176c-0.0679-0.1775-0.1856-0.5248-0.2617-0.7717-0.0895-0.2906-0.3839-0.6915-0.834-1.1358-0.3826-0.3778-0.5669-0.5831-0.4095-0.4564s0.4099 0.3312 0.5612 0.4543c0.1753 0.1427 0.24 0.1621 0.1784 0.0535-0.2568-0.4526-0.7168-0.9692-1.174-1.3183-0.6974-0.5324-0.4228-0.4864 0.3329 0.0558 0.966 0.6932 1.5549 1.519 1.8125 2.5419 0.1625 0.6452-0.0028 1.1081-0.2058 0.5767zm-12.698-0.2079c0.3879-0.9284 1.3267-1.9695 2.6201-2.9055 0.3748-0.2712 0.9334-0.7254 1.2411-1.0092 0.3078-0.2839 0.5155-0.4395 0.4616-0.3458-0.2988 0.5193-0.7016 0.9324-1.9622 2.0122-0.8303 0.7113-1.6046 1.4887-1.9124 1.9198-0.5876 0.8234-0.6848 0.8948-0.4482 0.3285zm35.374-0.2713c-0.721-0.4829-1.723-1.366-1.236-1.0896 0.424 0.2407 1.673 1.0872 1.919 1.3 0.533 0.4622 0.142 0.3418-0.683-0.2104zm-22.399-0.2978c-0.364-1.3973-0.9553-2.1883-2.3513-3.146-0.5703-0.3912-0.0096-0.19 0.6393 0.2294 1.324 0.8558 2.0286 1.9967 1.954 3.1642-0.0349 0.5473-0.0349 0.5473-0.2421-0.2477zm-11.033 0.3975c0.1652-0.5763 0.6941-1.3263 1.4613-2.0724 1.0329-1.0043 1.095-0.894 0.1093 0.1943-0.4284 0.473-0.9754 1.153-1.2155 1.511-0.2457 0.3664-0.4009 0.5269-0.3551 0.3671zm21.702-0.5395c0.0782-0.3322 0.5145-1.1862 0.575-1.1257 0.0198 0.0198-0.0788 0.3514-0.219 0.7369-0.2578 0.7088-0.4916 0.964-0.356 0.3888zm-0.854-0.0605c-0.0106-0.3223 0.2921-1.1798 0.384-1.0879 0.0279 0.0278-0.0448 0.3551-0.1615 0.7273-0.1563 0.4987-0.2149 0.5935-0.2225 0.3606zm17.699-1.0074c-0.46-0.5093-0.727-0.8676-0.594-0.7964 0.277 0.148 1.634 1.7224 1.485 1.7224-0.03 0-0.431-0.4168-0.891-0.926zm-6.045 0.0689c-0.606-0.4051-1.102-0.7619-1.102-0.793 0-0.1156 1.548 0.7358 1.931 1.0621 0.728 0.6202 0.286 0.4767-0.829-0.2691zm-33.944 0.086c0.2674-0.3754 1.6886-1.4571 1.7863-1.3595 0.0477 0.0477-1.1555 1.0796-1.8165 1.5579-0.2071 0.1498-0.2043 0.131 0.0302-0.1984zm30.396-0.2566c-0.1894-0.1176-0.6238-0.2889-0.9654-0.3806-0.6211-0.167-0.6211-0.167-0.1338-0.1744 0.4998-0.0077 1.2282 0.2893 1.4935 0.6089 0.1943 0.234 0.0344 0.2122-0.3943-0.0539zm-7.311-0.5274c0.0309-1.1908 0.1833-1.7204 0.1999-0.6949 9e-3 0.5539-0.0338 1.0179-0.0975 1.0573-0.0688 0.0425-0.1092-0.1005-0.1024-0.3624zm-18.863 0.0724c-0.0159-2.2442 3.6007-3.9394 6.0722-2.8461 0.7195 0.3183 0.6399 0.3807-0.1371 0.1076-0.888-0.3121-2.4495-0.2603-3.2572 0.1081-0.6515 0.2972-0.6554 0.4214-0.0064 0.2046 0.5625-0.1878 1.3741-0.3163 1.2352-0.1955-0.0571 0.0496-0.4279 0.1771-0.8241 0.2832-1.4486 0.3881-2.1148 0.876-2.7367 2.0043-0.2832 0.514-0.3442 0.5727-0.3459 0.3338zm-4.7724-0.0723c0-0.0625 0.1022-0.2061 0.2272-0.3192 0.1249-0.113 0.2271-0.1544 0.2271-0.092 0 0.0625-0.1022 0.2061-0.2271 0.3192-0.125 0.1131-0.2272 0.1545-0.2272 0.092zm41.463-0.7739c-1.218-2.0665-2.725-2.8589-4.913-2.5828-1.235 0.1558-1.343 0.1163-0.592-0.2166 2.375-1.0527 5.236 0.4227 5.948 3.0675 0.194 0.7214 0.111 0.671-0.443-0.2681zm-6.813 0.0499c-0.517-0.3789-0.915-0.7145-0.883-0.7459 0.183-0.1834 1.897 1.0178 1.897 1.3299 0 0.1579-5e-3 0.1554-1.014-0.584zm-20.04-0.0721c-0.543-1.1132-1.0845-1.9369-1.6411-2.4965-0.5558-0.5587-0.4811-0.564 0.2243-0.0157 0.5095 0.3961 1.1888 1.3999 1.5464 2.285 0.3598 0.8909 0.2705 1.0474-0.1296 0.2272zm22.416 0.4908c0-0.1094 0.801-0.4122 1.064-0.4021 0.199 0.0076 0.179 0.0371-0.111 0.1642-0.457 0.2003-0.953 0.3242-0.953 0.2379zm-14.114-0.9346c-0.3294-1.474-0.3319-1.5019-0.0894-1.0101 0.243 0.4925 0.39 1.2293 0.3285 1.6454-0.0221 0.1495-0.1244-0.1221-0.2391-0.6353zm-0.9798 0.4796c-0.1394-0.1485-0.3295-0.5188-0.4223-0.823-0.1832-0.6003-0.3427-2.6944-0.1676-2.2001 0.0553 0.1562 0.1057 0.5331 0.1119 0.8376 0.0077 0.3733 0.1442 0.8477 0.4191 1.4567 0.4408 0.9763 0.4549 1.1502 0.0589 0.7288zm14.543 0.1585c0.083-0.2475 1.012-0.6768 1.459-0.6735 0.37 0.0027 0.355 0.0164-0.228 0.203-0.344 0.1101-0.774 0.2973-0.955 0.4161-0.241 0.1582-0.315 0.1728-0.276 0.0544zm4.037-0.7806c-0.481-0.487-0.875-0.9232-0.875-0.9693 0-0.1479 0.993 0.724 1.425 1.2513 0.669 0.8167 0.397 0.6771-0.55-0.282zm-19.477 0.4735c-0.3893-0.548-0.5816-1.1457-0.6609-2.0542-0.0915-1.0491 0.0216-1.0264 0.2433 0.0487 0.0882 0.4279 0.2958 1.0994 0.4613 1.4922 0.3298 0.7828 0.3104 1.0116-0.0437 0.5133zm-6.1546-0.8496c-0.2945-0.6026-0.7469-1.3003-1.079-1.6638-0.3146-0.3444-0.4676-0.5704-0.34-0.5023 0.7126 0.3808 1.7624 1.8977 1.9295 2.7882 0.1137 0.6061 0.0545 0.534-0.5105-0.6221zm0.5609 0.2751c-0.0737-0.2342-0.3333-0.767-0.5767-1.184-0.5091-0.8722-0.5663-1.0945-0.1556-0.6049 0.3997 0.4767 0.8158 1.2984 0.909 1.7952 0.102 0.544-0.0045 0.5403-0.1767-0.0063zm20.789 0.3733c0-0.1052 0.852-0.6288 1.02-0.6267 0.095 0.0012-0.07 0.1546-0.367 0.3408-0.534 0.3356-0.653 0.3877-0.653 0.2859zm-1.022-0.7544c-0.808-0.5895-0.932-0.7209-0.512-0.5411 0.489 0.2088 1.307 0.772 1.307 0.8993 0 0.1818-0.145 0.1165-0.795-0.3582zm-15.424 0.0404c-0.6362-0.903-0.9417-1.9469-0.9158-3.129 0.0086-0.3874 0.0377-0.5765 0.0649-0.4203 0.215 1.2364 0.4238 1.9468 0.8217 2.796 0.2535 0.541 0.4609 1.0021 0.4609 1.0247 0 0.1464-0.2466-0.0086-0.4317-0.2714zm-1.0671-0.289c-0.5111-0.4306-1.1003-1.3148-1.2805-1.9215-0.2313-0.7791-0.1474-0.8062 0.2131-0.0689 0.2237 0.4574 0.2815 0.5214 0.2379 0.2634-0.0317-0.1874-0.0805-0.8263-0.1085-1.4198-0.0508-1.079-0.0508-1.079 0.0567-0.2295 0.1296 1.0233 0.3526 1.7328 0.87 2.7683 0.4369 0.8743 0.4386 0.968 0.0113 0.608zm8.484 0.0737c0.7959-0.6296 2.4287-1.0546 3.4074-0.8869 0.5678 0.0973 0.5678 0.0973-0.4544 0.173-1.2413 0.092-1.5195 0.1601-2.3534 0.5764-0.7201 0.3595-0.9456 0.4112-0.5996 0.1375zm-9.3036-0.3839c-0.6596-0.608-1.2615-1.7855-1.5445-3.0212-0.2793-1.2193-0.4396-1.5935-0.9144-2.1343-0.4446-0.5064-0.3985-0.609 0.0987-0.2199 0.4849 0.3795 0.7276 0.8801 1.092 2.2519 0.3107 1.1695 0.5903 1.7525 1.3089 2.7289 0.7478 1.0161 0.7379 1.1123-0.0407 0.3946zm-12.04-0.1485c0.4496-1.1717 3.4444-1.7519 5.0781-0.984 0.6664 0.3133 0.7143 0.52 0.0529 0.2282-1.5763-0.6955-3.6207-0.4526-4.7835 0.5683-0.2286 0.2007-0.385 0.2851-0.3475 0.1875zm28.888-1.3065c0.619-1.1567 2.74-1.6519 4.042-0.9435 0.454 0.2473 0.454 0.2473-0.488 0.1998-1.195-0.0602-2.273 0.1606-2.971 0.6085-0.62 0.3975-0.738 0.425-0.583 0.1352zm-30.429-0.0812c-0.2811-0.0886-0.7922-0.166-1.1358-0.172-0.6221-0.0109-0.6233-0.0116-0.284-0.167 0.1875-0.0858 0.2641-0.1591 0.1704-0.1629-0.5412-0.0218 0.2694-0.2273 0.9025-0.2288 0.7322-0.0017 0.7322-0.0017 0.3811-0.3709-0.4087-0.4296-0.8621-2.3568-0.5545-2.3568 0.0262 0 0.3654 0.0815 0.7539 0.181 0.8843 0.2265 1.4503 0.152 2.708-0.3568 0.9511-0.3848 0.9532-0.3851 0.6815-0.0929-0.4492 0.483-1.3589 0.948-1.8569 0.9492-0.3021 7e-4 -0.4112 0.0385-0.3339 0.1158 0.1854 0.1853 1.2649-0.0685 2.1077-0.4956 0.8413-0.4263 0.9353-0.2721 0.1594 0.2617-1.0322 0.7102-2.4594 0.8584-3.3285 0.3455-0.4996-0.2947-0.614-0.2206-0.1594 0.1032 1.0106 0.7196 2.998 0.4331 4.4244-0.6377 0.6602-0.4956 0.5213-0.1857-0.1545 0.3447-0.8791 0.6901-1.6416 0.9191-3.0574 0.9184-1.1317-6e-4 -1.1317-6e-4 -0.4543 0.2021 0.3725 0.1115 0.7412 0.2035 0.8193 0.2043 0.5305 0.0058-0.0014 0.2311-0.5679 0.2406-0.7099 0.0119-0.7099 0.0119-0.2556 0.1617 0.5706 0.188 1.3584 0.2065 1.6828 0.0393 0.1757-0.0905 0.1328-0.0066-0.1466 0.2874-0.2171 0.2283-0.5493 0.4601-0.7383 0.5151-0.2916 0.0848-0.3038 0.1015-0.0805 0.1102 0.1446 0.0056 0.3662-0.045 0.4924-0.1126 0.1262-0.0675 0.2554-0.0968 0.2871-0.0651 0.3373 0.3373-1.5643 0.5218-2.4624 0.2389zm11.189-1.7511c-0.2879-0.5733-0.7383-1.2788-1.0009-1.5679-0.4325-0.476-0.4435-0.5018-0.1172-0.2742 0.6673 0.4654 1.2047 1.2557 1.583 2.328 0.2842 0.8055 0.0726 0.5843-0.4649-0.4859zm17.167 0.6148c0.552-1.4384 3.992-1.7825 5.803-0.5804 0.795 0.5284 0.927 0.7414 0.284 0.4607-2.142-0.9347-3.305-0.9592-5.262-0.111-0.548 0.2374-0.861 0.3251-0.825 0.2307zm2.576-0.2165c0.547-0.2132 1.769-0.2916 2.388-0.1531 0.797 0.1783 0.689 0.2841-0.181 0.1765-0.771-0.0955-1.266-0.0773-2.246 0.0822-0.397 0.0647-0.397 0.0647 0.039-0.1056zm-11.176-0.2699c0.6353-1.2144 2.7958-2.1586 3.4476-1.5067 0.0914 0.0915-0.0575 0.1256-0.5504 0.126-1.0742 1e-3 -1.4901 0.1722-2.3035 0.9477-0.403 0.3843-0.6701 0.5791-0.5937 0.433zm3.3572-0.3151c0.3746-0.2902 1.5122-0.8394 1.7288-0.8347 0.1111 0.0024-0.2471 0.2324-0.7959 0.5111-1.0353 0.5257-1.3225 0.6253-0.9329 0.3236zm-15.163-0.9944c-0.3436-0.3206-0.5762-0.5446-0.5168-0.4978 0.2043 0.1612 0.3173 0.085 0.1616-0.1091-0.1028-0.1283-0.0299-0.106 0.2146 0.0655 0.2038 0.1429 0.3459 0.2996 0.3159 0.3482-0.0301 0.0486 0.0843 0.2108 0.2542 0.3604 0.3088 0.2721 0.3088 0.2721 0.0335-0.0403-0.4166-0.4724-0.1108-0.3742 0.3382 0.1087 0.2153 0.2315 0.2981 0.3498 0.184 0.2628-0.1413-0.1077-0.2318-0.1195-0.2839-0.0368-0.0461 0.073-0.3252-0.1107-0.7013-0.4616zm21.186 0.1515c0.182-0.1895 0.562-0.4203 0.845-0.5128 0.514-0.1682 0.514-0.1682-0.337-0.1179-0.469 0.0277-1.076 0.1306-1.349 0.2287-0.39 0.14-0.469 0.145-0.368 0.0232 0.207-0.2489 1.289-0.5374 2.028-0.541 0.774-0.0037 1.774 0.1253 1.682 0.217-0.033 0.0335 0 0.1335 0.073 0.2221 0.21 0.2531-0.088 0.3672-0.964 0.3692-0.544 0.0012-0.902 0.0686-1.216 0.2289-0.634 0.3235-0.776 0.2813-0.394-0.1174zm-20.051-0.1472c-0.2189-0.198-0.6021-0.5299-0.8515-0.7374-0.4274-0.3556-0.4318-0.3654-0.0775-0.1704 0.4639 0.2554 1.4622 1.1267 1.3841 1.2082-0.0315 0.0328-0.2363-0.1024-0.4551-0.3004zm8.1241-0.2465c0.1721-0.8019 1.077-2.3033 1.077-1.7869 0 0.0696-0.0575 0.1622-0.1278 0.2056-0.0703 0.0435-0.3291 0.4937-0.5751 1.0005-0.246 0.5069-0.4143 0.7682-0.3741 0.5808zm-15.156-0.893c1.5838-1.5156 3.6241-2.2275 5.1305-1.7897 0.762 0.2213 0.6707 0.3098-0.2839 0.2751-0.8235-0.0299-0.8235-0.0299-0.1988 0.1152 1.312 0.3047 1.4768 0.6045 0.2256 0.4104-1.7236-0.2674-3.3342 0.156-4.8491 1.2748-0.8654 0.6392-0.8748 0.5281-0.0243-0.2858zm25.132 0.5237c0.0421-0.0682 0.3072-0.212 0.5894-0.3196 0.681-0.2603 0.582-0.3204-0.1626-0.0991-0.9933 0.2949-1.4423 0.1873-0.8434-0.2022 0.8891-0.5781 2.587-0.7352 3.04-0.2813 0.106 0.1058 0.304 0.1931 0.44 0.1939 0.137 9e-4 0.503 0.1294 0.816 0.2857 0.312 0.1563 0.44 0.2554 0.284 0.2202-1.24-0.2795-2.937-0.1737-4.0468 0.2522-0.1243 0.0477-0.1659 0.03-0.1166-0.0498zm-12.305-0.8801c-0.0105-2.091-2.1668-3.3684-5.4194-3.2107-1.123 0.0545-1.2799 0-0.6861-0.2382 1.5983-0.6412 4.3786-0.0575 5.588 1.1732 0.5677 0.5778 0.5961 0.5374 0.0968-0.1379-0.4037-0.5459-0.1602-0.448 0.4654 0.1871 0.8151 0.8276 0.8345 1.51 0.0744 2.6241-0.0866 0.1269-0.117 0.0255-0.1191-0.3976zm8.461 0.1047c-0.3124-0.0874-0.9257-0.1946-1.363-0.2381-0.5956-0.0592-0.7238-0.0995-0.5111-0.1603 0.497-0.1421 1.5514-0.1095 2.3347 0.0721 0.9894 0.2295 1.0218 0.1602 0.107-0.2286-1.0552-0.4484-1.0514-0.5565 0.0162-0.462 0.855 0.0756 1.8603-0.1289 1.8573-0.3779-0.0037-0.3023-4.5868-0.1318-4.9243 0.1832-0.6743 0.6295-1.5377 1.0844-0.9583 0.5049 0.0982-0.0981 0.1001-0.1362 0.0067-0.1362-0.0713 0-0.1573 0.0449-0.1913 0.0998-0.0339 0.055-0.1775 0.1293-0.319 0.1652-0.2076 0.0526-0.1711-0.0145 0.1885-0.3469 0.2452-0.2266 0.3475-0.3718 0.2272-0.3226-0.5987 0.2449-0.619 0.1672-0.0716-0.274 0.731-0.5893 0.7228-0.6023-0.2497-0.3988-0.9388 0.1964-1.6166 0.5762-2.1588 1.2096-0.4306 0.503-0.6474 0.5185-0.425 0.0304 0.122-0.2678 0.114-0.2864-0.0951-0.22-0.6567 0.2084 0.2588-0.7252 1.0777-1.0991 0.4675-0.2134 0.7889-0.2632 1.8173-0.2813 0.8386-0.0148 1.3883-0.0808 1.6717-0.2009 0.7474-0.3165 0.9449-0.2378 0.478 0.1903-0.4375 0.4012 3.6687 0.6064 4.3591 0.2179 0.5918-0.3332 0.3528 0.6563-0.2932 1.2131-0.3404 0.2935-0.3495 0.2926 0.5992 0.0617 0.6806-0.1656-0.0676 0.5897-0.8404 0.8485-0.5118 0.1713-1.6347 0.1474-2.3398-0.05zm-10.35-0.686c-0.5323-0.7251-1.0072-1.1267-2.0112-1.7009-0.6428-0.3676-0.2256-0.3531 0.5058 0.0175 0.7221 0.366 1.4263 1.0704 1.8391 1.8397 0.4262 0.7945 0.332 0.7503-0.3337-0.1563zm4.164 0.5947c-0.0085-0.2042 0.477-0.8689 0.8054-1.1028 0.5655-0.4026 0.4888-0.166-0.1742 0.5376-0.3449 0.3659-0.6289 0.6203-0.6312 0.5652zm-2.6164-0.6124c0-0.0691-0.2604-0.4653-0.5785-0.8804-0.3786-0.4939-0.4951-0.7101-0.3372-0.6255 0.437 0.2338 1.1609 1.3863 0.9828 1.5645-0.0369 0.037-0.0671 0.0106-0.0671-0.0586zm-3.2401-0.9463c-0.6617-0.6742-0.7293-0.7755-0.4107-0.6154 0.4181 0.21 1.3791 1.12 1.3791 1.3059 0 0.2367-0.1948 0.0978-0.9684-0.6905zm-1.7007 0.4114c-0.3123-0.0748-0.9512-0.2931-1.4197-0.485s-1.0541-0.4235-1.3013-0.5146c-0.5717-0.2108-0.6362-0.3964-0.1537-0.4428 0.9041-0.087 2.3016 0.4174 3.1587 1.14 0.4939 0.4163 0.4384 0.4754-0.284 0.3024zm-1.2353-1.3119c-1.1294-0.33-1.4098-0.4505-1.0484-0.4505 0.1078 0 0.1644-0.0511 0.1258-0.1136-0.1089-0.1762 0.0864-0.1399 1.2196 0.2269 1.0175 0.3294 1.5368 0.5628 1.26 0.5664-0.0729 9e-4 -0.2007 0.0236-0.2839 0.0502s-0.6561-0.0991-1.2731-0.2794z" fill="#2e4922"/>
    <g fill="#fff">
      <path d="m79.312 31.433c-0.0999-0.0292-0.2228-0.1236-0.2904-0.2231-0.0565-0.0832-0.0833-0.1714-0.0721-0.2369 0.0196-0.1143 0.1171-0.2135 0.2187-0.2226 0.1387-0.0124 0.2907 0.1145 0.3534 0.2953 0.0458 0.1317 0.0338 0.2806-0.0282 0.3512-0.0389 0.0443-0.1069 0.0579-0.1814 0.0361z"/>
      <path d="m78.156 31.477c-0.0353-0.0236-0.0233-0.1393 0.0298-0.288 0.0283-0.0792 0.0491-0.1152 0.0909-0.1572 0.0692-0.0697 0.1503-0.0832 0.1777-0.0297 0.0222 0.0435 0.0137 0.0878-0.0347 0.1787-0.0957 0.1803-0.2231 0.3233-0.2637 0.2962z"/>
      <path d="m77.932 32.314c-0.0876-0.0438-0.2156-0.2565-0.2485-0.413-0.0193-0.0915 0.0049-0.201 0.0462-0.2091 0.0471-0.0092 0.1177 0.0877 0.1626 0.2228 0.0289 0.0869 0.0734 0.3346 0.0699 0.3882l-0.0017 0.0253z"/>
      <path d="m77.341 32.884c-0.1999-0.0483-0.3494-0.2949-0.3232-0.533 0.0084-0.0762 0.0354-0.2052 0.0466-0.2222l0.0095-0.0145 0.0151 0.0181c0.0083 0.01 0.0337 0.0614 0.0564 0.1142 0.0628 0.146 0.1646 0.3161 0.2562 0.4283 0.0204 0.025 0.0522 0.0641 0.0708 0.0869 0.0402 0.0495 0.0627 0.0886 0.0603 0.1053-0.0012 0.0083-0.0077 0.0142-0.0207 0.0186-0.0262 0.0089-0.1314 0.0079-0.171-0.0017z"/>
      <path d="m79.863 32.165c0-0.0095 0.0157-0.0652 0.0349-0.1238 0.0609-0.1859 0.105-0.3344 0.1551-0.522 0.0445-0.1666 0.0843-0.2771 0.0969-0.2692 0.0028 0.0017 0.0079 0.0232 0.0115 0.0479 0.0082 0.0564 0.0435 0.1958 0.0621 0.245 0.0184 0.0488 0.0185 0.0902 3e-4 0.1532-0.0294 0.1014-0.0964 0.2141-0.19 0.3199-0.071 0.0802-0.135 0.1451-0.1547 0.1567l-0.0161 0.0095v-0.0172z"/>
      <path d="m93.892 32.763c-0.0429-9e-3 -0.1416-0.0413-0.1753-0.0574-0.0302-0.0144-0.0528-0.0394-0.0753-0.0831-0.058-0.1128-0.0808-0.3033-0.0506-0.4217 0.0177-0.0695 0.056-0.1071 0.0931-0.0916 0.078 0.0326 0.2943 0.4015 0.335 0.5714 0.013 0.0542 0.0088 0.0741-0.0178 0.0853-0.018 0.0075-0.0656 0.0062-0.1091-0.0029z"/>
      <path d="m94.493 32.273c-0.0469-0.0169-0.0866-0.0825-0.1049-0.1736-0.0093-0.0466-0.0093-0.1476 0-0.194 0.0263-0.1313 0.0919-0.2263 0.1706-0.247 0.0506-0.0133 0.0993 0.0136 0.1254 0.0691 0.034 0.0723 0.0268 0.1977-0.0192 0.3353-0.0516 0.1546-0.1141 0.231-0.1719 0.2102z"/>
      <path d="m96.516 32.096c-0.1545-0.0289-0.3086-0.1177-0.4536-0.2615-0.2265-0.2247-0.263-0.4087-0.1032-0.5192 0.0673-0.0464 0.1694-0.0807 0.2628-0.0883 0.1976-0.0158 0.3987 0.0822 0.527 0.2569 0.096 0.1308 0.1406 0.3145 0.1064 0.4379-0.024 0.0868-0.0838 0.1466-0.1705 0.1707-0.0327 0.0091-0.1284 0.0111-0.1689 0.0035z"/>
      <path d="m96.945 33.115c-0.0066-0.0028-0.0131-0.0081-0.0144-0.0117-0.0149-0.0387 0.0287-0.1121 0.1412-0.2381 0.1165-0.1304 0.2642-0.3581 0.3609-0.5567 0.0155-0.0316 0.0483-0.1042 0.0731-0.1612 0.0964-0.2221 0.1205-0.2596 0.1321-0.2055 0.0113 0.0527 0.0172 0.316 0.0086 0.3821-0.0299 0.2278-0.1285 0.4019-0.331 0.584-0.1185 0.1065-0.2406 0.1855-0.3169 0.205-0.0345 0.0089-0.0378 9e-3 -0.0536 0.0021z"/>
      <path d="m87.636 43.211c-0.1348-0.0167-0.2463-0.0448-0.3951-0.0996-0.1098-0.0403-0.2117-0.0646-0.2373-0.0565-9e-3 0.0028-0.0204 0.0107-0.0253 0.0174-0.0078 0.0107-0.0137 0.0088-0.0499-0.0162-0.0226-0.0156-0.0693-0.0541-0.1039-0.0856s-0.0875-0.0717-0.1175-0.0892c-0.3611-0.2109-1.3924-0.4414-2.3688-0.5294-0.2547-0.023-0.382-0.0304-0.6641-0.0387-0.3946-0.0116-0.4199-0.0166-0.3359-0.0666 0.0509-0.0302 0.2851-0.1336 0.3512-0.155 0.1336-0.0432 0.297-0.075 0.5068-0.0986 0.1688-0.0191 0.7106-0.0189 0.9406 2e-4 1.4005 0.1165 2.7415 0.5435 2.9227 0.9305 0.0618 0.132 0.0052 0.2426-0.1413 0.2762-0.0675 0.0155-0.2037 0.0208-0.2822 0.0111z"/>
      <path d="m87.137 46.737c-0.4825-0.0339-0.7013-0.1206-0.9643-0.3823-0.2963-0.2947-0.4769-0.7181-0.526-1.2326-0.0094-0.0994-4e-3 -0.5741 0.0074-0.6449l0.0056-0.0346 0.013 0.0691c0.0071 0.038 0.0249 0.1469 0.0394 0.2419 0.0382 0.2488 0.0677 0.3803 0.125 0.5566 0.0965 0.297 0.2297 0.5394 0.3779 0.6879 0.0632 0.0633 0.0832 0.0781 0.1426 0.1062 0.147 0.0693 0.1649 0.0795 0.2021 0.1151 0.0477 0.0458 0.07 0.0886 0.079 0.152 0.0103 0.0731 0.0428 0.1265 0.0926 0.1525 0.012 0.0063 0.0888 0.0172 0.1843 0.0263 0.3576 0.0338 0.3649 0.0343 0.4221 0.0245 0.0675-0.0116 0.0789-0.0178 0.1026-0.0553 0.0234-0.037 0.0385-0.0472 0.1268-0.0852 0.0931-0.0401 0.2053-0.0733 0.426-0.1261 0.231-0.0552 0.4604-0.1174 0.5956-0.1615 0.1396-0.0455 0.1505-0.0446 0.1091 0.0096-0.0284 0.0373-0.1979 0.1852-0.2722 0.2375-0.1216 0.0857-0.2817 0.1565-0.3538 0.1565-0.0185 0-0.0519-0.0053-0.074-0.0119-0.0805-0.0239-0.1071-0.0048-0.0785 0.0564 0.0098 0.0207 0.0165 0.0441 0.015 0.0519-0.0069 0.0358-0.1353 0.0719-0.3111 0.0874-0.0837 0.0073-0.3972 0.0093-0.4862 3e-3z"/>
      <path d="m85.235 52.531c-0.1577-4e-3 -0.3242-0.0146-0.4511-0.0286-0.1891-0.0208-0.3511-0.0595-0.3861-0.0921-0.0106-0.0099-0.0114-0.0122-0.0069-0.0177 0.0212-0.0257 0.1406-0.0432 0.3738-0.055 0.0401-0.0021 0.1822-0.0058 0.3158-0.0083 0.4707-0.0089 0.8351 0.0079 0.975 0.0448 0.0591 0.0155 0.0824 0.0313 0.0756 0.0509-0.0168 0.0481-0.2002 0.0853-0.4949 0.1005-0.0798 0.0041-0.3248 0.0075-0.4012 0.0055z"/>
    </g>
    <path d="m145.63 32h7v3h-2.4l7.92 22h2.64v3h-8.48v-3h2.36l-1.8-5.24h-10.96l-1.8 5.24h2.4v3h-8.48v-3h2.6l7.92-21.96c-4.16 0.0533-7.08 0.5333-8.76 1.44-1.68 0.88-2.52 2.24-2.52 4.08 0 0.8 0.173 1.4667 0.52 2 0.347 0.5067 0.853 0.76 1.52 0.76 1.253 0 1.88-1.0533 1.88-3.16h3.2c0 1.7333-0.4 3.2-1.2 4.4-0.8 1.1733-2.093 1.76-3.88 1.76s-3.107-0.56-3.96-1.68-1.28-2.48-1.28-4.08c0-2.6133 1.24-4.6933 3.72-6.24s6.427-2.32 11.84-2.32zm1.76 3.8-4.6 13.36h9.2zm14.183 6.8v-2.6h5.72l0.56 2.44c1.6-1.8933 3.653-2.84 6.16-2.84s4.44 0.9733 5.8 2.92c1.36 1.92 2.04 4.4 2.04 7.44 0 3.0133-0.8 5.5067-2.4 7.48s-3.88 2.96-6.84 2.96c-1.387 0-2.907-0.2667-4.56-0.8v6.4h3.08v2.6h-9.56v-2.6h3.08v-23.4zm16.88 7.56c0-2.2133-0.44-4.0267-1.32-5.44s-2.12-2.12-3.72-2.12c-1.573 0-2.867 0.6267-3.88 1.88-0.987 1.2533-1.48 2.76-1.48 4.52v7.16c1.44 0.8267 2.867 1.24 4.28 1.24 1.84 0 3.32-0.6533 4.44-1.96 1.12-1.3333 1.68-3.0933 1.68-5.28zm5.581-7.56v-2.6h5.72l0.56 2.44c1.6-1.8933 3.653-2.84 6.16-2.84s4.44 0.9733 5.8 2.92c1.36 1.92 2.04 4.4 2.04 7.44 0 3.0133-0.8 5.5067-2.4 7.48s-3.88 2.96-6.84 2.96c-1.387 0-2.907-0.2667-4.56-0.8v6.4h3.08v2.6h-9.56v-2.6h3.08v-23.4zm16.88 7.56c0-2.2133-0.44-4.0267-1.32-5.44s-2.12-2.12-3.72-2.12c-1.573 0-2.867 0.6267-3.88 1.88-0.987 1.2533-1.48 2.76-1.48 4.52v7.16c1.44 0.8267 2.867 1.24 4.28 1.24 1.84 0 3.32-0.6533 4.44-1.96 1.12-1.3333 1.68-3.0933 1.68-5.28zm5.621-17.56v-2.6h6.48v27.4h3.48v2.6h-10v-2.6h3.12v-24.8zm11.357 10v-2.6h7.56v2.6h-1.44l4.48 13.56 4.2-13.56h-1.84v-2.6h7.2v2.6h-1.88l-5.8 17.4c-1.014 2.96-2.134 5.2-3.36 6.72-1.227 1.5467-2.934 2.32-5.12 2.32-1.254 0-2.587-0.24-4-0.72l0.96-2.8c1.093 0.32 2.026 0.48 2.8 0.48 2.293 0 4.053-1.8133 5.28-5.44l-6.56-17.96zm44.559-12.92c1.04 0 2.307 0.1067 3.8 0.32v5.36h-2.8v-2.64l-1-0.04c-1.707 0-2.853 0.4267-3.44 1.28-0.56 0.8533-0.84 2.2533-0.84 4.2v1.84h6.36v2.6h-6.36v14.8h3.48v2.6h-10v-2.6h3.12v-14.8h-3.08v-2.2l3.08-0.4v-1.84c0-2.8 0.56-4.9067 1.68-6.32 1.147-1.44 3.147-2.16 6-2.16zm6.617 27.8c-1.68-1.9733-2.52-4.4667-2.52-7.48s0.84-5.4933 2.52-7.44c1.68-1.9733 4.04-2.96 7.08-2.96s5.4 0.9867 7.08 2.96c1.68 1.9467 2.52 4.4267 2.52 7.44s-0.84 5.5067-2.52 7.48c-1.68 1.9467-4.04 2.92-7.08 2.92s-5.4-0.9733-7.08-2.92zm2.52-12.8c-1.093 1.3867-1.64 3.16-1.64 5.32s0.547 3.9333 1.64 5.32 2.613 2.08 4.56 2.08 3.467-0.6933 4.56-2.08 1.64-3.16 1.64-5.32-0.547-3.9333-1.64-5.32-2.613-2.08-4.56-2.08-3.467 0.6933-4.56 2.08zm22.832 12.72h3.48v2.6h-9.96v-2.6h3.08v-14.8h-3.08v-2.6h5.72l0.48 2.12c0.907-0.5067 1.64-0.8933 2.2-1.16 0.56-0.2933 1.36-0.5867 2.4-0.88 1.067-0.32 2.093-0.48 3.08-0.48l2.24 0.6-0.92 3.28-1.8-0.48c-2.24 0-4.547 0.56-6.92 1.68zm29.019 3c-1.84 0-3.28-0.52-4.32-1.56-1.04-1.0667-1.56-2.48-1.56-4.24 0-1.7867 0.693-3.28 2.08-4.48s3.44-1.8 6.16-1.8h4.36v-2.04c0-2.4533-1.173-3.68-3.52-3.68-1.973 0-3.787 0.24-5.44 0.72v2.68h-2.8v-4.76c1.2-0.5067 2.613-0.9067 4.24-1.2 1.653-0.2933 3.027-0.44 4.12-0.44 2.133 0 3.8 0.6133 5 1.84 1.2 1.2 1.8 2.8133 1.8 4.84v11.32h3.28v1.68c-0.987 0.6133-2.12 0.92-3.4 0.92s-2.147-0.2133-2.6-0.64-0.68-1.1467-0.68-2.16c-2 2-4.24 3-6.72 3zm0.36-3c2.293 0 4.413-1.2933 6.36-3.88v-2.56h-4.4c-1.627 0-2.84 0.32-3.64 0.96-0.773 0.64-1.16 1.4533-1.16 2.44 0 0.96 0.24 1.7067 0.72 2.24s1.187 0.8 2.12 0.8zm40.385-19.768c0 2.464-0.656 4.56-1.968 6.288-1.312 1.696-3.408 2.544-6.288 2.544s-5.008-0.816-6.384-2.448-2.064-3.6-2.064-5.904c0-3.648 1.712-6.512 5.136-8.592s8.896-3.12 16.416-3.12h3.696l13.968 22.416v-16.656h-4.176v-5.76h15.072v5.76h-4.656v27.84h-5.904l-14.4-22.992v17.232h4.176v5.76h-15.072v-5.76h4.656v-22.032c-4.8 0.128-8.16 0.656-10.08 1.584-1.888 0.896-2.832 2.272-2.832 4.128s0.816 2.784 2.448 2.784c1.504 0 2.256-1.024 2.256-3.072zm58.022 10.176v2.544h-16.224c0.096 1.28 0.624 2.336 1.584 3.168 0.992 0.8 2.144 1.2 3.456 1.2s2.416-0.096 3.312-0.288c0.928-0.192 1.568-0.368 1.92-0.528 0.384-0.16 0.944-0.448 1.68-0.864l1.152-0.624 2.496 4.848c-2.624 2.144-5.888 3.216-9.792 3.216s-6.896-1.168-8.976-3.504c-2.048-2.368-3.072-5.36-3.072-8.976s1.024-6.592 3.072-8.928c2.08-2.368 4.896-3.552 8.448-3.552 3.584 0 6.304 1.152 8.16 3.456s2.784 5.248 2.784 8.832zm-6.24-2.304c-0.128-1.28-0.576-2.304-1.344-3.072-0.736-0.768-1.808-1.152-3.216-1.152-1.376 0-2.528 0.4-3.456 1.2-0.896 0.768-1.488 1.776-1.776 3.024zm44.746-9.504v5.28h-2.736l-4.848 18.72h-7.824l-3.36-12.576-3.36 12.576h-7.824l-4.896-18.72h-2.688v-5.28h10.176v5.28h-1.2l2.544 11.856 4.416-17.136h5.664l4.176 17.088 2.736-11.808h-1.152v-5.28zm28.91 1.632c0 2.464-0.656 4.56-1.968 6.288-1.312 1.696-3.408 2.544-6.288 2.544s-5.008-0.816-6.384-2.448-2.064-3.6-2.064-5.904c0-3.648 1.712-6.512 5.136-8.592s8.896-3.12 16.416-3.12h2.16c5.984 0 10.416 0.992 13.296 2.976 2.912 1.952 4.368 4.656 4.368 8.112 0 3.424-1.088 6.096-3.264 8.016-2.144 1.92-4.88 2.88-8.208 2.88-1.792 0-3.376-0.128-4.752-0.384v6.24h5.616v5.76h-16.512v-5.76h4.656v-22.032c-4.8 0.128-8.16 0.656-10.08 1.584-1.888 0.896-2.832 2.272-2.832 4.128s0.816 2.784 2.448 2.784c1.504 0 2.256-1.024 2.256-3.072zm8.448-5.472v9.936c1.248 0.352 2.704 0.528 4.368 0.528 1.696 0 3.056-0.48 4.08-1.44s1.536-2.256 1.536-3.888c0-1.664-0.768-2.928-2.304-3.792-1.504-0.896-4.064-1.344-7.68-1.344zm30.027 28.368c-3.008 0-5.088-0.88-6.24-2.64-1.152-1.792-1.728-4.24-1.728-7.344v-9.504h-3.696v-5.04h9.936v14.544c0 1.408 0.192 2.464 0.576 3.168 0.416 0.704 1.296 1.056 2.64 1.056s3.328-0.976 5.952-2.928v-10.56h-2.976v-5.28h9.216v18.96h3.936v4.176c-1.376 0.736-3.184 1.104-5.424 1.104-2.208 0-3.632-0.816-4.272-2.448-2.944 1.824-5.584 2.736-7.92 2.736zm22.986 4.608v-24h-3.936v-5.136h8.688l0.768 2.736c1.6-2.08 3.728-3.12 6.384-3.12 3.264 0 5.776 1.168 7.536 3.504 1.76 2.304 2.64 5.28 2.64 8.928 0 3.616-1.024 6.608-3.072 8.976-2.016 2.368-4.928 3.552-8.736 3.552-1.088 0-2.432-0.096-4.032-0.288v4.752h2.976v5.28h-12.912v-5.184zm15.84-16.896c0-2.016-0.416-3.664-1.248-4.944-0.8-1.28-1.92-1.92-3.36-1.92s-2.64 0.752-3.6 2.256c-0.928 1.504-1.392 3.312-1.392 5.424v4.944c1.248 0.544 2.48 0.816 3.696 0.816 1.792 0 3.216-0.592 4.272-1.776 1.088-1.216 1.632-2.816 1.632-4.8zm12.801 16.896v-24h-3.936v-5.136h8.688l0.768 2.736c1.6-2.08 3.728-3.12 6.384-3.12 3.264 0 5.776 1.168 7.536 3.504 1.76 2.304 2.64 5.28 2.64 8.928 0 3.616-1.024 6.608-3.072 8.976-2.016 2.368-4.928 3.552-8.736 3.552-1.088 0-2.432-0.096-4.032-0.288v4.752h2.976v5.28h-12.912v-5.184zm15.84-16.896c0-2.016-0.416-3.664-1.248-4.944-0.8-1.28-1.92-1.92-3.36-1.92s-2.64 0.752-3.6 2.256c-0.928 1.504-1.392 3.312-1.392 5.424v4.944c1.248 0.544 2.48 0.816 3.696 0.816 1.792 0 3.216-0.592 4.272-1.776 1.088-1.216 1.632-2.816 1.632-4.8zm19.808-6.96h-1.296l3.552 10.704 3.12-10.704h-1.728v-5.28h11.04v5.28h-2.976l-5.52 18.72c-2.048 7.232-5.92 10.848-11.616 10.848-1.728 0-3.568-0.288-5.52-0.864l1.68-6.048c1.44 0.416 2.72 0.624 3.84 0.624 1.984 0 3.584-1.28 4.8-3.84l-7.872-19.44h-2.928v-5.28h11.424zm38.892-11.6c1.04 0 2.306 0.1067 3.8 0.32v5.36h-2.8v-2.64l-1-0.04c-1.707 0-2.854 0.4267-3.44 1.28-0.56 0.8533-0.84 2.2533-0.84 4.2v1.84h6.36v2.6h-6.36v14.8h3.48v2.6h-10v-2.6h3.12v-14.8h-3.08v-2.2l3.08-0.4v-1.84c0-2.8 0.56-4.9067 1.68-6.32 1.146-1.44 3.146-2.16 6-2.16zm9.976 27.72h3.48v2.6h-9.96v-2.6h3.08v-14.8h-3.08v-2.6h5.72l0.48 2.12c0.907-0.5067 1.64-0.8933 2.2-1.16 0.56-0.2933 1.36-0.5867 2.4-0.88 1.067-0.32 2.094-0.48 3.08-0.48l2.24 0.6-0.92 3.28-1.8-0.48c-2.24 0-4.546 0.56-6.92 1.68zm13.476 0.08c-1.68-1.9733-2.52-4.4667-2.52-7.48s0.84-5.4933 2.52-7.44c1.68-1.9733 4.04-2.96 7.08-2.96s5.4 0.9867 7.08 2.96c1.68 1.9467 2.52 4.4267 2.52 7.44s-0.84 5.5067-2.52 7.48c-1.68 1.9467-4.04 2.92-7.08 2.92s-5.4-0.9733-7.08-2.92zm2.52-12.8c-1.093 1.3867-1.64 3.16-1.64 5.32s0.547 3.9333 1.64 5.32c1.094 1.3867 2.614 2.08 4.56 2.08 1.947 0 3.467-0.6933 4.56-2.08 1.094-1.3867 1.64-3.16 1.64-5.32s-0.546-3.9333-1.64-5.32c-1.093-1.3867-2.613-2.08-4.56-2.08-1.946 0-3.466 0.6933-4.56 2.08zm28.993 15.32v-2.6h3.08v-10.12c0-1.5467-0.2-2.7067-0.6-3.48-0.4-0.8-1.32-1.2-2.76-1.2-1.414 0-3.374 0.6667-5.88 2v12.8h3.08v2.6h-9.56v-2.6h3.08v-14.8h-3.08v-2.6h5.72l0.4 1.8c2.693-1.4667 5.106-2.2 7.24-2.2 2.16 0 3.706 0.7733 4.64 2.32 2.746-1.5467 5.2-2.32 7.36-2.32s3.666 0.68 4.52 2.04c0.88 1.36 1.32 3.24 1.32 5.64v10.32h3.28v1.68c-0.987 0.6133-2.134 0.92-3.44 0.92-1.28 0-2.147-0.2133-2.6-0.64-0.427-0.4533-0.64-1.1733-0.64-2.16v-10.12c0-1.5467-0.2-2.7067-0.6-3.48-0.4-0.8-1.294-1.2-2.68-1.2-1.36 0-3.24 0.6-5.64 1.8 0.16 0.88 0.24 1.84 0.24 2.88v10.12h3.48v2.6zm35.406-17.4v-2.2l3.08-0.4h0.4c0.854-2 1.427-3.76 1.72-5.28h1.68v5.28h5.96v2.6h-5.96v12.28c0 0.9067 0.147 1.56 0.44 1.96 0.32 0.4 0.854 0.6 1.6 0.6 0.747 0 1.747-0.2533 3-0.76l1.32 2.28c-1.52 0.96-3.146 1.44-4.88 1.44-1.733 0-2.986-0.4533-3.76-1.36-0.746-0.9067-1.12-2.08-1.12-3.52v-12.92zm21.324 14.8h3.48v2.6h-9.96v-2.6h3.08v-24.8h-3.08v-2.6h6.48v11.96c2.747-1.5733 5.24-2.36 7.48-2.36s3.787 0.68 4.64 2.04c0.88 1.36 1.32 3.24 1.32 5.64v10.32h3.28v1.68c-0.986 0.6133-2.133 0.92-3.44 0.92-1.28 0-2.146-0.2133-2.6-0.64-0.426-0.4533-0.64-1.1733-0.64-2.16v-10.12c0-1.5467-0.2-2.7067-0.6-3.48-0.4-0.8-1.32-1.2-2.76-1.2s-3.666 0.8-6.68 2.4zm18.774-14.8v-2.6h6.48v17.4h3.48v2.6h-10v-2.6h3.12v-14.8zm4.68-6.16c-0.586 0-1.066-0.2133-1.44-0.64-0.373-0.4267-0.56-0.9333-0.56-1.52 0-0.6133 0.2-1.1467 0.6-1.6 0.427-0.4533 0.934-0.68 1.52-0.68 0.587 0 1.067 0.2133 1.44 0.64 0.374 0.4267 0.56 0.9467 0.56 1.56 0 0.5867-0.213 1.1067-0.64 1.56-0.4 0.4533-0.893 0.68-1.48 0.68zm7.897 17.8h2.8v2.52c1.014 0.4 2.24 0.6 3.68 0.6 1.467 0 2.574-0.2267 3.32-0.68 0.774-0.48 1.16-1.0667 1.16-1.76s-0.293-1.2533-0.88-1.68c-0.56-0.4533-1.92-1.2533-4.08-2.4-2.133-1.1467-3.626-2.1067-4.48-2.88-0.853-0.8-1.28-1.84-1.28-3.12 0-1.6533 0.64-2.9333 1.92-3.84 1.307-0.9333 3.08-1.4 5.32-1.4s4.36 0.5467 6.36 1.64v4.76h-2.8v-2.68c-1.173-0.48-2.426-0.72-3.76-0.72-1.306 0-2.24 0.2533-2.8 0.76-0.56 0.48-0.84 1.0133-0.84 1.6s0.214 1.0533 0.64 1.4c0.72 0.5867 2.014 1.3467 3.88 2.28 2.374 1.3067 4 2.36 4.88 3.16s1.32 1.8267 1.32 3.08c0 1.6533-0.706 2.9867-2.12 4-1.413 0.9867-3.386 1.48-5.92 1.48-2.506 0-4.613-0.5067-6.32-1.52zm29.201-21.64v-2.6h6.48v27.4h3.48v2.6h-10v-2.6h3.12v-24.8zm12.597 10v-2.6h6.48v17.4h3.48v2.6h-10v-2.6h3.12v-14.8zm4.68-6.16c-0.586 0-1.066-0.2133-1.44-0.64-0.373-0.4267-0.56-0.9333-0.56-1.52 0-0.6133 0.2-1.1467 0.6-1.6 0.427-0.4533 0.934-0.68 1.52-0.68 0.587 0 1.067 0.2133 1.44 0.64 0.374 0.4267 0.56 0.9467 0.56 1.56 0 0.5867-0.213 1.1067-0.64 1.56-0.4 0.4533-0.893 0.68-1.48 0.68zm7.097 6.16v-2.2l3.08-0.4h0.4c0.854-2 1.427-3.76 1.72-5.28h1.68v5.28h5.96v2.6h-5.96v12.28c0 0.9067 0.147 1.56 0.44 1.96 0.32 0.4 0.854 0.6 1.6 0.6 0.747 0 1.747-0.2533 3-0.76l1.32 2.28c-1.52 0.96-3.146 1.44-4.88 1.44-1.733 0-2.986-0.4533-3.76-1.36-0.746-0.9067-1.12-2.08-1.12-3.52v-12.92zm14.844 0v-2.2l3.08-0.4h0.4c0.854-2 1.427-3.76 1.72-5.28h1.68v5.28h5.96v2.6h-5.96v12.28c0 0.9067 0.147 1.56 0.44 1.96 0.32 0.4 0.854 0.6 1.6 0.6 0.747 0 1.747-0.2533 3-0.76l1.32 2.28c-1.52 0.96-3.146 1.44-4.88 1.44-1.733 0-2.986-0.4533-3.76-1.36-0.746-0.9067-1.12-2.08-1.12-3.52v-12.92zm32.964 6.04v2.12h-14.12c0.133 1.9467 0.707 3.5467 1.72 4.8 1.013 1.2267 2.373 1.84 4.08 1.84 1.12 0 2.12-0.12 3-0.36 0.907-0.24 1.533-0.4533 1.88-0.64 0.347-0.2133 0.827-0.52 1.44-0.92l1.48 2.24c-2.027 1.7867-4.56 2.68-7.6 2.68s-5.373-0.9733-7-2.92c-1.6-1.9733-2.4-4.4667-2.4-7.48s0.8-5.4933 2.4-7.44c1.627-1.9733 3.827-2.96 6.6-2.96 2.8 0 4.92 0.84 6.36 2.52s2.16 3.8533 2.16 6.52zm-3.4-0.72c-0.16-1.6267-0.653-2.92-1.48-3.88-0.8-0.96-1.96-1.44-3.48-1.44-1.493 0-2.72 0.4933-3.68 1.48-0.96 0.96-1.6 2.24-1.92 3.84zm11.877 9.48h3.48v2.6h-9.96v-2.6h3.08v-14.8h-3.08v-2.6h5.72l0.48 2.12c0.907-0.5067 1.64-0.8933 2.2-1.16 0.56-0.2933 1.36-0.5867 2.4-0.88 1.067-0.32 2.093-0.48 3.08-0.48l2.24 0.6-0.92 3.28-1.8-0.48c-2.24 0-4.547 0.56-6.92 1.68z" fill="#2e4922"/>
  </g>
  <defs>
    <filter id="a" x=".60498" y="0" width="990.79" height="110" color-interpolation-filters="sRGB" filterUnits="userSpaceOnUse">
      <feFlood flood-opacity="0" result="BackgroundImageFix"/>
      <feColorMatrix in="SourceAlpha" result="hardAlpha" values="0 0 0 0 0 0 0 0 0 0 0 0 0 0 0 0 0 0 127 0"/>
      <feMorphology in="SourceAlpha" operator="dilate" radius="5" result="effect1_dropShadow_699_3970"/>
      <feOffset dx="9" dy="12"/>
      <feGaussianBlur stdDeviation="7.5"/>
      <feComposite in2="hardAlpha" operator="out"/>
      <feColorMatrix values="0 0 0 0 0.180392 0 0 0 0 0.286275 0 0 0 0 0.133333 0 0 0 1 0"/>
      <feBlend in2="BackgroundImageFix" result="effect1_dropShadow_699_3970"/>
      <feBlend in="SourceGraphic" in2="effect1_dropShadow_699_3970" result="shape"/>
    </filter>
  </defs>
</svg>
