<?xml version="1.0" encoding="UTF-8" standalone="no"?>
<svg
   width="36.843071"
   height="36.84304"
   version="1.1"
   viewBox="0 0 9.7480625 9.7480545"
   id="svg42"
   sodipodi:docname="construction-doodle.svg"
   xmlns:inkscape="http://www.inkscape.org/namespaces/inkscape"
   xmlns:sodipodi="http://sodipodi.sourceforge.net/DTD/sodipodi-0.dtd"
   xmlns="http://www.w3.org/2000/svg"
   xmlns:svg="http://www.w3.org/2000/svg">
  <defs
     id="defs46" />
  <sodipodi:namedview
     id="namedview44"
     pagecolor="#ffffff"
     bordercolor="#666666"
     borderopacity="1.0"
     inkscape:showpageshadow="2"
     inkscape:pageopacity="0.0"
     inkscape:pagecheckerboard="0"
     inkscape:deskcolor="#d1d1d1"
     showgrid="false" />
  <g
     transform="matrix(1.9924,0,0,1.9924,-263.47315,-347.47917)"
     id="g40">
    <g
       id="g335"
       transform="rotate(-1,270.59438,201.47145)"
       inkscape:export-filename="g335.svg"
       inkscape:export-xdpi="72"
       inkscape:export-ydpi="72">
      <path
         d="m 136.65712,174.77424 c -0.46912,-1.0049 -1.1713,-0.14399 -1.1713,-0.14399 0,0 -0.10863,0.0214 -0.23016,0.0785 -0.3007,-0.22959 -0.7878,-0.01 -0.7878,-0.01 0,0 -0.97289,-0.2016 -0.73992,0.83118 0.10333,0.44101 0.48292,0.68693 0.96362,0.63023 0.24456,-0.0289 0.44644,-0.12962 0.58331,-0.27403 0.27986,0.19785 0.6559,0.19625 1.007,-0.0162 0.43152,-0.25611 0.56929,-0.68279 0.37521,-1.096 z"
         fill="#ff1744"
         id="path30" />
      <path
         d="m 135.72712,175.38424 c -0.0725,-0.32492 0.11827,-0.95453 0.32461,-1.09 -0.30459,0.0274 -0.56693,0.3405 -0.56693,0.3405 0,0 -0.10021,0.0204 -0.22173,0.0775 -0.009,-0.007 -0.0179,-0.006 -0.0263,-0.005 0.131,0.0957 0.23078,0.28914 0.23584,0.62201 5.6e-4,0.22224 -0.0713,0.4103 -0.19975,0.55371 0.14043,0.10314 0.46989,0.28659 1.008,-0.008 -0.2674,-0.0198 -0.48126,-0.16555 -0.55378,-0.49047 z"
         fill="#d50000"
         id="path32" />
      <path
         d="m 134.07712,175.54424 c -0.0337,0.004 -0.0789,-0.0163 -0.0923,-0.0575 -0.12512,-0.33581 0.0604,-0.50304 0.13873,-0.56358 0.0392,-0.0303 0.0918,-0.0194 0.11361,0.0208 0.0303,0.0392 0.0194,0.0918 -0.0208,0.11361 -0.0794,0.0521 -0.15275,0.15482 -0.0773,0.35969 0.0134,0.0412 -0.006,0.0948 -0.0471,0.10816 -0.006,0.0179 -0.006,0.0179 -0.0149,0.0189 z"
         fill="#ffcdd2"
         id="path34" />
      <path
         d="m 135.54712,174.46424 c -0.0114,-0.0243 -0.0218,-0.0402 -0.0333,-0.0645 -9.9e-4,-0.008 -0.0104,-0.0159 -0.0114,-0.0243 -0.0104,-0.0159 -0.0124,-0.0327 -0.0219,-0.0402 -0.0104,-0.0159 -0.0114,-0.0243 -0.0218,-0.0402 -0.0104,-0.0159 -0.0114,-0.0243 -0.0134,-0.0412 -0.0104,-0.0159 -0.0124,-0.0327 -0.0218,-0.0402 -0.0104,-0.0159 -0.0124,-0.0327 -0.0228,-0.0486 -9.9e-4,-0.008 -0.0104,-0.0159 -0.0114,-0.0243 -0.0104,-0.0159 -0.0124,-0.0327 -0.0144,-0.0496 -9.9e-4,-0.008 -0.002,-0.0169 -0.0114,-0.0243 -0.002,-0.0169 -0.0124,-0.0327 -0.0144,-0.0496 -9.9e-4,-0.008 -0.002,-0.0169 -0.0114,-0.0243 -0.002,-0.0169 -0.0124,-0.0327 -0.0144,-0.0496 l -0.0448,-0.3795 c -10e-4,-0.008 -0.002,-0.0169 0.004,-0.0347 l -0.002,-0.0169 c -0.001,-0.008 0.005,-0.0263 0.004,-0.0347 l -0.002,-0.0169 c -0.002,-0.0169 0.005,-0.0263 0.003,-0.0432 l -9.9e-4,-0.008 c -0.002,-0.0169 0.005,-0.0263 0.003,-0.0432 0.0297,-0.18307 0.10011,-0.31108 0.12887,-0.35722 0.008,-0.001 0.0159,-0.0104 0.0159,-0.0104 0.0402,-0.0218 0.0511,-0.0744 0.0292,-0.1146 -0.0218,-0.0402 -0.0511,-0.0709 -0.0913,-0.0491 0,0 -0.008,9.9e-4 -0.007,0.009 -0.008,0.001 -0.0169,0.002 -0.0243,0.0114 -0.008,0.001 -0.007,0.009 -0.0149,0.0189 -1.1095,0.66957 -0.91617,1.9465 -0.91518,1.9549 0.005,0.0422 0.0521,0.0794 0.0943,0.0744 0.0506,-0.006 0.0794,-0.0521 0.0744,-0.0943 -9.9e-4,-0.008 -0.15012,-0.98271 0.59481,-1.6264 -0.0897,0.32695 -0.12722,0.87863 0.34626,1.5581 0.0199,0.0233 0.0471,0.0372 0.0809,0.0332 0.0169,-0.002 0.0253,-0.003 0.0412,-0.0134 0.0317,-0.0208 0.0446,-0.0566 0.0322,-0.0893 -9.9e-4,-0.008 -0.0114,-0.0243 -0.0124,-0.0327 -0.0208,-0.0318 -0.0417,-0.0635 -0.0615,-0.0868 l -9.9e-4,-0.008 c -0.0199,-0.0233 -0.0407,-0.0551 -0.0521,-0.0794 z"
         fill="#5e3918"
         id="path36" />
      <path
         d="m 136.25712,173.84424 c -0.17069,-0.14232 0.11524,-1.1252 -0.88831,-1.0068 -0.44215,1.1808 0.88831,1.0068 0.88831,1.0068 z"
         fill="#4caf50"
         id="path38" />
    </g>
  </g>
</svg>
