<svg version="1.1" viewBox="0 0 20 20" xmlns="http://www.w3.org/2000/svg">
  <g stroke-width="4.1874">
    <path d="m16.028 11.157c-1.9644-4.2079-4.9047-0.60295-4.9047-0.60295s-0.45488 0.08961-0.96378 0.32871c-1.2592-0.96139-3.2989-0.04188-3.2989-0.04188s-4.0739-0.84418-3.0984 3.4805c0.43269 1.8467 2.0222 2.8765 4.0351 2.639 1.0241-0.12102 1.8694-0.54277 2.4426-1.1475 1.1719 0.82848 2.7465 0.82178 4.2167-0.06784 1.807-1.0724 2.3839-2.8591 1.5712-4.5894z" fill="#ff1744"/>
    <path d="m12.134 13.712c-0.30359-1.3606 0.49525-3.997 1.3593-4.5643-1.2754 0.11474-2.374 1.4258-2.374 1.4258s-0.41962 0.08542-0.92848 0.32453c-0.03769-0.02931-0.07495-0.02513-0.11013-0.02094 0.54855 0.40074 0.96637 1.2108 0.98756 2.6046 0.0023 0.93061-0.29856 1.7181-0.83644 2.3186 0.58804 0.43189 1.9676 1.2001 4.2209-0.0335-1.1197-0.08291-2.0152-0.69323-2.3189-2.0538z" fill="#d50000"/>
    <path d="m4.8058 14.172c-0.38231-0.71425 0.25292-2.1064 0.58092-2.3599 0.16415-0.12688 0.38441-0.08124 0.47573 0.0871 0.12688 0.16415 0.081236 0.3844-0.087098 0.47573-0.33248 0.21816-0.63963 0.6483-0.32369 1.5062 0.056112 0.17252-0.046062 0.38776-0.19723 0.45291-0.14614 0.06281-0.37352-0.02094-0.44864-0.16205z" fill="#ffcdd2"/>
    <path d="m11.38 9.8591c-1.0678-2.1054-1.6126-3.9268-0.54738-6.0935 0.0335-0.00419 0.06658-0.043549 0.06658-0.043549 0.16834-0.091286 0.21398-0.31154 0.12227-0.47988-0.11097-0.29354-0.34462-0.18132-0.38817-0.19513-0.099661-0.0083748-0.1407 0.11767-0.1876 0.1541-4.6459 2.8038-3.8364 8.1508-3.8322 8.186 0.020937 0.17671 0.21816 0.33248 0.39487 0.31154 0.21188-0.02512 0.33248-0.21816 0.31154-0.39487-0.00415-0.0335-0.62862-4.115 2.4907-6.8104-0.37561 1.3691-0.53272 3.6792 1.4499 6.5244 0.08333 0.09757 0.19723 0.15577 0.33876 0.13902 0.07077-0.0084 0.10594-0.01256 0.17252-0.05611 0.13274-0.0871 0.18676-0.23701 0.13484-0.37394-0.0041-0.0335-0.04774-0.10176-0.05192-0.13693-0.17964-0.24036-0.31783-0.48248-0.47984-0.72945z" fill="#5e3918"/>
  </g>
  <path d="m15.756 9.526c-0.95959-0.91273 0.64788-7.2164-4.994-6.457-2.4857 7.573 4.994 6.457 4.994 6.457z" fill="#4caf50" stroke-width="6.0046"/>
</svg>
