<svg version="1.1" viewBox="0 0 200 190.21" xmlns="http://www.w3.org/2000/svg">
  <g transform="translate(-166.81 -68.486)">
    <path d="m297.76 258.5c-3.7648-0.4217-5.7857-0.93141-13.44-3.3898-9.372-3.0102-10.72-3.2432-18.767-3.2432-7.5469 0-8.7423 0.17993-17.358 2.6128-14.715 4.1551-25.04 4.3382-34.209 0.60663-8.2051-3.3391-14.497-9.8618-17.479-18.12-1.0245-2.8373-1.1352-3.7244-1.1158-8.9468 0.0245-6.608 0.83871-10.405 3.3497-15.621 2.9915-6.2146 6.873-10.306 15.328-16.156 9.0286-6.2469 17.978-16.783 24.62-28.986 4.1557-7.6344 7.2141-11.607 11.316-14.696 3.3989-2.5605 5.3262-3.5726 9.3528-4.9118 2.4825-0.82564 3.865-0.98765 8.3433-0.97776 4.742 0.0105 5.7677 0.15099 8.799 1.2054 9.0696 3.1548 14.549 8.7815 20.911 21.473 6.4607 12.888 12.846 20.705 23.55 28.828 9.9113 7.5222 14.529 14.29 16.545 24.249 2.5904 12.796-4.1104 27.09-15.27 32.576-5.1373 2.5252-9.211 3.4528-16.023 3.6483-3.1135 0.0894-6.917 0.0218-8.4522-0.15015zm-105.1-62.734c-5.3648-0.89401-11.16-4.2162-15.852-9.0871-5.046-5.2384-7.5565-9.6523-9.2109-16.195-0.8111-3.2075-0.88902-4.4326-0.69553-10.935 0.2556-8.5896 1.0128-12.056 3.9552-18.105 1.6647-3.4222 2.4097-4.3911 5.9604-7.7515 6.9289-6.5575 12.201-8.3817 17.476-6.0472 2.9558 1.308 5.0605 3.1254 6.9794 6.0269 2.9448 4.4529 11.061 19.517 12.771 23.704 4.5956 11.251 4.5777 16.315-0.0916 25.957-3.4688 7.1629-7.8539 10.886-14.473 12.289-3.1652 0.67089-3.5944 0.67985-6.8194 0.14242zm141.65 0.0308c-3.4443-0.71141-7.2551-2.8298-9.9644-5.5391-1.9828-1.9828-3.0576-3.5871-4.683-6.9902-2.8212-5.9066-3.5808-9.0064-3.3409-13.633 0.32443-6.2564 2.9754-12.903 10.625-26.64 6.4473-11.578 8.2373-13.727 12.917-15.505 4.1888-1.5916 8.0494-0.77435 12.962 2.744 4.5898 3.2872 8.2983 7.5058 10.239 11.648 2.7379 5.8425 3.4688 9.2784 3.7078 17.431 0.28168 9.6066-0.76296 14.303-4.659 20.946-1.8504 3.155-8.8889 10.199-12.033 12.042-4.9359 2.894-11.568 4.3645-15.77 3.4965zm-106.27-50.022c-3.8469-0.97137-7.2299-2.9999-10.264-6.1543-3.2638-3.3937-5.341-6.9756-7.2573-12.515-1.3713-3.9636-1.4117-4.2808-1.4212-11.165-0.0113-8.136 0.68314-12.272 2.9918-17.821 3.163-7.6018 10.437-19.047 15.033-23.652 8.0513-8.0683 15.249-7.9379 23.627 0.42808 5.5202 5.5123 7.094 9.2232 9.7162 22.91 2.3917 12.484 2.1058 20.448-1.0022 27.921-3.5636 8.5691-11.26 16.784-18.384 19.62-2.6335 1.0488-9.6649 1.2789-13.04 0.42673zm66.046-0.21879c-6.7347-2.1357-14.468-9.7172-18.42-18.059-3.9242-8.2827-4.4063-16.196-1.8038-29.612 2.373-12.234 3.8855-16.365 7.7101-21.06 3.3681-4.1347 8.8038-7.7102 12.58-8.2746 2.3015-0.344 6.2749 0.70524 8.7952 2.3225 5.1773 3.3223 12.112 12.628 17.568 23.577 2.6289 5.2753 3.6793 8.6021 4.4979 14.246 0.82791 5.7083 0.83368 8.7242 0.0256 13.358-1.7295 9.9178-7.162 18.355-14.068 21.849-5.1908 2.6262-11.781 3.2713-16.884 1.6529z" fill="#5e3918" stroke-width=".42942"/>
  </g>
</svg>
