<svg width="1038" height="370" viewBox="0 0 1038 370" fill="none" xmlns="http://www.w3.org/2000/svg" transform='translate(25 0)'>
<rect x="100" y="90" stroke="#46403a" stroke-width="10px" width="70" height="70" />
<path d="M1008.28 3.37775C987.918 3.66877 968.682 10.562 951.354 21.1043C928.248 35.1607 908.152 55.6446 891.428 76.6414C871.676 101.44 857.341 125.99 848.293 142.87C847.835 141.373 847.541 139.948 846.963 138.425C844.279 131.352 840.168 123.945 833.551 118.132C826.933 112.318 817.704 108.395 806.5 108.395C804.511 108.395 802.603 109.186 801.197 110.592C799.79 111.999 799 113.906 799 115.895C799 117.884 799.79 119.792 801.197 121.199C802.603 122.605 804.511 123.395 806.5 123.395C814.41 123.395 819.516 125.769 823.65 129.401C827.785 133.033 830.842 138.223 832.938 143.745C837.128 154.789 837.229 166.274 837.229 166.274C837.23 167.988 837.818 169.65 838.895 170.983C839.973 172.316 841.474 173.24 843.15 173.601C844.825 173.962 846.574 173.739 848.105 172.967C849.635 172.196 850.856 170.924 851.562 169.362C851.562 169.362 871.113 126.223 903.16 85.9871C919.184 65.8694 938.3 46.6035 959.15 33.9188C980.001 21.2341 1002.2 15.0724 1025.89 20.0731C1027.83 20.4837 1029.86 20.1045 1031.53 19.0189C1033.2 17.9332 1034.36 16.2301 1034.78 14.284C1035.19 12.3382 1034.81 10.3089 1033.72 8.64236C1032.64 6.97586 1030.93 5.8086 1028.99 5.39728C1021.98 3.91755 1015.07 3.28075 1008.28 3.37775Z" fill="#426932" stroke="#D3E8CA" stroke-width="5" transform="translate(-600 1) scale(0.87)"/>
<path d="M265.704 151.408H270.504C270.504 154.693 269.672 157.125 268.008 158.704C266.344 160.283 264.317 161.072 261.928 161.072C257.96 161.072 254.803 159.685 252.456 156.912C250.109 154.096 247.955 149.253 245.992 142.384C244.797 142.171 243.432 141.765 241.896 141.168V155.568H247.464V160.368H230.248V155.568H236.456V119.92C231.251 120.304 227.56 121.221 225.384 122.672C223.208 124.123 222.12 126.107 222.12 128.624C222.12 129.904 222.397 130.971 222.952 131.824C223.507 132.635 224.317 133.04 225.384 133.04C227.389 133.04 228.392 131.355 228.392 127.984H233.512C233.512 130.757 232.872 133.104 231.592 135.024C230.312 136.901 228.243 137.84 225.384 137.84C222.525 137.84 220.413 136.944 219.048 135.152C217.683 133.36 217 131.184 217 128.624C217 124.443 218.984 121.115 222.952 118.64C226.92 116.165 232.979 114.928 241.128 114.928C249.277 114.928 255.208 116.229 258.92 118.832C262.632 121.435 264.488 124.827 264.488 129.008C264.488 133.147 263.272 136.389 260.84 138.736C258.408 141.083 255.272 142.384 251.432 142.64C252.84 147.547 254.333 151.045 255.912 153.136C257.491 155.227 259.283 156.272 261.288 156.272C262.568 156.272 263.613 155.845 264.424 154.992C265.277 154.096 265.704 152.901 265.704 151.408ZM241.896 119.728V136.432C243.901 137.371 246.653 137.84 250.152 137.84C252.584 137.84 254.675 137.051 256.424 135.472C258.173 133.851 259.048 131.781 259.048 129.264C259.048 126.192 257.725 123.845 255.08 122.224C252.435 120.56 248.04 119.728 241.896 119.728ZM282.203 161.008C279.259 161.008 276.955 160.176 275.291 158.512C273.627 156.805 272.795 154.544 272.795 151.728C272.795 148.869 273.904 146.48 276.123 144.56C278.342 142.64 281.627 141.68 285.979 141.68H292.955V138.416C292.955 134.491 291.078 132.528 287.323 132.528C284.166 132.528 281.264 132.912 278.619 133.68V137.968H274.139V130.352C276.059 129.541 278.32 128.901 280.923 128.432C283.568 127.963 285.766 127.728 287.515 127.728C290.928 127.728 293.595 128.709 295.515 130.672C297.435 132.592 298.395 135.173 298.395 138.416V156.528H303.643V159.216C302.064 160.197 300.251 160.688 298.203 160.688C296.155 160.688 294.768 160.347 294.043 159.664C293.318 158.981 292.955 157.829 292.955 156.208C289.755 159.408 286.171 161.008 282.203 161.008ZM282.779 156.208C286.448 156.208 289.84 154.139 292.955 150V145.904H285.915C283.312 145.904 281.371 146.416 280.091 147.44C278.854 148.464 278.235 149.765 278.235 151.344C278.235 152.88 278.619 154.075 279.387 154.928C280.155 155.781 281.286 156.208 282.779 156.208ZM306.937 132.528V128.368H317.305V156.208H322.873V160.368H306.873V156.208H311.865V132.528H306.937ZM314.425 122.672C313.486 122.672 312.718 122.331 312.121 121.648C311.523 120.965 311.225 120.155 311.225 119.216C311.225 118.235 311.545 117.381 312.185 116.656C312.867 115.931 313.678 115.568 314.617 115.568C315.555 115.568 316.323 115.909 316.921 116.592C317.518 117.275 317.817 118.107 317.817 119.088C317.817 120.027 317.475 120.859 316.793 121.584C316.153 122.309 315.363 122.672 314.425 122.672ZM327.06 151.152H331.54V155.184C333.161 155.824 335.124 156.144 337.428 156.144C339.775 156.144 341.545 155.781 342.74 155.056C343.977 154.288 344.596 153.349 344.596 152.24C344.596 151.131 344.127 150.235 343.188 149.552C342.292 148.827 340.116 147.547 336.66 145.712C333.247 143.877 330.857 142.341 329.492 141.104C328.127 139.824 327.444 138.16 327.444 136.112C327.444 133.467 328.468 131.419 330.516 129.968C332.607 128.475 335.444 127.728 339.028 127.728C342.612 127.728 346.004 128.603 349.204 130.352V137.968H344.724V133.68C342.847 132.912 340.841 132.528 338.708 132.528C336.617 132.528 335.124 132.933 334.228 133.744C333.332 134.512 332.884 135.365 332.884 136.304C332.884 137.243 333.225 137.989 333.908 138.544C335.06 139.483 337.129 140.699 340.116 142.192C343.913 144.283 346.516 145.968 347.924 147.248C349.332 148.528 350.036 150.171 350.036 152.176C350.036 154.821 348.905 156.955 346.644 158.576C344.383 160.155 341.225 160.944 337.172 160.944C333.161 160.944 329.791 160.133 327.06 158.512V151.152ZM382.897 142.192V145.584H360.305C360.518 148.699 361.436 151.259 363.057 153.264C364.678 155.227 366.854 156.208 369.585 156.208C371.377 156.208 372.977 156.016 374.385 155.632C375.836 155.248 376.838 154.907 377.393 154.608C377.948 154.267 378.716 153.776 379.697 153.136L382.065 156.72C378.822 159.579 374.769 161.008 369.905 161.008C365.041 161.008 361.308 159.451 358.705 156.336C356.145 153.179 354.865 149.189 354.865 144.368C354.865 139.547 356.145 135.579 358.705 132.464C361.308 129.307 364.828 127.728 369.265 127.728C373.745 127.728 377.137 129.072 379.441 131.76C381.745 134.448 382.897 137.925 382.897 142.192ZM377.457 141.04C377.201 138.437 376.412 136.368 375.089 134.832C373.809 133.296 371.953 132.528 369.521 132.528C367.132 132.528 365.169 133.317 363.633 134.896C362.097 136.432 361.073 138.48 360.561 141.04H377.457ZM414.573 112.368V156.528H419.821V159.216C418.242 160.197 416.45 160.688 414.445 160.688C412.439 160.688 411.053 160.411 410.285 159.856C409.559 159.259 409.175 158.256 409.133 156.848C406.615 159.621 403.394 161.008 399.469 161.008C395.543 161.008 392.493 159.472 390.317 156.4C388.141 153.285 387.053 149.317 387.053 144.496C387.053 139.632 388.333 135.621 390.893 132.464C393.453 129.307 397.101 127.728 401.837 127.728C404.141 127.728 406.573 128.176 409.133 129.072V116.528H404.205V112.368H414.573ZM392.493 144.176C392.493 147.675 393.197 150.555 394.605 152.816C396.013 155.077 397.975 156.208 400.493 156.208C403.053 156.208 405.122 155.205 406.701 153.2C408.322 151.195 409.133 148.784 409.133 145.968V134.576C406.871 133.211 404.418 132.528 401.773 132.528C399.17 132.528 396.973 133.595 395.181 135.728C393.389 137.819 392.493 140.635 392.493 144.176ZM487.738 128.368V132.528H484.09L476.666 160.368H471.034L464.634 136.432L458.234 160.368H452.602L445.114 132.528H441.53V128.368H455.098V132.528H450.618L455.738 153.84L461.818 128.368H467.45L473.53 153.84L478.586 132.528H474.17V128.368H487.738ZM491.624 132.528V128.368H501.992V156.208H507.56V160.368H491.56V156.208H496.552V132.528H491.624ZM499.112 122.672C498.173 122.672 497.405 122.331 496.808 121.648C496.211 120.965 495.912 120.155 495.912 119.216C495.912 118.235 496.232 117.381 496.872 116.656C497.555 115.931 498.365 115.568 499.304 115.568C500.243 115.568 501.011 115.909 501.608 116.592C502.205 117.275 502.504 118.107 502.504 119.088C502.504 120.027 502.163 120.859 501.48 121.584C500.84 122.309 500.051 122.672 499.112 122.672ZM510.468 132.528V129.008L515.396 128.368H516.036C517.401 125.168 518.318 122.352 518.788 119.92H521.476V128.368H531.012V132.528H521.476V152.176C521.476 153.627 521.71 154.672 522.18 155.312C522.692 155.952 523.545 156.272 524.74 156.272C525.934 156.272 527.534 155.867 529.54 155.056L531.652 158.704C529.22 160.24 526.617 161.008 523.844 161.008C521.07 161.008 519.065 160.283 517.828 158.832C516.633 157.381 516.036 155.504 516.036 153.2V132.528H510.468ZM544.586 156.208H550.154V160.368H534.218V156.208H539.146V116.528H534.218V112.368H544.586V131.504C548.98 128.987 552.97 127.728 556.554 127.728C560.138 127.728 562.612 128.816 563.978 130.992C565.386 133.168 566.09 136.176 566.09 140.016V156.528H571.338V159.216C569.759 160.197 567.924 160.688 565.833 160.688C563.786 160.688 562.399 160.347 561.674 159.664C560.991 158.939 560.65 157.787 560.65 156.208V140.016C560.65 137.541 560.33 135.685 559.69 134.448C559.05 133.168 557.578 132.528 555.274 132.528C552.97 132.528 549.407 133.808 544.586 136.368V156.208Z" fill="#46403a"/>
<path d="M599.224 145.168H600.936V146.368H599.224V154.768C599.224 156.059 598.915 157.072 598.296 157.808C597.677 158.555 596.765 158.928 595.56 158.928V157.808C596.296 157.808 596.861 157.541 597.256 157.008C597.661 156.475 597.864 155.728 597.864 154.768V146.4C596.552 146.485 595.624 146.704 595.08 147.056C594.547 147.408 594.28 147.92 594.28 148.592C594.28 148.912 594.349 149.179 594.488 149.392C594.627 149.595 594.829 149.696 595.096 149.696C595.597 149.696 595.848 149.275 595.848 148.432H597.128C597.128 149.125 596.968 149.712 596.648 150.192C596.328 150.661 595.811 150.896 595.096 150.896C594.381 150.896 593.853 150.672 593.512 150.224C593.171 149.776 593 149.232 593 148.592C593 147.547 593.496 146.715 594.488 146.096C595.48 145.477 597.059 145.168 599.224 145.168ZM604.145 156.528C603.409 156.528 602.833 156.32 602.417 155.904C602.001 155.477 601.793 154.912 601.793 154.208C601.793 153.493 602.07 152.896 602.625 152.416C603.179 151.936 604.001 151.696 605.089 151.696H606.833V150.88C606.833 149.899 606.363 149.408 605.424 149.408C604.635 149.408 603.91 149.504 603.249 149.696V150.768H602.129V148.864C602.609 148.661 603.174 148.501 603.825 148.384C604.486 148.267 605.035 148.208 605.473 148.208C606.326 148.208 606.993 148.453 607.473 148.944C607.953 149.424 608.193 150.069 608.193 150.88V155.408H609.505V156.08C609.11 156.325 608.657 156.448 608.145 156.448C607.633 156.448 607.286 156.363 607.105 156.192C606.923 156.021 606.833 155.733 606.833 155.328C606.033 156.128 605.137 156.528 604.145 156.528ZM604.289 155.328C605.206 155.328 606.054 154.811 606.833 153.776V152.752H605.073C604.422 152.752 603.937 152.88 603.617 153.136C603.307 153.392 603.153 153.717 603.153 154.112C603.153 154.496 603.249 154.795 603.441 155.008C603.633 155.221 603.915 155.328 604.289 155.328ZM612.584 155.328H613.976V156.368H609.992V155.328H611.224V149.408H609.992V148.368H612.28L612.472 149.216C612.835 149.013 613.128 148.859 613.352 148.752C613.576 148.635 613.896 148.517 614.312 148.4C614.739 148.272 615.149 148.208 615.544 148.208C616.461 148.208 617.091 148.48 617.432 149.024C617.784 149.568 617.96 150.32 617.96 151.28V155.408H619.272V156.08C618.877 156.325 618.419 156.448 617.896 156.448C617.384 156.448 617.037 156.363 616.856 156.192C616.685 156.011 616.6 155.723 616.6 155.328V151.28C616.6 150.661 616.52 150.197 616.36 149.888C616.2 149.568 615.832 149.408 615.256 149.408C614.68 149.408 613.789 149.728 612.584 150.368V155.328ZM627.006 151.824V152.672H621.358C621.411 153.451 621.64 154.091 622.046 154.592C622.451 155.083 622.995 155.328 623.678 155.328C624.126 155.328 624.526 155.28 624.878 155.184C625.24 155.088 625.491 155.003 625.63 154.928C625.768 154.843 625.96 154.72 626.206 154.56L626.798 155.456C625.987 156.171 624.974 156.528 623.758 156.528C622.542 156.528 621.608 156.139 620.958 155.36C620.318 154.571 619.998 153.573 619.998 152.368C619.998 151.163 620.318 150.171 620.958 149.392C621.608 148.603 622.488 148.208 623.598 148.208C624.718 148.208 625.566 148.544 626.142 149.216C626.718 149.888 627.006 150.757 627.006 151.824ZM625.646 151.536C625.582 150.885 625.384 150.368 625.054 149.984C624.734 149.6 624.27 149.408 623.661 149.408C623.064 149.408 622.574 149.605 622.19 150C621.806 150.384 621.55 150.896 621.422 151.536H625.646ZM645.542 154.128H646.742C646.742 154.949 646.534 155.557 646.118 155.952C645.702 156.347 645.174 156.544 644.534 156.544C643.904 156.544 643.392 156.4 642.998 156.112C642.614 155.824 642.224 155.317 641.83 154.592L640.07 151.408L638.662 152.048V155.168H640.214V156.368H637.302V146.4C635.99 146.485 635.062 146.704 634.518 147.056C633.984 147.408 633.718 147.92 633.718 148.592C633.718 148.912 633.787 149.179 633.926 149.392C634.064 149.595 634.267 149.696 634.534 149.696C635.035 149.696 635.286 149.275 635.286 148.432H636.566C636.566 149.125 636.406 149.712 636.086 150.192C635.766 150.661 635.248 150.896 634.534 150.896C633.819 150.896 633.291 150.672 632.95 150.224C632.608 149.776 632.438 149.232 632.438 148.592C632.438 147.589 632.886 146.768 633.782 146.128C634.678 145.488 636.086 145.168 638.006 145.168H640.054V146.368H638.662V150.672L639.846 150.128L642.934 146.368H642.166V145.168H645.798V146.368H644.598L641.094 150.496L643.094 154.128C643.36 154.565 643.59 154.88 643.782 155.072C643.984 155.253 644.224 155.344 644.502 155.344C644.779 155.344 645.019 155.237 645.222 155.024C645.435 154.8 645.542 154.501 645.542 154.128ZM635.75 156.368V155.168H637.302V156.368H635.75ZM647.375 149.408V148.368H649.967V155.328H651.359V156.368H647.359V155.328H648.607V149.408H647.375ZM649.247 146.944C649.012 146.944 648.82 146.859 648.671 146.688C648.521 146.517 648.447 146.315 648.447 146.08C648.447 145.835 648.527 145.621 648.687 145.44C648.857 145.259 649.06 145.168 649.295 145.168C649.529 145.168 649.721 145.253 649.871 145.424C650.02 145.595 650.095 145.803 650.095 146.048C650.095 146.283 650.009 146.491 649.839 146.672C649.679 146.853 649.481 146.944 649.247 146.944ZM652.102 145.408V144.368H654.694V155.328H656.086V156.368H652.086V155.328H653.334V145.408H652.102ZM656.82 145.408V144.368H659.412V155.328H660.804V156.368H656.804V155.328H658.052V145.408H656.82ZM661.859 149.408V148.368H664.451V155.328H665.843V156.368H661.843V155.328H663.091V149.408H661.859ZM663.731 146.944C663.496 146.944 663.304 146.859 663.155 146.688C663.006 146.517 662.931 146.315 662.931 146.08C662.931 145.835 663.011 145.621 663.171 145.44C663.342 145.259 663.544 145.168 663.779 145.168C664.014 145.168 664.206 145.253 664.355 145.424C664.504 145.595 664.579 145.803 664.579 146.048C664.579 146.283 664.494 146.491 664.323 146.672C664.163 146.853 663.966 146.944 663.731 146.944ZM667.818 155.36C667.146 154.571 666.81 153.573 666.81 152.368C666.81 151.163 667.146 150.171 667.818 149.392C668.49 148.603 669.434 148.208 670.65 148.208C671.866 148.208 672.81 148.603 673.482 149.392C674.154 150.171 674.49 151.163 674.49 152.368C674.49 153.573 674.154 154.571 673.482 155.36C672.81 156.139 671.866 156.528 670.65 156.528C669.434 156.528 668.49 156.139 667.818 155.36ZM668.826 150.24C668.389 150.795 668.17 151.504 668.17 152.368C668.17 153.232 668.389 153.941 668.826 154.496C669.263 155.051 669.871 155.328 670.65 155.328C671.429 155.328 672.037 155.051 672.474 154.496C672.911 153.941 673.13 153.232 673.13 152.368C673.13 151.504 672.911 150.795 672.474 150.24C672.037 149.685 671.429 149.408 670.65 149.408C669.871 149.408 669.263 149.685 668.826 150.24ZM677.959 155.328H679.351V156.368H675.367V155.328H676.599V149.408H675.367V148.368H677.655L677.847 149.216C678.21 149.013 678.503 148.859 678.727 148.752C678.951 148.635 679.271 148.517 679.687 148.4C680.114 148.272 680.524 148.208 680.919 148.208C681.836 148.208 682.466 148.48 682.807 149.024C683.159 149.568 683.335 150.32 683.335 151.28V155.408H684.647V156.08C684.252 156.325 683.794 156.448 683.271 156.448C682.759 156.448 682.412 156.363 682.231 156.192C682.06 156.011 681.975 155.723 681.975 155.328V151.28C681.975 150.661 681.895 150.197 681.735 149.888C681.575 149.568 681.207 149.408 680.631 149.408C680.055 149.408 679.164 149.728 677.959 150.368V155.328ZM686.397 146.832C686.109 146.779 685.901 146.656 685.773 146.464C685.655 146.272 685.597 146.064 685.597 145.84C685.597 145.616 685.687 145.424 685.868 145.264C686.05 145.093 686.274 145.008 686.541 145.008C686.807 145.008 687.031 145.099 687.213 145.28C687.405 145.461 687.501 145.744 687.501 146.128C687.501 146.501 687.373 146.992 687.117 147.6C686.861 148.208 686.546 148.715 686.173 149.12L685.661 148.8C685.863 148.544 686.034 148.229 686.173 147.856C686.322 147.472 686.397 147.131 686.397 146.832ZM689.453 154.064H690.573V155.072C690.978 155.232 691.469 155.312 692.045 155.312C692.631 155.312 693.074 155.221 693.373 155.04C693.682 154.848 693.837 154.613 693.837 154.336C693.837 154.059 693.719 153.835 693.485 153.664C693.261 153.483 692.717 153.163 691.853 152.704C690.999 152.245 690.402 151.861 690.061 151.552C689.719 151.232 689.549 150.816 689.549 150.304C689.549 149.643 689.805 149.131 690.317 148.768C690.839 148.395 691.549 148.208 692.445 148.208C693.341 148.208 694.189 148.427 694.989 148.864V150.768H693.869V149.696C693.399 149.504 692.898 149.408 692.365 149.408C691.842 149.408 691.469 149.509 691.245 149.712C691.021 149.904 690.909 150.117 690.909 150.352C690.909 150.587 690.994 150.773 691.164 150.912C691.453 151.147 691.97 151.451 692.717 151.824C693.666 152.347 694.317 152.768 694.669 153.088C695.021 153.408 695.197 153.819 695.197 154.32C695.197 154.981 694.914 155.515 694.349 155.92C693.783 156.315 692.994 156.512 691.981 156.512C690.978 156.512 690.135 156.309 689.453 155.904V154.064Z" fill="#46403a"/>
<path d="M101.542 276.268H116.518V285.868H78.246V276.268H90.662V204.972C80.2513 205.74 72.87 207.575 68.518 210.476C64.166 213.377 61.99 217.345 61.99 222.38C61.99 224.94 62.5447 227.073 63.654 228.78C64.7633 230.401 66.3847 231.212 68.518 231.212C72.5287 231.212 74.534 227.841 74.534 221.1H84.774C84.774 226.647 83.494 231.34 80.934 235.18C78.374 238.935 74.2353 240.812 68.518 240.812C62.8007 240.812 58.5767 239.02 55.846 235.436C53.1153 231.852 51.75 227.5 51.75 222.38C51.75 214.017 55.718 207.361 63.654 202.412C71.59 197.463 83.7073 194.988 100.006 194.988C116.305 194.988 128.166 197.719 135.59 203.18C143.014 208.556 146.726 215.724 146.726 224.684C146.726 233.559 143.995 240.513 138.534 245.548C133.158 250.497 126.331 252.972 118.054 252.972C111.654 252.972 106.15 251.991 101.542 250.028V276.268ZM101.542 204.588V240.556C105.553 242.433 111.057 243.372 118.054 243.372C122.918 243.372 127.099 241.665 130.598 238.252C134.097 234.753 135.846 230.316 135.846 224.94C135.846 218.369 133.201 213.335 127.91 209.836C122.619 206.337 113.83 204.588 101.542 204.588ZM195.538 230.188V221.868H216.274V278.188H226.77V283.564C223.613 285.527 219.389 286.508 214.098 286.508C208.893 286.508 206.034 284.247 205.522 279.724C196.562 284.759 188.498 287.276 181.33 287.276C174.247 287.276 169.298 285.1 166.482 280.748C163.751 276.396 162.386 270.38 162.386 262.7V230.188H152.53V221.868H173.266V262.7C173.266 267.649 173.906 271.404 175.186 273.964C176.466 276.439 179.41 277.676 184.018 277.676C188.626 277.676 195.751 275.116 205.394 269.996V230.188H195.538ZM230.56 230.188V221.868H248.864L250.656 229.676C255.776 223.617 262.347 220.588 270.368 220.588C278.389 220.588 284.576 223.703 288.928 229.932C293.28 236.076 295.456 244.012 295.456 253.74C295.456 263.383 292.896 271.361 287.776 277.676C282.656 283.991 275.36 287.148 265.888 287.148C261.451 287.148 256.587 286.295 251.296 284.588V305.068H261.152V313.388H230.56V305.068H240.416V230.188H230.56ZM284.576 254.38C284.576 247.297 283.168 241.495 280.352 236.972C277.536 232.449 273.568 230.188 268.448 230.188C263.413 230.188 259.275 232.193 256.032 236.204C252.875 240.215 251.296 245.036 251.296 250.668V273.58C255.904 276.225 260.469 277.548 264.992 277.548C270.88 277.548 275.616 275.457 279.2 271.276C282.784 267.009 284.576 261.377 284.576 254.38ZM302.435 230.188V221.868H320.739L322.531 229.676C327.651 223.617 334.222 220.588 342.243 220.588C350.264 220.588 356.451 223.703 360.803 229.932C365.155 236.076 367.331 244.012 367.331 253.74C367.331 263.383 364.771 271.361 359.651 277.676C354.531 283.991 347.235 287.148 337.763 287.148C333.326 287.148 328.462 286.295 323.171 284.588V305.068H333.027V313.388H302.435V305.068H312.291V230.188H302.435ZM356.451 254.38C356.451 247.297 355.043 241.495 352.227 236.972C349.411 232.449 345.443 230.188 340.323 230.188C335.288 230.188 331.15 232.193 327.907 236.204C324.75 240.215 323.171 245.036 323.171 250.668V273.58C327.779 276.225 332.344 277.548 336.867 277.548C342.755 277.548 347.491 275.457 351.075 271.276C354.659 267.009 356.451 261.377 356.451 254.38ZM373.03 230.188V221.868H397.222V230.188H392.614L406.95 273.58L420.39 230.188H414.502V221.868H437.542V230.188H431.526L412.966 285.868C409.723 295.34 406.139 302.508 402.214 307.372C398.289 312.321 392.827 314.796 385.83 314.796C381.819 314.796 377.553 314.028 373.03 312.492L376.102 303.532C379.601 304.556 382.587 305.068 385.062 305.068C392.401 305.068 398.033 299.265 401.958 287.66L380.966 230.188H373.03ZM552.996 218.668C552.996 223.788 551.631 228.14 548.9 231.724C546.169 235.308 541.945 237.1 536.228 237.1C530.511 237.1 526.372 235.223 523.812 231.468C521.252 227.628 519.972 222.935 519.972 217.388H530.212C530.212 224.129 532.217 227.5 536.228 227.5C538.361 227.5 539.983 226.689 541.092 225.068C542.201 223.361 542.756 221.228 542.756 218.668C542.756 214.572 540.879 211.329 537.124 208.94C533.369 206.465 528.975 205.228 523.94 205.228C515.065 205.228 507.94 208.641 502.564 215.468C497.188 222.209 494.5 230.743 494.5 241.068C494.5 251.393 497.188 259.969 502.564 266.796C507.94 273.537 515.023 276.908 523.812 276.908C532.687 276.908 540.623 273.239 547.62 265.9L555.428 272.3C547.833 282.199 537.508 287.148 524.452 287.148C511.396 287.148 501.199 282.924 493.86 274.476C486.607 265.943 482.98 254.892 482.98 241.324C482.98 227.756 486.649 216.663 493.988 208.044C501.327 199.34 511.311 194.988 523.94 194.988C531.705 194.988 538.489 197.207 544.292 201.644C550.095 205.996 552.996 211.671 552.996 218.668ZM601.538 230.188V221.868H622.274V278.188H632.77V283.564C629.613 285.527 625.389 286.508 620.098 286.508C614.893 286.508 612.034 284.247 611.522 279.724C602.562 284.759 594.498 287.276 587.33 287.276C580.247 287.276 575.298 285.1 572.482 280.748C569.751 276.396 568.386 270.38 568.386 262.7V230.188H558.53V221.868H579.266V262.7C579.266 267.649 579.906 271.404 581.186 273.964C582.466 276.439 585.41 277.676 590.018 277.676C594.626 277.676 601.751 275.116 611.394 269.996V230.188H601.538ZM636.688 198.188V189.868H657.424V277.548H668.56V285.868H636.56V277.548H646.544V198.188H636.688ZM674.31 230.188V223.148L684.166 221.868H685.446C688.177 215.468 690.011 209.836 690.95 204.972H696.326V221.868H715.398V230.188H696.326V269.484C696.326 272.385 696.795 274.476 697.734 275.756C698.758 277.036 700.465 277.676 702.854 277.676C705.243 277.676 708.443 276.865 712.454 275.244L716.678 282.54C711.814 285.612 706.609 287.148 701.062 287.148C695.515 287.148 691.505 285.697 689.03 282.796C686.641 279.895 685.446 276.14 685.446 271.532V230.188H674.31ZM763.538 230.188V221.868H784.274V278.188H794.77V283.564C791.613 285.527 787.389 286.508 782.098 286.508C776.893 286.508 774.034 284.247 773.522 279.724C764.562 284.759 756.498 287.276 749.33 287.276C742.247 287.276 737.298 285.1 734.482 280.748C731.751 276.396 730.386 270.38 730.386 262.7V230.188H720.53V221.868H741.266V262.7C741.266 267.649 741.906 271.404 743.186 273.964C744.466 276.439 747.41 277.676 752.018 277.676C756.626 277.676 763.751 275.116 773.394 269.996V230.188H763.538ZM819.296 277.548H830.432V285.868H798.56V277.548H808.416V230.188H798.56V221.868H816.864L818.4 228.652C821.301 227.031 823.648 225.793 825.44 224.94C827.232 224.001 829.792 223.063 833.12 222.124C836.533 221.1 839.819 220.588 842.976 220.588L850.144 222.508L847.2 233.004L841.44 231.468C834.272 231.468 826.891 233.26 819.296 236.844V277.548ZM910.419 249.516V256.3H865.235C865.662 262.529 867.496 267.649 870.739 271.66C873.982 275.585 878.334 277.548 883.795 277.548C887.379 277.548 890.579 277.164 893.395 276.396C896.296 275.628 898.302 274.945 899.411 274.348C900.52 273.665 902.056 272.684 904.019 271.404L908.755 278.572C902.27 284.289 894.163 287.148 884.435 287.148C874.707 287.148 867.24 284.033 862.035 277.804C856.915 271.489 854.355 263.511 854.355 253.868C854.355 244.225 856.915 236.289 862.035 230.06C867.24 223.745 874.28 220.588 883.155 220.588C892.115 220.588 898.899 223.276 903.507 228.652C908.115 234.028 910.419 240.983 910.419 249.516ZM899.539 247.212C899.027 242.007 897.448 237.868 894.803 234.796C892.243 231.724 888.531 230.188 883.667 230.188C878.888 230.188 874.963 231.767 871.891 234.924C868.819 237.996 866.771 242.092 865.747 247.212H899.539Z" fill="#46403a"/>
</svg>
